<svg width="110" height="110" viewBox="0 0 110 110" fill="none" xmlns="http://www.w3.org/2000/svg">
<path d="M55 109.166C25.0846 109.166 0.833313 84.9151 0.833313 54.9997C0.833313 25.0843 25.0846 0.833008 55 0.833008C84.9154 0.833008 109.167 25.0843 109.167 54.9997C109.134 84.9015 84.9018 109.134 55 109.166ZM55 11.6663C31.0676 11.6663 11.6666 31.0673 11.6666 54.9997C11.6666 78.932 31.0676 98.333 55 98.333C78.9323 98.333 98.3333 78.932 98.3333 54.9997C98.3064 31.0785 78.9212 11.6932 55 11.6663ZM44.1666 87.4997C44.0908 87.4997 43.4083 87.4726 38.75 87.4726H33.3333V87.3426C33.3333 87.283 33.3333 87.2072 33.3333 87.1151C33.3333 86.9363 33.3333 86.6926 33.3712 86.3947C33.4308 85.5876 33.5229 84.8184 33.6529 84.0547C34.0586 81.5888 34.8251 79.196 35.9279 76.9534C37.4336 73.8569 39.7323 71.2143 42.5904 69.2943L42.6662 69.2455L42.7529 69.1805L42.8341 69.1372H42.8666H42.9046H42.9316H42.9696L43.0291 69.0993C46.6302 66.9002 50.7811 65.7676 55 65.833C59.3853 65.7164 63.7052 66.9143 67.4042 69.2726C70.2597 71.1956 72.5577 73.8374 74.0667 76.9318C75.1737 79.1722 75.9387 81.5658 76.3362 84.033C76.5096 85.0513 76.5854 85.8693 76.6179 86.373C76.6179 86.6113 76.6504 86.8497 76.6558 87.0934C76.6558 87.1855 76.6558 87.2613 76.6558 87.3209V87.4293C76.6558 87.4293 76.4391 87.4293 71.2392 87.4293C66.3316 87.4293 65.8225 87.4293 65.8225 87.4293C65.8225 87.4293 65.8225 87.2722 65.8225 87.1097C65.8225 86.8118 65.7521 86.3513 65.6546 85.7772C65.4274 84.3735 64.9968 83.0104 64.3762 81.7309C63.7054 80.3245 62.676 79.1195 61.3917 78.2372C59.4613 77.0978 57.2385 76.5516 55 76.6663C52.756 76.5679 50.5328 77.1331 48.6083 78.2913C47.3256 79.1755 46.2967 80.38 45.6237 81.7851C45.0043 83.065 44.5737 84.4279 44.3454 85.8313C44.2685 86.2724 44.2143 86.7172 44.1829 87.1638C44.1829 87.3155 44.1829 87.4239 44.1829 87.478H44.1666V87.4997ZM36.0416 54.9997C31.5543 54.9997 27.9166 51.362 27.9166 46.8747C27.9166 42.3874 31.5543 38.7497 36.0416 38.7497C40.529 38.7497 44.1666 42.3874 44.1666 46.8747C44.1666 51.362 40.529 54.9997 36.0416 54.9997ZM73.9204 54.9238C69.454 54.9238 65.8333 51.3031 65.8333 46.8368C65.8333 42.3704 69.454 38.7497 73.9204 38.7497C78.3868 38.7497 82.0075 42.3704 82.0075 46.8368C82.0015 51.3007 78.3843 54.9179 73.9204 54.9238Z" fill="#D8DFE3"/>
</svg>
