<svg width="17" height="18" viewBox="0 0 17 18" fill="none" xmlns="http://www.w3.org/2000/svg">
<g clip-path="url(#clip0)">
<path d="M8.5 17.5C13.1944 17.5 17 13.6944 17 9C17 4.30558 13.1944 0.5 8.5 0.5C3.80558 0.5 0 4.30558 0 9C0 13.6944 3.80558 17.5 8.5 17.5Z" fill="#F0F0F0"/>
<path d="M4.80469 11.9561L5.54382 16.9709C6.46461 17.3126 7.46061 17.4995 8.50033 17.4995C12.155 17.4995 15.2706 15.1929 16.4716 11.9561H4.80469Z" fill="black"/>
<path d="M4.80469 6.04349L5.54382 1.02863C6.46461 0.686934 7.46061 0.5 8.50033 0.5C12.155 0.5 15.2706 2.80669 16.4716 6.04349H4.80469Z" fill="#6DA544"/>
<path d="M0 8.99963C0 12.6543 2.30672 15.7699 5.54349 16.9709V1.02832C2.30672 2.22931 0 5.34493 0 8.99963Z" fill="#A2001D"/>
</g>
<defs>
<clipPath id="clip0">
<rect width="17" height="17" fill="white" transform="translate(0 0.5)"/>
</clipPath>
</defs>
</svg>
