<svg width="170" height="56" viewBox="0 0 170 56" fill="none" xmlns="http://www.w3.org/2000/svg">
<rect width="170" height="56" rx="6" fill="#1D2127"/>
<path d="M22.1251 40.0079C21.2868 39.9624 20.4979 39.5968 19.9211 38.9866C19.2313 38.3229 18.6157 37.5861 18.0851 36.7893C17.2565 35.6026 16.6014 34.3037 16.1398 32.932C15.617 31.4562 15.3417 29.9042 15.3251 28.3386C15.285 26.8024 15.6658 25.2845 16.4265 23.9493C16.9832 22.9867 17.7774 22.183 18.7331 21.6146C19.6783 21.0487 20.7569 20.7441 21.8585 20.7319C22.6889 20.7811 23.505 20.9709 24.2718 21.2933C24.8832 21.5623 25.5267 21.7514 26.1865 21.856C26.9145 21.7034 27.6259 21.4801 28.3105 21.1893C29.1207 20.8729 29.9786 20.6957 30.8478 20.6653C30.9638 20.6653 31.0785 20.6653 31.1891 20.6786C33.0952 20.7339 34.868 21.6695 35.9891 23.212C34.2064 24.1651 33.1118 26.0403 33.1585 28.0613C33.1408 29.5941 33.78 31.0611 34.9145 32.092C35.425 32.5784 36.0195 32.9682 36.6691 33.2426C36.5358 33.6426 36.3825 34.0293 36.2198 34.4186C35.8501 35.279 35.3939 36.0997 34.8585 36.868C34.353 37.6375 33.7645 38.3493 33.1038 38.9906C32.5007 39.5891 31.6966 39.9422 30.8478 39.9813C30.1283 39.9494 29.4215 39.7806 28.7651 39.484C28.0574 39.1756 27.2969 39.0068 26.5251 38.9866C25.7317 39.0022 24.9486 39.1701 24.2185 39.4813C23.5879 39.7658 22.9141 39.9429 22.2251 40.0053L22.1251 40.0079ZM26.3251 20.6653C26.2251 20.6653 26.1251 20.6653 26.0251 20.6533C26.0041 20.4946 25.993 20.3347 25.9918 20.1746C26.0354 18.8428 26.5559 17.5709 27.4585 16.5906C27.9629 16.0274 28.5743 15.5701 29.2571 15.2453C29.8943 14.9173 30.5906 14.7201 31.3051 14.6653C31.3251 14.8399 31.3251 15.0106 31.3251 15.1733C31.3063 16.4841 30.8137 17.7439 29.9385 18.7199C29.0805 19.8703 27.7578 20.5824 26.3251 20.6653Z" fill="white"/>
<path d="M56.4148 24C59.517 24 61.3118 22.076 61.3118 18.8942C61.3118 15.7273 59.517 13.8182 56.5192 13.8182H53.1186V24H56.4148ZM54.6548 22.6577V15.1605H56.4247C58.652 15.1605 59.8004 16.4929 59.8004 18.8942C59.8004 21.3054 58.652 22.6577 56.3303 22.6577H54.6548ZM66.3194 24.1541C68.4721 24.1541 69.8791 22.5781 69.8791 20.2166C69.8791 17.8402 68.4721 16.2642 66.3194 16.2642C64.1667 16.2642 62.7598 17.8402 62.7598 20.2166C62.7598 22.5781 64.1667 24.1541 66.3194 24.1541ZM66.3244 22.9062C64.9174 22.9062 64.2612 21.6783 64.2612 20.2116C64.2612 18.75 64.9174 17.5071 66.3244 17.5071C67.7214 17.5071 68.3777 18.75 68.3777 20.2116C68.3777 21.6783 67.7214 22.9062 66.3244 22.9062ZM72.9615 24H74.4728L76.024 18.4865H76.1383L77.6895 24H79.2058L81.448 16.3636H79.9118L78.4252 21.9467H78.3507L76.8592 16.3636H75.323L73.8216 21.9716H73.747L72.2505 16.3636H70.7143L72.9615 24ZM84.3452 19.4659C84.3452 18.2479 85.0909 17.5518 86.125 17.5518C87.1342 17.5518 87.7457 18.2131 87.7457 19.3217V24H89.2322V19.1428C89.2322 17.2536 88.1932 16.2642 86.6321 16.2642C85.4837 16.2642 84.733 16.7962 84.38 17.6065H84.2855V16.3636H82.8587V24H84.3452V19.4659ZM92.7124 13.8182H91.2259V24H92.7124V13.8182ZM97.9288 24.1541C100.081 24.1541 101.488 22.5781 101.488 20.2166C101.488 17.8402 100.081 16.2642 97.9288 16.2642C95.7761 16.2642 94.3691 17.8402 94.3691 20.2166C94.3691 22.5781 95.7761 24.1541 97.9288 24.1541ZM97.9338 22.9062C96.5268 22.9062 95.8706 21.6783 95.8706 20.2116C95.8706 18.75 96.5268 17.5071 97.9338 17.5071C99.3308 17.5071 99.987 18.75 99.987 20.2116C99.987 21.6783 99.3308 22.9062 97.9338 22.9062ZM105.37 24.169C106.633 24.169 107.344 23.5277 107.627 22.956H107.687V24H109.138V18.929C109.138 16.7067 107.388 16.2642 106.175 16.2642C104.793 16.2642 103.521 16.821 103.023 18.2131L104.42 18.5312C104.639 17.9893 105.196 17.4673 106.195 17.4673C107.155 17.4673 107.647 17.9695 107.647 18.8345V18.8693C107.647 19.4112 107.09 19.4013 105.718 19.5604C104.271 19.7294 102.79 20.1072 102.79 21.8423C102.79 23.3438 103.918 24.169 105.37 24.169ZM105.693 22.9759C104.853 22.9759 104.246 22.598 104.246 21.8622C104.246 21.0668 104.952 20.7834 105.812 20.669C106.295 20.6044 107.438 20.4751 107.652 20.2614V21.2457C107.652 22.1506 106.931 22.9759 105.693 22.9759ZM113.977 24.1491C115.369 24.1491 115.916 23.299 116.184 22.8118H116.309V24H117.76V13.8182H116.274V17.6016H116.184C115.916 17.1293 115.409 16.2642 113.987 16.2642C112.143 16.2642 110.785 17.7209 110.785 20.1967C110.785 22.6676 112.123 24.1491 113.977 24.1491ZM114.305 22.8814C112.978 22.8814 112.287 21.7131 112.287 20.1818C112.287 18.6655 112.963 17.527 114.305 17.527C115.603 17.527 116.299 18.5859 116.299 20.1818C116.299 21.7876 115.588 22.8814 114.305 22.8814ZM127.221 16.3636H125.576V15.6776C125.576 15.0014 125.854 14.6335 126.58 14.6335C126.888 14.6335 127.107 14.7031 127.246 14.7479L127.594 13.5447C127.385 13.4652 126.953 13.3409 126.351 13.3409C125.143 13.3409 124.084 14.0469 124.084 15.4787V16.3636H122.906V17.5568H124.084V24H125.576V17.5568H127.221V16.3636ZM128.755 24H130.242V19.3366C130.242 18.3374 131.012 17.6165 132.066 17.6165C132.374 17.6165 132.722 17.6712 132.842 17.706V16.2841C132.693 16.2642 132.399 16.2493 132.21 16.2493C131.316 16.2493 130.55 16.7564 130.271 17.5767H130.192V16.3636H128.755V24ZM137.071 24.1541C139.224 24.1541 140.631 22.5781 140.631 20.2166C140.631 17.8402 139.224 16.2642 137.071 16.2642C134.919 16.2642 133.512 17.8402 133.512 20.2166C133.512 22.5781 134.919 24.1541 137.071 24.1541ZM137.076 22.9062C135.669 22.9062 135.013 21.6783 135.013 20.2116C135.013 18.75 135.669 17.5071 137.076 17.5071C138.473 17.5071 139.13 18.75 139.13 20.2116C139.13 21.6783 138.473 22.9062 137.076 22.9062ZM142.29 24H143.777V19.2919C143.777 18.2628 144.498 17.5469 145.343 17.5469C146.168 17.5469 146.74 18.0938 146.74 18.924V24H148.221V19.1328C148.221 18.2131 148.783 17.5469 149.753 17.5469C150.538 17.5469 151.184 17.9844 151.184 19.0185V24H152.671V18.8793C152.671 17.1342 151.697 16.2642 150.314 16.2642C149.216 16.2642 148.39 16.7912 148.023 17.6065H147.943C147.61 16.7713 146.909 16.2642 145.89 16.2642C144.881 16.2642 144.13 16.7663 143.812 17.6065H143.717V16.3636H142.29V24ZM53.9787 42L54.9134 39.3054H58.8906L59.8203 42H61.451L57.7869 31.8182H56.0121L52.348 42H53.9787ZM55.3608 38.0128L56.8622 33.6676H56.9418L58.4432 38.0128H55.3608ZM62.802 44.8636H64.2885V40.8118H64.378C64.6465 41.299 65.1934 42.1491 66.5854 42.1491C68.4348 42.1491 69.7772 40.6676 69.7772 38.1967C69.7772 35.7209 68.415 34.2642 66.5705 34.2642C65.1536 34.2642 64.6415 35.1293 64.378 35.6016H64.2537V34.3636H62.802V44.8636ZM64.2587 38.1818C64.2587 36.5859 64.9547 35.527 66.2523 35.527C67.5996 35.527 68.2757 36.6655 68.2757 38.1818C68.2757 39.7131 67.5797 40.8814 66.2523 40.8814C64.9746 40.8814 64.2587 39.7876 64.2587 38.1818ZM71.4426 44.8636H72.9292V40.8118H73.0186C73.2871 41.299 73.834 42.1491 75.226 42.1491C77.0755 42.1491 78.4178 40.6676 78.4178 38.1967C78.4178 35.7209 77.0556 34.2642 75.2111 34.2642C73.7942 34.2642 73.2821 35.1293 73.0186 35.6016H72.8944V34.3636H71.4426V44.8636ZM72.8993 38.1818C72.8993 36.5859 73.5953 35.527 74.8929 35.527C76.2402 35.527 76.9164 36.6655 76.9164 38.1818C76.9164 39.7131 76.2203 40.8814 74.8929 40.8814C73.6152 40.8814 72.8993 39.7876 72.8993 38.1818ZM85.7559 34.4929H87.2374C87.1926 32.8622 85.7509 31.679 83.6827 31.679C81.6394 31.679 80.0733 32.8473 80.0733 34.6023C80.0733 36.0192 81.0875 36.8494 82.7232 37.2919L83.9263 37.62C85.0151 37.9084 85.8553 38.2663 85.8553 39.1712C85.8553 40.1655 84.9057 40.8217 83.5982 40.8217C82.415 40.8217 81.4306 40.2947 81.3411 39.1861H79.7999C79.8993 41.0305 81.3262 42.169 83.6081 42.169C85.9995 42.169 87.3766 40.9112 87.3766 39.1861C87.3766 37.3516 85.7409 36.6406 84.4483 36.3224L83.454 36.0639C82.6586 35.8601 81.5996 35.4872 81.6046 34.5128C81.6046 33.6477 82.3951 33.0064 83.6479 33.0064C84.8162 33.0064 85.6465 33.5533 85.7559 34.4929ZM92.6577 34.3636H91.0916V32.5341H89.6051V34.3636H88.4865V35.5568H89.6051V40.0661C89.6001 41.4531 90.6591 42.1243 91.8324 42.0994C92.3047 42.0945 92.6229 42.005 92.7969 41.9403L92.5284 40.7124C92.429 40.7322 92.245 40.777 92.0064 40.777C91.5241 40.777 91.0916 40.6179 91.0916 39.7578V35.5568H92.6577V34.3636ZM97.4366 42.1541C99.5893 42.1541 100.996 40.5781 100.996 38.2166C100.996 35.8402 99.5893 34.2642 97.4366 34.2642C95.2839 34.2642 93.877 35.8402 93.877 38.2166C93.877 40.5781 95.2839 42.1541 97.4366 42.1541ZM97.4416 40.9062C96.0346 40.9062 95.3784 39.6783 95.3784 38.2116C95.3784 36.75 96.0346 35.5071 97.4416 35.5071C98.8386 35.5071 99.4949 36.75 99.4949 38.2116C99.4949 39.6783 98.8386 40.9062 97.4416 40.9062ZM102.656 42H104.142V37.3366C104.142 36.3374 104.913 35.6165 105.967 35.6165C106.275 35.6165 106.623 35.6712 106.742 35.706V34.2841C106.593 34.2642 106.3 34.2493 106.111 34.2493C105.216 34.2493 104.45 34.7564 104.172 35.5767H104.092V34.3636H102.656V42ZM111.046 42.1541C112.712 42.1541 113.89 41.3338 114.228 40.0909L112.821 39.8374C112.553 40.5582 111.906 40.9261 111.061 40.9261C109.789 40.9261 108.933 40.1009 108.894 38.6293H114.323V38.1023C114.323 35.343 112.672 34.2642 110.942 34.2642C108.814 34.2642 107.412 35.8849 107.412 38.2315C107.412 40.603 108.794 42.1541 111.046 42.1541ZM108.899 37.5156C108.958 36.4318 109.744 35.4922 110.952 35.4922C112.105 35.4922 112.861 36.3473 112.866 37.5156H108.899Z" fill="white"/>
</svg>
