<svg width="36" height="40" viewBox="0 0 36 40" fill="none" xmlns="http://www.w3.org/2000/svg">
<circle cx="18" cy="12" r="9" fill="white"/>
<ellipse opacity="0.1" cx="18" cy="38" rx="12" ry="2" fill="#1D2127"/>
<path d="M18 6.21944C17.1784 6.21944 16.5124 6.89311 16.5124 7.72414C16.5124 8.55516 17.1784 9.22884 18 9.22884C18.8216 9.22884 19.4876 8.55516 19.4876 7.72414C19.4876 6.89311 18.8216 6.21944 18 6.21944Z" fill="#103D7C"/>
<path fill-rule="evenodd" clip-rule="evenodd" d="M12.5812 25.351C7.13798 17.5966 6 15.9754 6 12C6 5.37256 11.3726 0 18 0C24.6274 0 30 5.37256 30 12C30 15.9754 28.862 17.5966 23.4188 25.351C22.2372 27.0342 20.8528 29.0064 19.2332 31.3544C18.6373 32.2152 17.3626 32.2152 16.7668 31.3544C15.1472 29.0065 13.7627 27.0342 12.5812 25.351ZM14.7273 7.72414C14.7273 5.89588 16.1925 4.41379 18 4.41379C19.8075 4.41379 21.2727 5.89588 21.2727 7.72414C21.2727 9.55239 19.8075 11.0345 18 11.0345C16.1925 11.0345 14.7273 9.55239 14.7273 7.72414ZM18 13.8802C15.9388 13.8802 14.2679 15.5703 14.2679 17.6552H12.5455C12.5455 14.6081 14.9875 12.1379 18 12.1379C21.0125 12.1379 23.4545 14.6081 23.4545 17.6552H21.7321C21.7321 15.5703 20.0612 13.8802 18 13.8802Z" fill="#103D7C"/>
</svg>
