<svg width="36" height="39" viewBox="0 0 36 39" fill="none" xmlns="http://www.w3.org/2000/svg">
<circle cx="18" cy="17" r="8" fill="white"/>
<ellipse cx="18" cy="38" rx="6" ry="1" fill="#D8DFE3"/>
<path d="M18 11.6364C17.2469 11.6364 16.6364 12.2469 16.6364 13C16.6364 13.7531 17.2469 14.3636 18 14.3636C18.7531 14.3636 19.3636 13.7531 19.3636 13C19.3636 12.2469 18.7531 11.6364 18 11.6364Z" fill="#22CC14"/>
<path fill-rule="evenodd" clip-rule="evenodd" d="M13.0328 28.9744C8.04315 21.9469 7 20.4777 7 16.875C7 10.8689 11.9248 6 18 6C24.0752 6 29 10.8689 29 16.875C29 20.4777 27.9569 21.9469 22.9672 28.9744C21.8841 30.4998 20.6151 32.2871 19.1305 34.4149C18.5842 35.1951 17.4157 35.195 16.8695 34.4149C15.385 32.2872 14.1158 30.4997 13.0328 28.9744ZM15 13C15 11.3431 16.3431 10 18 10C19.6569 10 21 11.3431 21 13C21 14.6569 19.6569 16 18 16C16.3431 16 15 14.6569 15 13ZM18 18.5789C16.1106 18.5789 14.5789 20.1106 14.5789 22H13C13 19.2386 15.2386 17 18 17C20.7614 17 23 19.2386 23 22H21.4211C21.4211 20.1106 19.8894 18.5789 18 18.5789Z" fill="#22CC14"/>
</svg>
