<svg width="15" height="15" viewBox="0 0 15 15" fill="none" xmlns="http://www.w3.org/2000/svg">
<rect width="15" height="15" rx="7.5" fill="#EDEDED"/>
<rect width="15" height="2" fill="#BE3535"/>
<rect y="4" width="15" height="2" fill="#BE3535"/>
<rect y="8" width="15" height="2" fill="#BE3535"/>
<rect y="12" width="15" height="2" fill="#BE3535"/>
<rect width="9" height="10" fill="#123A75"/>
<path d="M7 7L7.22451 7.69098H7.95106L7.36327 8.11803L7.58779 8.80902L7 8.38197L6.41221 8.80902L6.63673 8.11803L6.04894 7.69098H6.77549L7 7Z" fill="white"/>
<path d="M3 7L3.22451 7.69098H3.95106L3.36327 8.11803L3.58779 8.80902L3 8.38197L2.41221 8.80902L2.63673 8.11803L2.04894 7.69098H2.77549L3 7Z" fill="white"/>
<path d="M5 5L5.22451 5.69098H5.95106L5.36327 6.11803L5.58779 6.80902L5 6.38197L4.41221 6.80902L4.63673 6.11803L4.04894 5.69098H4.77549L5 5Z" fill="white"/>
<path d="M5 1L5.22451 1.69098H5.95106L5.36327 2.11803L5.58779 2.80902L5 2.38197L4.41221 2.80902L4.63673 2.11803L4.04894 1.69098H4.77549L5 1Z" fill="white"/>
<path d="M1 5L1.22451 5.69098H1.95106L1.36327 6.11803L1.58779 6.80902L1 6.38197L0.412215 6.80902L0.636729 6.11803L0.0489435 5.69098H0.775486L1 5Z" fill="white"/>
<path d="M1 1L1.22451 1.69098H1.95106L1.36327 2.11803L1.58779 2.80902L1 2.38197L0.412215 2.80902L0.636729 2.11803L0.0489435 1.69098H0.775486L1 1Z" fill="white"/>
<path d="M7 3L7.22451 3.69098H7.95106L7.36327 4.11803L7.58779 4.80902L7 4.38197L6.41221 4.80902L6.63673 4.11803L6.04894 3.69098H6.77549L7 3Z" fill="white"/>
<path d="M3 3L3.22451 3.69098H3.95106L3.36327 4.11803L3.58779 4.80902L3 4.38197L2.41221 4.80902L2.63673 4.11803L2.04894 3.69098H2.77549L3 3Z" fill="white"/>
</svg>
