<svg width="17" height="18" viewBox="0 0 17 18" fill="none" xmlns="http://www.w3.org/2000/svg">
<g clip-path="url(#clip0)">
<path d="M8.5 17.5C13.1944 17.5 17 13.6944 17 9C17 4.30558 13.1944 0.5 8.5 0.5C3.80558 0.5 0 4.30558 0 9C0 13.6944 3.80558 17.5 8.5 17.5Z" fill="#F0F0F0"/>
<path d="M16.9995 9.0006C16.9995 5.3459 14.6929 2.23029 11.4561 1.0293V16.9719C14.6929 15.7709 16.9995 12.6553 16.9995 9.0006Z" fill="#D80027"/>
<path d="M0 9.0006C0 12.6553 2.30672 15.7709 5.54349 16.9719V1.0293C2.30672 2.23029 0 5.3459 0 9.0006Z" fill="#0052B4"/>
</g>
<defs>
<clipPath id="clip0">
<rect width="17" height="17" fill="white" transform="translate(0 0.5)"/>
</clipPath>
</defs>
</svg>
