<svg width="17" height="18" viewBox="0 0 17 18" fill="none" xmlns="http://www.w3.org/2000/svg">
<g clip-path="url(#clip0)">
<path d="M8.5 17.5C13.1944 17.5 17 13.6944 17 9C17 4.30558 13.1944 0.5 8.5 0.5C3.80558 0.5 0 4.30558 0 9C0 13.6944 3.80558 17.5 8.5 17.5Z" fill="#F0F0F0"/>
<path d="M8.50032 0.5C5.13041 0.5 2.21863 2.46114 0.84375 5.30436H16.1569C14.782 2.46114 11.8702 0.5 8.50032 0.5Z" fill="#FF9811"/>
<path d="M8.50032 17.4997C11.8702 17.4997 14.782 15.5385 16.1569 12.6953H0.84375C2.21863 15.5385 5.13041 17.4997 8.50032 17.4997Z" fill="#6DA544"/>
<path d="M8.50045 11.957C10.1333 11.957 11.457 10.6333 11.457 9.00045C11.457 7.36762 10.1333 6.04395 8.50045 6.04395C6.86762 6.04395 5.54395 7.36762 5.54395 9.00045C5.54395 10.6333 6.86762 11.957 8.50045 11.957Z" fill="#0052B4"/>
<path d="M8.50016 10.848C9.52069 10.848 10.348 10.0207 10.348 9.00016C10.348 7.97964 9.52069 7.15234 8.50016 7.15234C7.47964 7.15234 6.65234 7.97964 6.65234 9.00016C6.65234 10.0207 7.47964 10.848 8.50016 10.848Z" fill="#F0F0F0"/>
<path d="M8.50008 6.71973L9.07015 8.01259L10.4748 7.85982L9.64018 8.99992L10.4748 10.14L9.07015 9.98725L8.50008 11.2801L7.93002 9.98725L6.52539 10.14L7.35999 8.99992L6.52539 7.85982L7.93002 8.01259L8.50008 6.71973Z" fill="#0052B4"/>
</g>
<defs>
<clipPath id="clip0">
<rect width="17" height="17" fill="white" transform="translate(0 0.5)"/>
</clipPath>
</defs>
</svg>
