<svg width="40" height="30" viewBox="0 0 40 30" fill="none" xmlns="http://www.w3.org/2000/svg">
<path fill-rule="evenodd" clip-rule="evenodd" d="M22.8028 15C22.8028 19.6024 19.1567 23.3333 14.6589 23.3333C10.1612 23.3333 6.51509 19.6024 6.51509 15C6.51509 10.3976 10.1612 6.66667 14.6589 6.66667C19.1567 6.66667 22.8028 10.3976 22.8028 15ZM19.5453 15C19.5453 17.7614 17.3576 20 14.6589 20C11.9603 20 9.77263 17.7614 9.77263 15C9.77263 12.2386 11.9603 10 14.6589 10C17.3576 10 19.5453 12.2386 19.5453 15Z" fill="#8D96A2"/>
<path fill-rule="evenodd" clip-rule="evenodd" d="M0 15C0 23.2843 6.56304 30 14.6589 30H31.4489L34.7065 26.6667H23.8735C24.5941 26.0699 25.2584 25.4047 25.8568 24.6806H36.6474L40 21.25H27.9887C28.8421 19.3474 29.3179 17.2305 29.3179 15C29.3179 6.71573 22.7549 0 14.6589 0C6.56304 0 0 6.71573 0 15ZM14.6589 26.6667C20.9558 26.6667 26.0604 21.4433 26.0604 15C26.0604 8.55668 20.9558 3.33333 14.6589 3.33333C8.36213 3.33333 3.25754 8.55668 3.25754 15C3.25754 21.4433 8.36213 26.6667 14.6589 26.6667Z" fill="#8D96A2"/>
</svg>
