<svg width="24" height="32" viewBox="0 0 24 32" fill="none" xmlns="http://www.w3.org/2000/svg">
<path d="M9.27273 7.72414C9.27273 7.41943 9.51694 7.17241 9.81818 7.17241H14.1818C14.4831 7.17241 14.7273 7.41943 14.7273 7.72414V8.82759H9.27273V7.72414Z" fill="#103D7C"/>
<path d="M7.63636 10.4828C7.33512 10.4828 7.09091 10.7298 7.09091 11.0345V15.4483C7.09091 15.753 7.33512 16 7.63636 16H16.3636C16.6649 16 16.9091 15.753 16.9091 15.4483V11.0345C16.9091 10.7298 16.6649 10.4828 16.3636 10.4828H7.63636Z" fill="#103D7C"/>
<path fill-rule="evenodd" clip-rule="evenodd" d="M0 12C0 15.9754 1.13798 17.5966 6.58123 25.351C7.76265 27.0341 9.14736 29.0067 10.7668 31.3544C11.3626 32.2152 12.6373 32.2152 13.2332 31.3544C14.8528 29.0064 16.2372 27.0342 17.4188 25.351C22.862 17.5966 24 15.9754 24 12C24 5.37256 18.6274 0 12 0C5.37256 0 0 5.37256 0 12ZM7.63636 8.82759V7.72414C7.63636 6.5053 8.6132 5.51724 9.81818 5.51724H14.1818C15.3868 5.51724 16.3636 6.5053 16.3636 7.72414V8.82759C17.5686 8.82759 18.5455 9.81565 18.5455 11.0345V15.4483C18.5455 16.6671 17.5686 17.6552 16.3636 17.6552H7.63636C6.43138 17.6552 5.45455 16.6671 5.45455 15.4483V11.0345C5.45455 9.81565 6.43138 8.82759 7.63636 8.82759Z" fill="#103D7C"/>
</svg>
