<svg width="170" height="56" viewBox="0 0 170 56" fill="none" xmlns="http://www.w3.org/2000/svg">
<rect width="170" height="56" rx="6" fill="#1D2127"/>
<path d="M17.2001 39.9999C16.9727 40.0035 16.7466 39.9646 16.5335 39.8852L27.2721 29.1426L30.8268 32.7012L18.4868 39.6346C18.0959 39.8637 17.6531 39.9894 17.2001 39.9999ZM15.6481 39.1132C15.4298 38.7179 15.3212 38.2713 15.3335 37.8199V18.2132C15.3317 17.9156 15.3766 17.6195 15.4668 17.3359L26.4441 28.3159L15.6441 39.1159L15.6481 39.1132ZM31.8868 32.1026L28.0988 28.3172L32.2761 24.1412L35.9868 26.2252C36.6991 26.544 37.1757 27.2317 37.2241 28.0106C37.1759 28.7902 36.6987 29.4786 35.9855 29.7972L31.8868 32.1026ZM27.2721 27.4852L16.1521 16.3666C16.4574 16.1408 16.8271 16.0188 17.2068 16.0186C17.6552 16.0345 18.0927 16.1614 18.4801 16.3879L31.2148 23.5452L27.2735 27.4852H27.2721Z" fill="white"/>
<path d="M56.4148 24C59.517 24 61.3118 22.076 61.3118 18.8942C61.3118 15.7273 59.517 13.8182 56.5192 13.8182H53.1186V24H56.4148ZM54.6548 22.6577V15.1605H56.4247C58.652 15.1605 59.8004 16.4929 59.8004 18.8942C59.8004 21.3054 58.652 22.6577 56.3303 22.6577H54.6548ZM66.3194 24.1541C68.4721 24.1541 69.8791 22.5781 69.8791 20.2166C69.8791 17.8402 68.4721 16.2642 66.3194 16.2642C64.1667 16.2642 62.7598 17.8402 62.7598 20.2166C62.7598 22.5781 64.1667 24.1541 66.3194 24.1541ZM66.3244 22.9062C64.9174 22.9062 64.2612 21.6783 64.2612 20.2116C64.2612 18.75 64.9174 17.5071 66.3244 17.5071C67.7214 17.5071 68.3777 18.75 68.3777 20.2116C68.3777 21.6783 67.7214 22.9062 66.3244 22.9062ZM72.9615 24H74.4728L76.024 18.4865H76.1383L77.6895 24H79.2058L81.448 16.3636H79.9118L78.4252 21.9467H78.3507L76.8592 16.3636H75.323L73.8216 21.9716H73.747L72.2505 16.3636H70.7143L72.9615 24ZM84.3452 19.4659C84.3452 18.2479 85.0909 17.5518 86.125 17.5518C87.1342 17.5518 87.7457 18.2131 87.7457 19.3217V24H89.2322V19.1428C89.2322 17.2536 88.1932 16.2642 86.6321 16.2642C85.4837 16.2642 84.733 16.7962 84.38 17.6065H84.2855V16.3636H82.8587V24H84.3452V19.4659ZM92.7124 13.8182H91.2259V24H92.7124V13.8182ZM97.9288 24.1541C100.081 24.1541 101.488 22.5781 101.488 20.2166C101.488 17.8402 100.081 16.2642 97.9288 16.2642C95.7761 16.2642 94.3691 17.8402 94.3691 20.2166C94.3691 22.5781 95.7761 24.1541 97.9288 24.1541ZM97.9338 22.9062C96.5268 22.9062 95.8706 21.6783 95.8706 20.2116C95.8706 18.75 96.5268 17.5071 97.9338 17.5071C99.3308 17.5071 99.987 18.75 99.987 20.2116C99.987 21.6783 99.3308 22.9062 97.9338 22.9062ZM105.37 24.169C106.633 24.169 107.344 23.5277 107.627 22.956H107.687V24H109.138V18.929C109.138 16.7067 107.388 16.2642 106.175 16.2642C104.793 16.2642 103.521 16.821 103.023 18.2131L104.42 18.5312C104.639 17.9893 105.196 17.4673 106.195 17.4673C107.155 17.4673 107.647 17.9695 107.647 18.8345V18.8693C107.647 19.4112 107.09 19.4013 105.718 19.5604C104.271 19.7294 102.79 20.1072 102.79 21.8423C102.79 23.3438 103.918 24.169 105.37 24.169ZM105.693 22.9759C104.853 22.9759 104.246 22.598 104.246 21.8622C104.246 21.0668 104.952 20.7834 105.812 20.669C106.295 20.6044 107.438 20.4751 107.652 20.2614V21.2457C107.652 22.1506 106.931 22.9759 105.693 22.9759ZM113.977 24.1491C115.369 24.1491 115.916 23.299 116.184 22.8118H116.309V24H117.76V13.8182H116.274V17.6016H116.184C115.916 17.1293 115.409 16.2642 113.987 16.2642C112.143 16.2642 110.785 17.7209 110.785 20.1967C110.785 22.6676 112.123 24.1491 113.977 24.1491ZM114.305 22.8814C112.978 22.8814 112.287 21.7131 112.287 20.1818C112.287 18.6655 112.963 17.527 114.305 17.527C115.603 17.527 116.299 18.5859 116.299 20.1818C116.299 21.7876 115.588 22.8814 114.305 22.8814ZM127.221 16.3636H125.576V15.6776C125.576 15.0014 125.854 14.6335 126.58 14.6335C126.888 14.6335 127.107 14.7031 127.246 14.7479L127.594 13.5447C127.385 13.4652 126.953 13.3409 126.351 13.3409C125.143 13.3409 124.084 14.0469 124.084 15.4787V16.3636H122.906V17.5568H124.084V24H125.576V17.5568H127.221V16.3636ZM128.755 24H130.242V19.3366C130.242 18.3374 131.012 17.6165 132.066 17.6165C132.374 17.6165 132.722 17.6712 132.842 17.706V16.2841C132.693 16.2642 132.399 16.2493 132.21 16.2493C131.316 16.2493 130.55 16.7564 130.271 17.5767H130.192V16.3636H128.755V24ZM137.071 24.1541C139.224 24.1541 140.631 22.5781 140.631 20.2166C140.631 17.8402 139.224 16.2642 137.071 16.2642C134.919 16.2642 133.512 17.8402 133.512 20.2166C133.512 22.5781 134.919 24.1541 137.071 24.1541ZM137.076 22.9062C135.669 22.9062 135.013 21.6783 135.013 20.2116C135.013 18.75 135.669 17.5071 137.076 17.5071C138.473 17.5071 139.13 18.75 139.13 20.2116C139.13 21.6783 138.473 22.9062 137.076 22.9062ZM142.29 24H143.777V19.2919C143.777 18.2628 144.498 17.5469 145.343 17.5469C146.168 17.5469 146.74 18.0938 146.74 18.924V24H148.221V19.1328C148.221 18.2131 148.783 17.5469 149.753 17.5469C150.538 17.5469 151.184 17.9844 151.184 19.0185V24H152.671V18.8793C152.671 17.1342 151.697 16.2642 150.314 16.2642C149.216 16.2642 148.39 16.7912 148.023 17.6065H147.943C147.61 16.7713 146.909 16.2642 145.89 16.2642C144.881 16.2642 144.13 16.7663 143.812 17.6065H143.717V16.3636H142.29V24ZM60.0092 35.0348H61.5852C61.2422 33.0511 59.5469 31.679 57.3494 31.679C54.7145 31.679 52.7905 33.6626 52.7905 36.9141C52.7905 40.1357 54.6598 42.1392 57.419 42.1392C59.8899 42.1392 61.6548 40.5185 61.6548 37.9482V36.7898H57.6527V38.0575H60.1683C60.1335 39.6982 59.0497 40.7372 57.419 40.7372C55.6243 40.7372 54.3168 39.38 54.3168 36.9041C54.3168 34.4382 55.6342 33.081 57.3594 33.081C58.7116 33.081 59.6264 33.8267 60.0092 35.0348ZM66.7022 42.1541C68.8549 42.1541 70.2619 40.5781 70.2619 38.2166C70.2619 35.8402 68.8549 34.2642 66.7022 34.2642C64.5495 34.2642 63.1426 35.8402 63.1426 38.2166C63.1426 40.5781 64.5495 42.1541 66.7022 42.1541ZM66.7072 40.9062C65.3002 40.9062 64.644 39.6783 64.644 38.2116C64.644 36.75 65.3002 35.5071 66.7072 35.5071C68.1042 35.5071 68.7605 36.75 68.7605 38.2116C68.7605 39.6783 68.1042 40.9062 66.7072 40.9062ZM75.1378 42.1541C77.2905 42.1541 78.6974 40.5781 78.6974 38.2166C78.6974 35.8402 77.2905 34.2642 75.1378 34.2642C72.9851 34.2642 71.5781 35.8402 71.5781 38.2166C71.5781 40.5781 72.9851 42.1541 75.1378 42.1541ZM75.1428 40.9062C73.7358 40.9062 73.0795 39.6783 73.0795 38.2116C73.0795 36.75 73.7358 35.5071 75.1428 35.5071C76.5398 35.5071 77.196 36.75 77.196 38.2116C77.196 39.6783 76.5398 40.9062 75.1428 40.9062ZM83.5584 45.0227C85.5023 45.0227 87.0037 44.1328 87.0037 42.169V34.3636H85.5471V35.6016H85.4377C85.1742 35.1293 84.6472 34.2642 83.2253 34.2642C81.3809 34.2642 80.0236 35.7209 80.0236 38.152C80.0236 40.5881 81.4107 41.8857 83.2154 41.8857C84.6174 41.8857 85.1593 41.0952 85.4277 40.608H85.5222V42.1094C85.5222 43.3075 84.7019 43.8246 83.5733 43.8246C82.3354 43.8246 81.8532 43.2031 81.5897 42.7656L80.312 43.2926C80.7147 44.2273 81.7338 45.0227 83.5584 45.0227ZM83.5435 40.6527C82.2161 40.6527 81.525 39.6335 81.525 38.1321C81.525 36.6655 82.2012 35.527 83.5435 35.527C84.8411 35.527 85.5371 36.5859 85.5371 38.1321C85.5371 39.7081 84.8262 40.6527 83.5435 40.6527ZM90.4838 31.8182H88.9973V42H90.4838V31.8182ZM95.7749 42.1541C97.4403 42.1541 98.6186 41.3338 98.9567 40.0909L97.5497 39.8374C97.2812 40.5582 96.6349 40.9261 95.7898 40.9261C94.517 40.9261 93.6619 40.1009 93.6222 38.6293H99.0511V38.1023C99.0511 35.343 97.4006 34.2642 95.6705 34.2642C93.5426 34.2642 92.1406 35.8849 92.1406 38.2315C92.1406 40.603 93.5227 42.1541 95.7749 42.1541ZM93.6271 37.5156C93.6868 36.4318 94.4723 35.4922 95.6804 35.4922C96.8338 35.4922 97.5895 36.3473 97.5945 37.5156H93.6271ZM104.525 42H106.061V38.4205H108.149C110.511 38.4205 111.679 36.9936 111.679 35.1143C111.679 33.2401 110.521 31.8182 108.154 31.8182H104.525V42ZM106.061 37.1179V33.1357H107.99C109.511 33.1357 110.133 33.9609 110.133 35.1143C110.133 36.2678 109.511 37.1179 108.01 37.1179H106.061ZM114.847 31.8182H113.361V42H114.847V31.8182ZM119.069 42.169C120.332 42.169 121.043 41.5277 121.326 40.956H121.386V42H122.838V36.929C122.838 34.7067 121.088 34.2642 119.875 34.2642C118.493 34.2642 117.22 34.821 116.723 36.2131L118.12 36.5312C118.338 35.9893 118.895 35.4673 119.895 35.4673C120.854 35.4673 121.346 35.9695 121.346 36.8345V36.8693C121.346 37.4112 120.789 37.4013 119.417 37.5604C117.971 37.7294 116.489 38.1072 116.489 39.8423C116.489 41.3438 117.618 42.169 119.069 42.169ZM119.392 40.9759C118.552 40.9759 117.946 40.598 117.946 39.8622C117.946 39.0668 118.652 38.7834 119.512 38.669C119.994 38.6044 121.137 38.4751 121.351 38.2614V39.2457C121.351 40.1506 120.63 40.9759 119.392 40.9759ZM125.484 44.8636C126.712 44.8636 127.487 44.2223 127.93 43.0192L131.087 34.3786L129.481 34.3636L127.547 40.2898H127.468L125.534 34.3636H123.943L126.737 42.0994L126.553 42.6065C126.175 43.6207 125.643 43.7053 124.828 43.4815L124.47 44.6996C124.649 44.7791 125.036 44.8636 125.484 44.8636Z" fill="white"/>
</svg>
