<svg width="17" height="18" viewBox="0 0 17 18" fill="none" xmlns="http://www.w3.org/2000/svg">
<g clip-path="url(#clip0)">
<path d="M0 9.0006C0 12.6553 2.30669 15.7709 5.54343 16.9719L6.2826 9.00057L5.54343 1.0293C2.30669 2.23032 0 5.3459 0 9.0006Z" fill="#6DA544"/>
<path d="M17.0005 9C17.0005 4.30561 13.1949 0.5 8.50052 0.5C7.4608 0.5 6.4648 0.687033 5.54395 1.02869V16.9713C6.4648 17.313 7.4608 17.5 8.50052 17.5C13.1949 17.5 17.0005 13.6944 17.0005 9Z" fill="#D80027"/>
<path d="M5.54342 11.957C7.17625 11.957 8.49993 10.6333 8.49993 9.00045C8.49993 7.36762 7.17625 6.04395 5.54342 6.04395C3.91059 6.04395 2.58691 7.36762 2.58691 9.00045C2.58691 10.6333 3.91059 11.957 5.54342 11.957Z" fill="#FFDA44"/>
<path d="M3.88086 7.52246V9.37028C3.88086 10.2887 4.62541 11.0333 5.5439 11.0333C6.4624 11.0333 7.20695 10.2888 7.20695 9.37028V7.52246H3.88086Z" fill="#D80027"/>
<path d="M5.54362 9.92432C5.23795 9.92432 4.98926 9.67563 4.98926 9.36996V8.63086H6.09794V9.36999C6.09794 9.67563 5.84925 9.92432 5.54362 9.92432Z" fill="#F0F0F0"/>
</g>
<defs>
<clipPath id="clip0">
<rect width="17" height="17" fill="white" transform="translate(0 0.5)"/>
</clipPath>
</defs>
</svg>
