<svg width="36" height="40" viewBox="0 0 36 40" fill="none" xmlns="http://www.w3.org/2000/svg">
<circle cx="18" cy="12" r="9" fill="white"/>
<path d="M15.2727 7.72414C15.2727 7.41943 15.5169 7.17241 15.8182 7.17241H20.1818C20.4831 7.17241 20.7273 7.41943 20.7273 7.72414V8.82759H15.2727V7.72414Z" fill="#103D7C"/>
<path d="M13.6364 10.4828C13.3351 10.4828 13.0909 10.7298 13.0909 11.0345V15.4483C13.0909 15.753 13.3351 16 13.6364 16H22.3636C22.6649 16 22.9091 15.753 22.9091 15.4483V11.0345C22.9091 10.7298 22.6649 10.4828 22.3636 10.4828H13.6364Z" fill="#103D7C"/>
<path fill-rule="evenodd" clip-rule="evenodd" d="M6 12C6 15.9754 7.13798 17.5966 12.5812 25.351C13.7627 27.0341 15.1474 29.0067 16.7668 31.3544C17.3626 32.2152 18.6373 32.2152 19.2332 31.3544C20.8528 29.0064 22.2372 27.0342 23.4188 25.351C28.862 17.5966 30 15.9754 30 12C30 5.37256 24.6274 0 18 0C11.3726 0 6 5.37256 6 12ZM13.6364 8.82759V7.72414C13.6364 6.5053 14.6132 5.51724 15.8182 5.51724H20.1818C21.3868 5.51724 22.3636 6.5053 22.3636 7.72414V8.82759C23.5686 8.82759 24.5455 9.81565 24.5455 11.0345V15.4483C24.5455 16.6671 23.5686 17.6552 22.3636 17.6552H13.6364C12.4314 17.6552 11.4545 16.6671 11.4545 15.4483V11.0345C11.4545 9.81565 12.4314 8.82759 13.6364 8.82759Z" fill="#103D7C"/>
<ellipse opacity="0.1" cx="18" cy="38" rx="12" ry="2" fill="#1D2127"/>
</svg>
