<svg width="36" height="39" viewBox="0 0 36 39" fill="none" xmlns="http://www.w3.org/2000/svg">
<ellipse cx="18" cy="38" rx="6" ry="1" fill="#D8DFE3"/>
<path d="M15.5 13C15.5 12.7239 15.7239 12.5 16 12.5H20C20.2761 12.5 20.5 12.7239 20.5 13V14H15.5V13Z" fill="#E8D20D"/>
<path d="M14 15.5C13.7239 15.5 13.5 15.7239 13.5 16V20C13.5 20.2761 13.7239 20.5 14 20.5H22C22.2761 20.5 22.5 20.2761 22.5 20V16C22.5 15.7239 22.2761 15.5 22 15.5H14Z" fill="#E8D20D"/>
<path fill-rule="evenodd" clip-rule="evenodd" d="M7 16.875C7 20.4777 8.04315 21.9469 13.0328 28.9744C14.1158 30.4996 15.3851 32.2874 16.8695 34.4149C17.4157 35.195 18.5842 35.1951 19.1305 34.4149C20.6151 32.2871 21.8841 30.4998 22.9672 28.9744C27.9569 21.9469 29 20.4777 29 16.875C29 10.8689 24.0752 6 18 6C11.9248 6 7 10.8689 7 16.875ZM14 14V13C14 11.8954 14.8954 11 16 11H20C21.1046 11 22 11.8954 22 13V14C23.1046 14 24 14.8954 24 16V20C24 21.1046 23.1046 22 22 22H14C12.8954 22 12 21.1046 12 20V16C12 14.8954 12.8954 14 14 14Z" fill="#E8D20D"/>
</svg>
