<svg width="17" height="18" viewBox="0 0 17 18" fill="none" xmlns="http://www.w3.org/2000/svg">
<g clip-path="url(#clip0)">
<path d="M0 9.00033C0 10.0401 0.187033 11.036 0.528693 11.9568L8.5 12.696L16.4713 11.9568C16.813 11.036 17 10.0401 17 9.00033C17 7.96061 16.813 6.96465 16.4713 6.04382L8.5 5.30469L0.528693 6.04382C0.187033 6.96465 0 7.96061 0 9.00033H0Z" fill="#FFDA44"/>
<path d="M16.4719 6.04349C15.2709 2.80672 12.1553 0.5 8.5006 0.5C4.8459 0.5 1.73029 2.80672 0.529297 6.04349H16.4719Z" fill="#D80027"/>
<path d="M0.529297 11.957C1.73029 15.1938 4.8459 17.5005 8.5006 17.5005C12.1553 17.5005 15.2709 15.1938 16.4719 11.957H0.529297Z" fill="#D80027"/>
</g>
<defs>
<clipPath id="clip0">
<rect width="17" height="17" fill="white" transform="translate(0 0.5)"/>
</clipPath>
</defs>
</svg>
