<svg width="200" height="150" viewBox="0 0 200 150" fill="none" xmlns="http://www.w3.org/2000/svg">
<path fill-rule="evenodd" clip-rule="evenodd" d="M114.014 75C114.014 98.0119 95.7834 116.667 73.2947 116.667C50.8061 116.667 32.5754 98.0119 32.5754 75C32.5754 51.9881 50.8061 33.3333 73.2947 33.3333C95.7834 33.3333 114.014 51.9881 114.014 75ZM97.7263 75C97.7263 88.8071 86.7879 100 73.2947 100C59.8016 100 48.8632 88.8071 48.8632 75C48.8632 61.1929 59.8016 50 73.2947 50C86.7879 50 97.7263 61.1929 97.7263 75Z" fill="url(#paint0_linear_18479_2048)"/>
<path fill-rule="evenodd" clip-rule="evenodd" d="M0 75C0 116.421 32.8152 150 73.2947 150H157.245L173.532 133.333H119.367C122.971 130.35 126.292 127.023 129.284 123.403H183.237L200 106.25H139.944C144.211 96.7368 146.589 86.1527 146.589 75C146.589 33.5786 113.774 0 73.2947 0C32.8152 0 0 33.5786 0 75ZM73.2947 133.333C104.779 133.333 130.302 107.217 130.302 75C130.302 42.7834 104.779 16.6667 73.2947 16.6667C41.8106 16.6667 16.2877 42.7834 16.2877 75C16.2877 107.217 41.8106 133.333 73.2947 133.333Z" fill="url(#paint1_linear_18479_2048)"/>
<defs>
<linearGradient id="paint0_linear_18479_2048" x1="0" y1="0" x2="144" y2="192" gradientUnits="userSpaceOnUse">
<stop stop-color="#0083C7"/>
<stop offset="1" stop-color="#00AA5B"/>
</linearGradient>
<linearGradient id="paint1_linear_18479_2048" x1="0" y1="0" x2="144" y2="192" gradientUnits="userSpaceOnUse">
<stop stop-color="#0083C7"/>
<stop offset="1" stop-color="#00AA5B"/>
</linearGradient>
</defs>
</svg>
