<svg width="17" height="18" viewBox="0 0 17 18" fill="none" xmlns="http://www.w3.org/2000/svg">
<g clip-path="url(#clip0)">
<path d="M8.5 17.5C13.1944 17.5 17 13.6944 17 9C17 4.30558 13.1944 0.5 8.5 0.5C3.80558 0.5 0 4.30558 0 9C0 13.6944 3.80558 17.5 8.5 17.5Z" fill="#D80027"/>
<path d="M4.65176 5.67383L5.38555 7.93164H7.75957L5.84043 9.32949L6.57422 11.5873L4.65176 10.1928L2.7293 11.5873L3.46641 9.32949L1.54395 7.93164H3.91797L4.65176 5.67383Z" fill="#FFDA44"/>
<path d="M10.0773 13.6654L9.51621 12.9748L8.68613 13.2969L9.16758 12.5498L8.60645 11.8559L9.46641 12.085L9.95117 11.3379L9.99765 12.2277L10.8609 12.4568L10.0275 12.7756L10.0773 13.6654Z" fill="#FFDA44"/>
<path d="M11.193 11.64L11.4586 10.79L10.7314 10.2754L11.6213 10.2621L11.8836 9.41211L12.1725 10.2555L13.0623 10.2455L12.3484 10.7768L12.634 11.6201L11.9068 11.1055L11.193 11.64Z" fill="#FFDA44"/>
<path d="M12.6967 6.73906L12.3049 7.53926L12.9424 8.16016L12.0625 8.03399L11.6707 8.83086L11.518 7.9543L10.6348 7.82813L11.425 7.41309L11.2723 6.5332L11.9098 7.1541L12.6967 6.73906Z" fill="#FFDA44"/>
<path d="M10.1008 4.31543L10.0344 5.20195L10.8611 5.53731L9.99453 5.74981L9.93145 6.63965L9.46328 5.88262L8.59668 6.09512L9.17109 5.41445L8.69961 4.66074L9.52637 4.99609L10.1008 4.31543Z" fill="#FFDA44"/>
</g>
<defs>
<clipPath id="clip0">
<rect width="17" height="17" fill="white" transform="translate(0 0.5)"/>
</clipPath>
</defs>
</svg>
