<svg width="15" height="15" viewBox="0 0 15 15" fill="none" xmlns="http://www.w3.org/2000/svg">
<g clip-path="url(#clip0_6789_22557)">
<path d="M7.5 15C11.6421 15 15 11.6421 15 7.5C15 3.35786 11.6421 0 7.5 0C3.35786 0 0 3.35786 0 7.5C0 11.6421 3.35786 15 7.5 15Z" fill="#F0F0F0"/>
<path d="M4.23828 10.1094L4.89046 14.5343C5.70292 14.8358 6.58174 15.0007 7.49914 15.0007C10.7238 15.0007 13.473 12.9654 14.5326 10.1094H4.23828Z" fill="black"/>
<path d="M4.23828 4.89132L4.89046 0.466435C5.70292 0.164941 6.58174 0 7.49914 0C10.7238 0 13.473 2.03531 14.5326 4.89132H4.23828Z" fill="#6DA544"/>
<path d="M0 7.50226C0 10.727 2.03534 13.4761 4.89132 14.5358V0.46875C2.03534 1.52845 0 4.27752 0 7.50226Z" fill="#A2001D"/>
</g>
<defs>
<clipPath id="clip0_6789_22557">
<rect width="15" height="15" fill="white"/>
</clipPath>
</defs>
</svg>
