<svg width="15" height="15" viewBox="0 0 15 15" fill="none" xmlns="http://www.w3.org/2000/svg">
<g clip-path="url(#clip0_6789_22545)">
<path d="M0 7.50305C0 8.42045 0.165029 9.29924 0.466494 10.1117L7.5 10.7639L14.5335 10.1117C14.835 9.29924 15 8.42045 15 7.50305C15 6.58565 14.835 5.70686 14.5335 4.89437L7.5 4.24219L0.466494 4.89437C0.165029 5.70686 0 6.58565 0 7.50305H0Z" fill="#FFDA44"/>
<path d="M14.5319 4.89132C13.4722 2.03534 10.7231 0 7.49835 0C4.27361 0 1.52454 2.03534 0.464844 4.89132H14.5319Z" fill="#D80027"/>
<path d="M0.464844 10.1094C1.52454 12.9654 4.27361 15.0007 7.49835 15.0007C10.7231 15.0007 13.4722 12.9654 14.5319 10.1094H0.464844Z" fill="#D80027"/>
</g>
<defs>
<clipPath id="clip0_6789_22545">
<rect width="15" height="15" fill="white"/>
</clipPath>
</defs>
</svg>
