<svg width="15" height="15" viewBox="0 0 15 15" fill="none" xmlns="http://www.w3.org/2000/svg">
<path d="M7.5 15C11.6421 15 15 11.6421 15 7.5C15 3.35786 11.6421 0 7.5 0C3.35786 0 0 3.35786 0 7.5C0 11.6421 3.35786 15 7.5 15Z" fill="#F0F0F0"/>
<path d="M7.50189 0C4.52844 0 1.95922 1.73042 0.746094 4.23914H14.2577C13.0446 1.73042 10.4753 0 7.50189 0Z" fill="#FF9811"/>
<path d="M7.50189 14.997C10.4753 14.997 13.0446 13.2665 14.2577 10.7578H0.746094C1.95922 13.2665 4.52844 14.997 7.50189 14.997Z" fill="#6DA544"/>
<path d="M7.49931 10.108C8.94004 10.108 10.108 8.94004 10.108 7.49931C10.108 6.05857 8.94004 4.89062 7.49931 4.89062C6.05857 4.89062 4.89062 6.05857 4.89062 7.49931C4.89062 8.94004 6.05857 10.108 7.49931 10.108Z" fill="#0052B4"/>
<path d="M7.50152 9.12805C8.40198 9.12805 9.13195 8.39808 9.13195 7.49762C9.13195 6.59716 8.40198 5.86719 7.50152 5.86719C6.60106 5.86719 5.87109 6.59716 5.87109 7.49762C5.87109 8.39808 6.60106 9.12805 7.50152 9.12805Z" fill="#F0F0F0"/>
<path d="M7.50019 5.48438L8.00319 6.62514L9.24256 6.49034L8.50616 7.49631L9.24256 8.50228L8.00319 8.36748L7.50019 9.50825L6.99719 8.36748L5.75781 8.50225L6.49422 7.49631L5.75781 6.49034L6.99719 6.62514L7.50019 5.48438Z" fill="#0052B4"/>
</svg>
