<svg width="15" height="15" viewBox="0 0 15 15" fill="none" xmlns="http://www.w3.org/2000/svg">
<g clip-path="url(#clip0_6789_22569)">
<path d="M0 7.50226C0 10.727 2.03531 13.476 4.89126 14.5357L5.54347 7.50223L4.89126 0.46875C2.03531 1.52848 0 4.27752 0 7.50226Z" fill="#6DA544"/>
<path d="M14.9994 7.5C14.9994 3.35789 11.6415 0 7.49937 0C6.58196 0 5.70314 0.165029 4.89062 0.466494V14.5335C5.70314 14.835 6.58196 15 7.49937 15C11.6415 15 14.9994 11.6421 14.9994 7.5Z" fill="#D80027"/>
<path d="M4.88993 10.108C6.33067 10.108 7.49861 8.94004 7.49861 7.49931C7.49861 6.05857 6.33067 4.89062 4.88993 4.89062C3.4492 4.89062 2.28125 6.05857 2.28125 7.49931C2.28125 8.94004 3.4492 10.108 4.88993 10.108Z" fill="#FFDA44"/>
<path d="M3.42578 6.19531V7.82574C3.42578 8.63615 4.08273 9.29314 4.89317 9.29314C5.70361 9.29314 6.36056 8.63618 6.36056 7.82574V6.19531H3.42578Z" fill="#D80027"/>
<path d="M4.89148 8.31316C4.62178 8.31316 4.40234 8.09373 4.40234 7.82402V7.17188H5.3806V7.82405C5.3806 8.09373 5.16116 8.31316 4.89148 8.31316Z" fill="#F0F0F0"/>
</g>
<defs>
<clipPath id="clip0_6789_22569">
<rect width="15" height="15" fill="white"/>
</clipPath>
</defs>
</svg>
