<svg width="15" height="15" viewBox="0 0 15 15" fill="none" xmlns="http://www.w3.org/2000/svg">
<g clip-path="url(#clip0_6789_22528)">
<path d="M7.5 15C11.6421 15 15 11.6421 15 7.5C15 3.35786 11.6421 0 7.5 0C3.35786 0 0 3.35786 0 7.5C0 11.6421 3.35786 15 7.5 15Z" fill="#F0F0F0"/>
<path d="M14.5335 10.108C14.835 9.2955 15 8.41671 15 7.49931C15 6.5819 14.835 5.70312 14.5335 4.89062H0.466494C0.165029 5.70312 0 6.5819 0 7.49931C0 8.41671 0.165029 9.2955 0.466494 10.108L7.5 10.7602L14.5335 10.108Z" fill="#0052B4"/>
<path d="M7.50226 15.0007C10.727 15.0007 13.4761 12.9654 14.5358 10.1094H0.46875C1.52845 12.9654 4.27752 15.0007 7.50226 15.0007Z" fill="#D80027"/>
</g>
<defs>
<clipPath id="clip0_6789_22528">
<rect width="15" height="15" fill="white"/>
</clipPath>
</defs>
</svg>
