<svg width="15" height="15" viewBox="0 0 15 15" fill="none" xmlns="http://www.w3.org/2000/svg">
<path d="M7.5 15C11.6421 15 15 11.6421 15 7.5C15 3.35786 11.6421 0 7.5 0C3.35786 0 0 3.35786 0 7.5C0 11.6421 3.35786 15 7.5 15Z" fill="#D80027"/>
<path d="M4.10547 4.5625L4.75293 6.55469H6.84766L5.1543 7.78809L5.80176 9.78027L4.10547 8.54981L2.40918 9.78027L3.05957 7.78809L1.36328 6.55469H3.45801L4.10547 4.5625Z" fill="#FFDA44"/>
<path d="M8.8916 11.6162L8.39648 11.0068L7.66406 11.291L8.08887 10.6318L7.59375 10.0195L8.35254 10.2217L8.78027 9.5625L8.82129 10.3477L9.58301 10.5498L8.84765 10.8311L8.8916 11.6162Z" fill="#FFDA44"/>
<path d="M9.87598 9.83301L10.1104 9.08301L9.46875 8.62891L10.2539 8.61719L10.4854 7.86719L10.7402 8.61133L11.5254 8.60254L10.8955 9.07129L11.1475 9.81543L10.5059 9.36133L9.87598 9.83301Z" fill="#FFDA44"/>
<path d="M11.2061 5.50977L10.8604 6.21582L11.4229 6.76367L10.6465 6.65234L10.3008 7.35547L10.166 6.58203L9.38672 6.4707L10.084 6.10449L9.94922 5.32812L10.5117 5.87598L11.2061 5.50977Z" fill="#FFDA44"/>
<path d="M8.91309 3.36719L8.85449 4.14942L9.58399 4.44531L8.81934 4.63281L8.76367 5.41797L8.35059 4.75L7.58594 4.9375L8.09277 4.33692L7.67676 3.67188L8.40625 3.96777L8.91309 3.36719Z" fill="#FFDA44"/>
</svg>
