<svg width="397" height="243" viewBox="0 0 397 243" fill="none" xmlns="http://www.w3.org/2000/svg">
<path fill-rule="evenodd" clip-rule="evenodd" d="M142.46 122.134C142.46 150.539 119.704 173.565 91.6316 173.565C63.5596 173.565 40.8027 150.539 40.8027 122.134C40.8027 93.7298 63.5596 70.7034 91.6316 70.7034C119.704 70.7034 142.46 93.7298 142.46 122.134ZM122.129 122.134C122.129 139.177 108.475 152.993 91.6316 152.993C74.7884 152.993 61.1343 139.177 61.1343 122.134C61.1343 105.092 74.7884 91.2757 91.6316 91.2757C108.475 91.2757 122.129 105.092 122.129 122.134Z" fill="url(#paint0_linear_14901_45066)"/>
<path fill-rule="evenodd" clip-rule="evenodd" d="M0.139648 122.134C0.139648 173.262 41.102 214.71 91.6316 214.71H196.424L216.756 194.137H149.143C153.641 190.454 157.787 186.349 161.522 181.88H228.869L249.794 160.707H174.828C180.154 148.965 183.124 135.9 183.124 122.134C183.124 71.0062 142.161 29.5588 91.6316 29.5588C41.102 29.5588 0.139648 71.0062 0.139648 122.134ZM91.6316 194.137C130.932 194.137 162.792 161.9 162.792 122.134C162.792 82.368 130.932 50.1311 91.6316 50.1311C52.3308 50.1311 20.4712 82.368 20.4712 122.134C20.4712 161.9 52.3308 194.137 91.6316 194.137Z" fill="url(#paint1_linear_14901_45066)"/>
<g opacity="0.05">
<path fill-rule="evenodd" clip-rule="evenodd" d="M305.665 114.5C305.665 154.541 273.579 187 233.999 187C194.419 187 162.333 154.541 162.333 114.5C162.333 74.4593 194.419 42 233.999 42C273.579 42 305.665 74.4593 305.665 114.5ZM276.998 114.5C276.998 138.524 257.747 158 233.999 158C210.251 158 190.999 138.524 190.999 114.5C190.999 90.4756 210.251 71 233.999 71C257.747 71 276.998 90.4756 276.998 114.5Z" fill="url(#paint2_linear_14901_45066)"/>
<path fill-rule="evenodd" clip-rule="evenodd" d="M105 114.5C105 186.573 162.755 245 233.999 245H381.751L410.417 216H315.086C321.428 210.808 327.274 205.021 332.54 198.721H427.497L457 168.875H351.301C358.811 152.322 362.998 133.906 362.998 114.5C362.998 42.4268 305.243 -16 233.999 -16C162.755 -16 105 42.4268 105 114.5ZM233.999 216C289.411 216 334.331 170.557 334.331 114.5C334.331 58.4431 289.411 13 233.999 13C178.587 13 133.666 58.4431 133.666 114.5C133.666 170.557 178.587 216 233.999 216Z" fill="url(#paint3_linear_14901_45066)"/>
</g>
<defs>
<linearGradient id="paint0_linear_14901_45066" x1="0.139648" y1="29.5588" x2="177.316" y2="268.461" gradientUnits="userSpaceOnUse">
<stop stop-color="#0083C7"/>
<stop offset="1" stop-color="#00AA5B"/>
</linearGradient>
<linearGradient id="paint1_linear_14901_45066" x1="0.139648" y1="29.5588" x2="177.316" y2="268.461" gradientUnits="userSpaceOnUse">
<stop stop-color="#0083C7"/>
<stop offset="1" stop-color="#00AA5B"/>
</linearGradient>
<linearGradient id="paint2_linear_14901_45066" x1="105" y1="-16" x2="354.744" y2="320.82" gradientUnits="userSpaceOnUse">
<stop stop-color="#0083C7"/>
<stop offset="1" stop-color="#00AA5B"/>
</linearGradient>
<linearGradient id="paint3_linear_14901_45066" x1="105" y1="-16" x2="354.744" y2="320.82" gradientUnits="userSpaceOnUse">
<stop stop-color="#0083C7"/>
<stop offset="1" stop-color="#00AA5B"/>
</linearGradient>
</defs>
</svg>
