<svg width="366" height="243" viewBox="0 0 366 243" fill="none" xmlns="http://www.w3.org/2000/svg">
<g opacity="0.05">
<path fill-rule="evenodd" clip-rule="evenodd" d="M237.719 116.5C237.719 163.904 199.708 202.333 152.82 202.333C105.931 202.333 67.9198 163.904 67.9198 116.5C67.9198 69.0956 105.931 30.6667 152.82 30.6667C199.708 30.6667 237.719 69.0956 237.719 116.5ZM203.759 116.5C203.759 144.943 180.953 168 152.82 168C124.686 168 101.88 144.943 101.88 116.5C101.88 88.0573 124.686 65 152.82 65C180.953 65 203.759 88.0573 203.759 116.5Z" fill="white"/>
<path fill-rule="evenodd" clip-rule="evenodd" d="M0 116.5C0 201.828 68.4197 271 152.82 271H327.855L361.815 236.667H248.881C256.394 230.52 263.319 223.668 269.557 216.21H382.049L417 180.875H291.782C300.679 161.278 305.639 139.475 305.639 116.5C305.639 31.172 237.219 -38 152.82 -38C68.4197 -38 0 31.172 0 116.5ZM152.82 236.667C218.464 236.667 271.679 182.866 271.679 116.5C271.679 50.1338 218.464 -3.66666 152.82 -3.66666C87.1752 -3.66666 33.9599 50.1338 33.9599 116.5C33.9599 182.866 87.1752 236.667 152.82 236.667Z" fill="white"/>
</g>
<g clip-path="url(#clip0_14901_45069)">
<path d="M159.958 124.906L150.549 117.839L147.099 106.125C147.099 106.125 16.7801 187.147 5.95945 193.98C-4.86122 200.813 2.03892 211.551 2.03892 211.551C2.03892 211.551 8.93908 222.367 19.6421 215.455C30.3452 208.544 159.958 124.906 159.958 124.906Z" fill="#C49568"/>
<path d="M179.403 99.5653L152.234 56.8484L101.424 88.9446L128.593 131.662L155.802 174.339L206.612 142.243L179.403 99.5653Z" fill="#C49568"/>
<path d="M132.514 129.162L105.344 86.4846L101.424 88.9445L128.593 131.661L155.802 174.339L159.722 171.879L132.514 129.162Z" fill="#AD825A"/>
<path d="M144.472 122.72L117.303 80.0029L113.343 82.5019L140.551 125.18L167.721 167.897L171.68 165.398L144.472 122.72Z" fill="#AD825A"/>
<path d="M156.429 116.238L129.26 73.5603L125.3 76.0202L152.508 118.737L179.678 161.415L183.598 158.955L156.429 116.238Z" fill="#AD825A"/>
<path d="M168.387 109.795L141.178 67.0785L137.258 69.5775L164.427 112.255L191.636 154.972L195.556 152.473L168.387 109.795Z" fill="#AD825A"/>
<path d="M181.168 102.298L153.96 59.6206L150.039 62.0805L177.208 104.797L204.417 147.475L208.337 145.015L181.168 102.298Z" fill="#AD825A"/>
<path d="M159.017 180.743C157.066 181.974 154.704 182.385 152.449 181.888C150.194 181.39 148.228 180.024 146.981 178.088C146.366 177.125 145.948 176.05 145.751 174.925C145.554 173.801 145.582 172.648 145.833 171.534C146.084 170.421 146.554 169.367 147.215 168.435C147.877 167.502 148.716 166.709 149.686 166.101L201.947 132.989C203.892 131.76 206.248 131.35 208.496 131.848C210.745 132.345 212.704 133.711 213.944 135.644V135.644C214.559 136.607 214.977 137.682 215.174 138.807C215.371 139.931 215.343 141.084 215.092 142.198C214.84 143.311 214.371 144.365 213.709 145.297C213.048 146.23 212.208 147.023 211.239 147.632L159.017 180.743Z" fill="#8C6139"/>
<path d="M106.286 97.8472C105.322 98.4589 104.245 98.8747 103.119 99.0704C101.993 99.2661 100.839 99.2379 99.724 98.9874C98.6089 98.737 97.5545 98.2692 96.6216 97.6111C95.6888 96.953 94.896 96.1176 94.2888 95.153C93.6745 94.1928 93.2571 93.121 93.0606 91.9994C92.8641 90.8778 92.8923 89.7286 93.1438 88.6179C93.3953 87.5073 93.8649 86.4572 94.5257 85.5281C95.1865 84.5991 96.0254 83.8094 96.994 83.2047L149.255 50.2104C151.2 48.9817 153.555 48.5712 155.804 49.0689C158.053 49.5666 160.012 50.9319 161.251 52.8656V52.8656C161.867 53.8288 162.285 54.9036 162.482 56.0282C162.679 57.1528 162.651 58.3051 162.4 59.419C162.148 60.5328 161.678 61.5862 161.017 62.5187C160.356 63.4512 159.516 64.2444 158.546 64.8528L106.286 97.8472Z" fill="#8C6139"/>
<path d="M8.97754 192.105L22.229 214.011L33.4416 206.787L20.3079 185.038L8.97754 192.105Z" fill="#FFAE0D"/>
<path d="M29.7569 179.142L24.1113 182.656L37.2451 204.366L42.8516 200.735L29.7569 179.142Z" fill="#FFAE0D"/>
<path d="M207.749 193.277H105.619V203.741H207.749V193.277Z" fill="#1A4362"/>
<path d="M156.664 193.277H105.619V203.741H156.664V193.277Z" fill="#122D41"/>
<path d="M222.961 202.023H90.3682V221H222.961V202.023Z" fill="#235982"/>
<path d="M156.664 201.594H90.3682V221H156.664V201.594Z" fill="#1A4362"/>
</g>
<defs>
<clipPath id="clip0_14901_45069">
<rect width="223" height="172" fill="white" transform="translate(0 49)"/>
</clipPath>
</defs>
</svg>
