<svg width="845" height="210" viewBox="0 0 845 210" fill="none" xmlns="http://www.w3.org/2000/svg">
<path fill-rule="evenodd" clip-rule="evenodd" d="M160.76 105C160.76 137.217 135.055 163.333 103.346 163.333C71.6366 163.333 45.9314 137.217 45.9314 105C45.9314 72.7834 71.6366 46.6667 103.346 46.6667C135.055 46.6667 160.76 72.7834 160.76 105ZM137.794 105C137.794 124.33 122.371 140 103.346 140C84.3202 140 68.8971 124.33 68.8971 105C68.8971 85.67 84.3202 70 103.346 70C122.371 70 137.794 85.67 137.794 105Z" fill="url(#paint0_linear)"/>
<path fill-rule="evenodd" clip-rule="evenodd" d="M103.346 210C46.2694 210 0 162.99 0 105C0 47.0101 46.2694 0 103.346 0C160.422 0 206.691 47.0101 206.691 105C206.691 120.614 203.337 135.432 197.32 148.75H282H845V172.764H258.364H182.291C178.072 177.833 173.389 182.49 168.308 186.667H244.681H845V210H221.715H103.346ZM103.346 186.667C147.738 186.667 183.725 150.103 183.725 105C183.725 59.8967 147.738 23.3333 103.346 23.3333C58.953 23.3333 22.9657 59.8967 22.9657 105C22.9657 150.103 58.953 186.667 103.346 186.667Z" fill="url(#paint1_linear)"/>
<path fill-rule="evenodd" clip-rule="evenodd" d="M103.346 140C122.371 140 137.794 124.33 137.794 105C137.794 85.67 122.371 70 103.346 70C84.3202 70 68.8971 85.67 68.8971 105C68.8971 124.33 84.3202 140 103.346 140ZM103.346 163.333C135.055 163.333 160.76 137.217 160.76 105C160.76 72.7834 135.055 46.6667 103.346 46.6667C71.6366 46.6667 45.9314 72.7834 45.9314 105C45.9314 137.217 71.6366 163.333 103.346 163.333Z" fill="url(#paint2_linear)"/>
<defs>
<linearGradient id="paint0_linear" x1="0" y1="0" x2="98.307" y2="395.569" gradientUnits="userSpaceOnUse">
<stop stop-color="#0083C7"/>
<stop offset="1" stop-color="#00AA5B"/>
</linearGradient>
<linearGradient id="paint1_linear" x1="0" y1="0" x2="98.307" y2="395.569" gradientUnits="userSpaceOnUse">
<stop stop-color="#0083C7"/>
<stop offset="1" stop-color="#00AA5B"/>
</linearGradient>
<linearGradient id="paint2_linear" x1="0" y1="0" x2="98.307" y2="395.569" gradientUnits="userSpaceOnUse">
<stop stop-color="#0083C7"/>
<stop offset="1" stop-color="#00AA5B"/>
</linearGradient>
</defs>
</svg>
