<svg width="22" height="29" viewBox="0 0 22 29" fill="none" xmlns="http://www.w3.org/2000/svg">
<path d="M8.5 7C8.5 6.72386 8.72386 6.5 9 6.5H13C13.2761 6.5 13.5 6.72386 13.5 7V8H8.5V7Z" fill="#22CC14"/>
<path d="M7 9.5C6.72386 9.5 6.5 9.72386 6.5 10V14C6.5 14.2761 6.72386 14.5 7 14.5H15C15.2761 14.5 15.5 14.2761 15.5 14V10C15.5 9.72386 15.2761 9.5 15 9.5H7Z" fill="#22CC14"/>
<path fill-rule="evenodd" clip-rule="evenodd" d="M0 10.875C0 14.4777 1.04315 15.9469 6.0328 22.9744C7.11576 24.4996 8.38508 26.2874 9.86952 28.4149C10.4157 29.195 11.5842 29.1951 12.1305 28.4149C13.6151 26.2871 14.8841 24.4998 15.9672 22.9744C20.9569 15.9469 22 14.4777 22 10.875C22 4.86888 17.0752 0 11 0C4.92485 0 0 4.86888 0 10.875ZM7 8V7C7 5.89543 7.89543 5 9 5H13C14.1046 5 15 5.89543 15 7V8C16.1046 8 17 8.89543 17 10V14C17 15.1046 16.1046 16 15 16H7C5.89543 16 5 15.1046 5 14V10C5 8.89543 5.89543 8 7 8Z" fill="#22CC14"/>
</svg>
