<svg width="607" height="330" viewBox="0 0 607 330" fill="none" xmlns="http://www.w3.org/2000/svg">
<circle cx="367.5" cy="78.5" r="1.5" fill="#f3f3f3"/>
<circle cx="367.5" cy="175.5" r="1.5" fill="#f3f3f3"/>
<circle cx="367.5" cy="271.5" r="1.5" fill="#f3f3f3"/>
<circle cx="367.5" cy="30.5" r="1.5" fill="#f3f3f3"/>
<circle cx="367.5" cy="126.5" r="1.5" fill="#f3f3f3"/>
<circle cx="367.5" cy="222.5" r="1.5" fill="#f3f3f3"/>
<circle cx="367.5" cy="319.5" r="1.5" fill="#f3f3f3"/>
<circle cx="367.5" cy="6.5" r="1.5" fill="#f3f3f3"/>
<circle cx="367.5" cy="102.5" r="1.5" fill="#f3f3f3"/>
<circle cx="367.5" cy="199.5" r="1.5" fill="#f3f3f3"/>
<circle cx="367.5" cy="295.5" r="1.5" fill="#f3f3f3"/>
<circle cx="367.5" cy="55.5" r="1.5" fill="#f3f3f3"/>
<circle cx="367.5" cy="151.5" r="1.5" fill="#f3f3f3"/>
<circle cx="367.5" cy="247.5" r="1.5" fill="#f3f3f3"/>
<circle cx="125.5" cy="78.5" r="1.5" fill="#f3f3f3"/>
<circle cx="125.5" cy="175.5" r="1.5" fill="#f3f3f3"/>
<circle cx="125.5" cy="271.5" r="1.5" fill="#f3f3f3"/>
<circle cx="125.5" cy="30.5" r="1.5" fill="#f3f3f3"/>
<circle cx="125.5" cy="126.5" r="1.5" fill="#f3f3f3"/>
<circle cx="125.5" cy="222.5" r="1.5" fill="#f3f3f3"/>
<circle cx="125.5" cy="319.5" r="1.5" fill="#f3f3f3"/>
<circle cx="125.5" cy="6.5" r="1.5" fill="#f3f3f3"/>
<circle cx="125.5" cy="102.5" r="1.5" fill="#f3f3f3"/>
<circle cx="125.5" cy="199.5" r="1.5" fill="#f3f3f3"/>
<circle cx="125.5" cy="295.5" r="1.5" fill="#f3f3f3"/>
<circle cx="125.5" cy="55.5" r="1.5" fill="#f3f3f3"/>
<circle cx="125.5" cy="151.5" r="1.5" fill="#f3f3f3"/>
<circle cx="125.5" cy="247.5" r="1.5" fill="#f3f3f3"/>
<circle cx="607.5" cy="6.5" r="1.5" fill="#f3f3f3"/>
<circle cx="5.5" cy="78.5" r="1.5" fill="#f3f3f3"/>
<circle cx="5.5" cy="175.5" r="1.5" fill="#f3f3f3"/>
<circle cx="5.5" cy="271.5" r="1.5" fill="#f3f3f3"/>
<circle cx="5.5" cy="30.5" r="1.5" fill="#f3f3f3"/>
<circle cx="5.5" cy="126.5" r="1.5" fill="#f3f3f3"/>
<circle cx="5.5" cy="222.5" r="1.5" fill="#f3f3f3"/>
<circle cx="5.5" cy="319.5" r="1.5" fill="#f3f3f3"/>
<circle cx="5.5" cy="6.5" r="1.5" fill="#f3f3f3"/>
<circle cx="5.5" cy="102.5" r="1.5" fill="#f3f3f3"/>
<circle cx="5.5" cy="199.5" r="1.5" fill="#f3f3f3"/>
<circle cx="5.5" cy="295.5" r="1.5" fill="#f3f3f3"/>
<circle cx="5.5" cy="55.5" r="1.5" fill="#f3f3f3"/>
<circle cx="5.5" cy="151.5" r="1.5" fill="#f3f3f3"/>
<circle cx="5.5" cy="247.5" r="1.5" fill="#f3f3f3"/>
<circle cx="487.5" cy="6.5" r="1.5" fill="#f3f3f3"/>
<circle cx="247.5" cy="78.5" r="1.5" fill="#f3f3f3"/>
<circle cx="247.5" cy="175.5" r="1.5" fill="#f3f3f3"/>
<circle cx="247.5" cy="271.5" r="1.5" fill="#f3f3f3"/>
<circle cx="247.5" cy="30.5" r="1.5" fill="#f3f3f3"/>
<circle cx="247.5" cy="126.5" r="1.5" fill="#f3f3f3"/>
<circle cx="247.5" cy="222.5" r="1.5" fill="#f3f3f3"/>
<circle cx="247.5" cy="319.5" r="1.5" fill="#f3f3f3"/>
<circle cx="247.5" cy="6.5" r="1.5" fill="#f3f3f3"/>
<circle cx="247.5" cy="102.5" r="1.5" fill="#f3f3f3"/>
<circle cx="247.5" cy="199.5" r="1.5" fill="#f3f3f3"/>
<circle cx="247.5" cy="295.5" r="1.5" fill="#f3f3f3"/>
<circle cx="247.5" cy="55.5" r="1.5" fill="#f3f3f3"/>
<circle cx="247.5" cy="151.5" r="1.5" fill="#f3f3f3"/>
<circle cx="247.5" cy="247.5" r="1.5" fill="#f3f3f3"/>
<circle cx="391.5" cy="78.5" r="1.5" fill="#f3f3f3"/>
<circle cx="391.5" cy="175.5" r="1.5" fill="#f3f3f3"/>
<circle cx="391.5" cy="271.5" r="1.5" fill="#f3f3f3"/>
<circle cx="391.5" cy="30.5" r="1.5" fill="#f3f3f3"/>
<circle cx="391.5" cy="126.5" r="1.5" fill="#f3f3f3"/>
<circle cx="391.5" cy="222.5" r="1.5" fill="#f3f3f3"/>
<circle cx="391.5" cy="319.5" r="1.5" fill="#f3f3f3"/>
<circle cx="391.5" cy="6.5" r="1.5" fill="#f3f3f3"/>
<circle cx="391.5" cy="102.5" r="1.5" fill="#f3f3f3"/>
<circle cx="391.5" cy="199.5" r="1.5" fill="#f3f3f3"/>
<circle cx="391.5" cy="295.5" r="1.5" fill="#f3f3f3"/>
<circle cx="391.5" cy="55.5" r="1.5" fill="#f3f3f3"/>
<circle cx="391.5" cy="151.5" r="1.5" fill="#f3f3f3"/>
<circle cx="391.5" cy="247.5" r="1.5" fill="#f3f3f3"/>
<circle cx="150.5" cy="78.5" r="1.5" fill="#f3f3f3"/>
<circle cx="150.5" cy="175.5" r="1.5" fill="#f3f3f3"/>
<circle cx="150.5" cy="271.5" r="1.5" fill="#f3f3f3"/>
<circle cx="150.5" cy="30.5" r="1.5" fill="#f3f3f3"/>
<circle cx="150.5" cy="126.5" r="1.5" fill="#f3f3f3"/>
<circle cx="150.5" cy="222.5" r="1.5" fill="#f3f3f3"/>
<circle cx="150.5" cy="319.5" r="1.5" fill="#f3f3f3"/>
<circle cx="150.5" cy="6.5" r="1.5" fill="#f3f3f3"/>
<circle cx="150.5" cy="102.5" r="1.5" fill="#f3f3f3"/>
<circle cx="150.5" cy="199.5" r="1.5" fill="#f3f3f3"/>
<circle cx="150.5" cy="295.5" r="1.5" fill="#f3f3f3"/>
<circle cx="150.5" cy="55.5" r="1.5" fill="#f3f3f3"/>
<circle cx="150.5" cy="151.5" r="1.5" fill="#f3f3f3"/>
<circle cx="150.5" cy="247.5" r="1.5" fill="#f3f3f3"/>
<circle cx="29.5" cy="78.5" r="1.5" fill="#f3f3f3"/>
<circle cx="29.5" cy="175.5" r="1.5" fill="#f3f3f3"/>
<circle cx="29.5" cy="271.5" r="1.5" fill="#f3f3f3"/>
<circle cx="29.5" cy="30.5" r="1.5" fill="#f3f3f3"/>
<circle cx="29.5" cy="126.5" r="1.5" fill="#f3f3f3"/>
<circle cx="29.5" cy="222.5" r="1.5" fill="#f3f3f3"/>
<circle cx="29.5" cy="319.5" r="1.5" fill="#f3f3f3"/>
<circle cx="29.5" cy="6.5" r="1.5" fill="#f3f3f3"/>
<circle cx="29.5" cy="102.5" r="1.5" fill="#f3f3f3"/>
<circle cx="29.5" cy="199.5" r="1.5" fill="#f3f3f3"/>
<circle cx="29.5" cy="295.5" r="1.5" fill="#f3f3f3"/>
<circle cx="29.5" cy="55.5" r="1.5" fill="#f3f3f3"/>
<circle cx="29.5" cy="151.5" r="1.5" fill="#f3f3f3"/>
<circle cx="29.5" cy="247.5" r="1.5" fill="#f3f3f3"/>
<circle cx="511.5" cy="6.5" r="1.5" fill="#f3f3f3"/>
<circle cx="270.5" cy="78.5" r="1.5" fill="#f3f3f3"/>
<circle cx="270.5" cy="175.5" r="1.5" fill="#f3f3f3"/>
<circle cx="270.5" cy="271.5" r="1.5" fill="#f3f3f3"/>
<circle cx="270.5" cy="30.5" r="1.5" fill="#f3f3f3"/>
<circle cx="270.5" cy="126.5" r="1.5" fill="#f3f3f3"/>
<circle cx="270.5" cy="222.5" r="1.5" fill="#f3f3f3"/>
<circle cx="270.5" cy="319.5" r="1.5" fill="#f3f3f3"/>
<circle cx="270.5" cy="6.5" r="1.5" fill="#f3f3f3"/>
<circle cx="270.5" cy="102.5" r="1.5" fill="#f3f3f3"/>
<circle cx="270.5" cy="199.5" r="1.5" fill="#f3f3f3"/>
<circle cx="270.5" cy="295.5" r="1.5" fill="#f3f3f3"/>
<circle cx="270.5" cy="55.5" r="1.5" fill="#f3f3f3"/>
<circle cx="270.5" cy="151.5" r="1.5" fill="#f3f3f3"/>
<circle cx="270.5" cy="247.5" r="1.5" fill="#f3f3f3"/>
<circle cx="414.5" cy="271.5" r="1.5" fill="#f3f3f3"/>
<circle cx="414.5" cy="30.5" r="1.5" fill="#f3f3f3"/>
<circle cx="414.5" cy="319.5" r="1.5" fill="#f3f3f3"/>
<circle cx="414.5" cy="6.5" r="1.5" fill="#f3f3f3"/>
<circle cx="414.5" cy="295.5" r="1.5" fill="#f3f3f3"/>
<circle cx="414.5" cy="55.5" r="1.5" fill="#f3f3f3"/>
<circle cx="414.5" cy="247.5" r="1.5" fill="#f3f3f3"/>
<circle cx="174.5" cy="78.5" r="1.5" fill="#f3f3f3"/>
<circle cx="174.5" cy="175.5" r="1.5" fill="#f3f3f3"/>
<circle cx="174.5" cy="271.5" r="1.5" fill="#f3f3f3"/>
<circle cx="174.5" cy="30.5" r="1.5" fill="#f3f3f3"/>
<circle cx="174.5" cy="126.5" r="1.5" fill="#f3f3f3"/>
<circle cx="174.5" cy="222.5" r="1.5" fill="#f3f3f3"/>
<circle cx="174.5" cy="319.5" r="1.5" fill="#f3f3f3"/>
<circle cx="174.5" cy="6.5" r="1.5" fill="#f3f3f3"/>
<circle cx="174.5" cy="102.5" r="1.5" fill="#f3f3f3"/>
<circle cx="174.5" cy="199.5" r="1.5" fill="#f3f3f3"/>
<circle cx="174.5" cy="295.5" r="1.5" fill="#f3f3f3"/>
<circle cx="174.5" cy="55.5" r="1.5" fill="#f3f3f3"/>
<circle cx="174.5" cy="151.5" r="1.5" fill="#f3f3f3"/>
<circle cx="174.5" cy="247.5" r="1.5" fill="#f3f3f3"/>
<circle cx="54.5" cy="78.5" r="1.5" fill="#f3f3f3"/>
<circle cx="54.5" cy="175.5" r="1.5" fill="#f3f3f3"/>
<circle cx="54.5" cy="271.5" r="1.5" fill="#f3f3f3"/>
<circle cx="54.5" cy="30.5" r="1.5" fill="#f3f3f3"/>
<circle cx="54.5" cy="126.5" r="1.5" fill="#f3f3f3"/>
<circle cx="54.5" cy="222.5" r="1.5" fill="#f3f3f3"/>
<circle cx="54.5" cy="319.5" r="1.5" fill="#f3f3f3"/>
<circle cx="54.5" cy="6.5" r="1.5" fill="#f3f3f3"/>
<circle cx="54.5" cy="102.5" r="1.5" fill="#f3f3f3"/>
<circle cx="54.5" cy="199.5" r="1.5" fill="#f3f3f3"/>
<circle cx="54.5" cy="295.5" r="1.5" fill="#f3f3f3"/>
<circle cx="54.5" cy="55.5" r="1.5" fill="#f3f3f3"/>
<circle cx="54.5" cy="151.5" r="1.5" fill="#f3f3f3"/>
<circle cx="54.5" cy="247.5" r="1.5" fill="#f3f3f3"/>
<circle cx="536.5" cy="6.5" r="1.5" fill="#f3f3f3"/>
<circle cx="294.5" cy="78.5" r="1.5" fill="#f3f3f3"/>
<circle cx="294.5" cy="175.5" r="1.5" fill="#f3f3f3"/>
<circle cx="294.5" cy="271.5" r="1.5" fill="#f3f3f3"/>
<circle cx="294.5" cy="30.5" r="1.5" fill="#f3f3f3"/>
<circle cx="294.5" cy="126.5" r="1.5" fill="#f3f3f3"/>
<circle cx="294.5" cy="222.5" r="1.5" fill="#f3f3f3"/>
<circle cx="294.5" cy="319.5" r="1.5" fill="#f3f3f3"/>
<circle cx="294.5" cy="6.5" r="1.5" fill="#f3f3f3"/>
<circle cx="294.5" cy="102.5" r="1.5" fill="#f3f3f3"/>
<circle cx="294.5" cy="199.5" r="1.5" fill="#f3f3f3"/>
<circle cx="294.5" cy="295.5" r="1.5" fill="#f3f3f3"/>
<circle cx="294.5" cy="55.5" r="1.5" fill="#f3f3f3"/>
<circle cx="294.5" cy="151.5" r="1.5" fill="#f3f3f3"/>
<circle cx="294.5" cy="247.5" r="1.5" fill="#f3f3f3"/>
<circle cx="439.5" cy="271.5" r="1.5" fill="#f3f3f3"/>
<circle cx="439.5" cy="319.5" r="1.5" fill="#f3f3f3"/>
<circle cx="439.5" cy="6.5" r="1.5" fill="#f3f3f3"/>
<circle cx="439.5" cy="295.5" r="1.5" fill="#f3f3f3"/>
<circle cx="198.5" cy="78.5" r="1.5" fill="#f3f3f3"/>
<circle cx="198.5" cy="175.5" r="1.5" fill="#f3f3f3"/>
<circle cx="198.5" cy="271.5" r="1.5" fill="#f3f3f3"/>
<circle cx="198.5" cy="30.5" r="1.5" fill="#f3f3f3"/>
<circle cx="198.5" cy="126.5" r="1.5" fill="#f3f3f3"/>
<circle cx="198.5" cy="222.5" r="1.5" fill="#f3f3f3"/>
<circle cx="198.5" cy="319.5" r="1.5" fill="#f3f3f3"/>
<circle cx="198.5" cy="6.5" r="1.5" fill="#f3f3f3"/>
<circle cx="198.5" cy="102.5" r="1.5" fill="#f3f3f3"/>
<circle cx="198.5" cy="199.5" r="1.5" fill="#f3f3f3"/>
<circle cx="198.5" cy="295.5" r="1.5" fill="#f3f3f3"/>
<circle cx="198.5" cy="55.5" r="1.5" fill="#f3f3f3"/>
<circle cx="198.5" cy="151.5" r="1.5" fill="#f3f3f3"/>
<circle cx="198.5" cy="247.5" r="1.5" fill="#f3f3f3"/>
<circle cx="78.5" cy="78.5" r="1.5" fill="#f3f3f3"/>
<circle cx="78.5" cy="175.5" r="1.5" fill="#f3f3f3"/>
<circle cx="78.5" cy="271.5" r="1.5" fill="#f3f3f3"/>
<circle cx="78.5" cy="30.5" r="1.5" fill="#f3f3f3"/>
<circle cx="78.5" cy="126.5" r="1.5" fill="#f3f3f3"/>
<circle cx="78.5" cy="222.5" r="1.5" fill="#f3f3f3"/>
<circle cx="78.5" cy="319.5" r="1.5" fill="#f3f3f3"/>
<circle cx="78.5" cy="6.5" r="1.5" fill="#f3f3f3"/>
<circle cx="78.5" cy="102.5" r="1.5" fill="#f3f3f3"/>
<circle cx="78.5" cy="199.5" r="1.5" fill="#f3f3f3"/>
<circle cx="78.5" cy="295.5" r="1.5" fill="#f3f3f3"/>
<circle cx="78.5" cy="55.5" r="1.5" fill="#f3f3f3"/>
<circle cx="78.5" cy="151.5" r="1.5" fill="#f3f3f3"/>
<circle cx="78.5" cy="247.5" r="1.5" fill="#f3f3f3"/>
<circle cx="560.5" cy="6.5" r="1.5" fill="#f3f3f3"/>
<circle cx="318.5" cy="78.5" r="1.5" fill="#f3f3f3"/>
<circle cx="318.5" cy="175.5" r="1.5" fill="#f3f3f3"/>
<circle cx="318.5" cy="271.5" r="1.5" fill="#f3f3f3"/>
<circle cx="318.5" cy="30.5" r="1.5" fill="#f3f3f3"/>
<circle cx="318.5" cy="126.5" r="1.5" fill="#f3f3f3"/>
<circle cx="318.5" cy="222.5" r="1.5" fill="#f3f3f3"/>
<circle cx="318.5" cy="319.5" r="1.5" fill="#f3f3f3"/>
<circle cx="318.5" cy="6.5" r="1.5" fill="#f3f3f3"/>
<circle cx="318.5" cy="102.5" r="1.5" fill="#f3f3f3"/>
<circle cx="318.5" cy="199.5" r="1.5" fill="#f3f3f3"/>
<circle cx="318.5" cy="295.5" r="1.5" fill="#f3f3f3"/>
<circle cx="318.5" cy="55.5" r="1.5" fill="#f3f3f3"/>
<circle cx="318.5" cy="151.5" r="1.5" fill="#f3f3f3"/>
<circle cx="318.5" cy="247.5" r="1.5" fill="#f3f3f3"/>
<circle cx="463.5" cy="175.5" r="1.5" fill="#f3f3f3"/>
<circle cx="463.5" cy="271.5" r="1.5" fill="#f3f3f3"/>
<circle cx="463.5" cy="319.5" r="1.5" fill="#f3f3f3"/>
<circle cx="463.5" cy="6.5" r="1.5" fill="#f3f3f3"/>
<circle cx="463.5" cy="295.5" r="1.5" fill="#f3f3f3"/>
<circle cx="222.5" cy="78.5" r="1.5" fill="#f3f3f3"/>
<circle cx="222.5" cy="175.5" r="1.5" fill="#f3f3f3"/>
<circle cx="222.5" cy="271.5" r="1.5" fill="#f3f3f3"/>
<circle cx="222.5" cy="30.5" r="1.5" fill="#f3f3f3"/>
<circle cx="222.5" cy="126.5" r="1.5" fill="#f3f3f3"/>
<circle cx="222.5" cy="222.5" r="1.5" fill="#f3f3f3"/>
<circle cx="222.5" cy="319.5" r="1.5" fill="#f3f3f3"/>
<circle cx="222.5" cy="6.5" r="1.5" fill="#f3f3f3"/>
<circle cx="222.5" cy="102.5" r="1.5" fill="#f3f3f3"/>
<circle cx="222.5" cy="199.5" r="1.5" fill="#f3f3f3"/>
<circle cx="222.5" cy="295.5" r="1.5" fill="#f3f3f3"/>
<circle cx="222.5" cy="55.5" r="1.5" fill="#f3f3f3"/>
<circle cx="222.5" cy="151.5" r="1.5" fill="#f3f3f3"/>
<circle cx="222.5" cy="247.5" r="1.5" fill="#f3f3f3"/>
<circle cx="101.5" cy="78.5" r="1.5" fill="#f3f3f3"/>
<circle cx="101.5" cy="175.5" r="1.5" fill="#f3f3f3"/>
<circle cx="101.5" cy="271.5" r="1.5" fill="#f3f3f3"/>
<circle cx="101.5" cy="30.5" r="1.5" fill="#f3f3f3"/>
<circle cx="101.5" cy="126.5" r="1.5" fill="#f3f3f3"/>
<circle cx="101.5" cy="222.5" r="1.5" fill="#f3f3f3"/>
<circle cx="101.5" cy="319.5" r="1.5" fill="#f3f3f3"/>
<circle cx="101.5" cy="6.5" r="1.5" fill="#f3f3f3"/>
<circle cx="101.5" cy="102.5" r="1.5" fill="#f3f3f3"/>
<circle cx="101.5" cy="199.5" r="1.5" fill="#f3f3f3"/>
<circle cx="101.5" cy="295.5" r="1.5" fill="#f3f3f3"/>
<circle cx="101.5" cy="55.5" r="1.5" fill="#f3f3f3"/>
<circle cx="101.5" cy="151.5" r="1.5" fill="#f3f3f3"/>
<circle cx="101.5" cy="247.5" r="1.5" fill="#f3f3f3"/>
<circle cx="583.5" cy="6.5" r="1.5" fill="#f3f3f3"/>
<circle cx="343.5" cy="78.5" r="1.5" fill="#f3f3f3"/>
<circle cx="343.5" cy="175.5" r="1.5" fill="#f3f3f3"/>
<circle cx="343.5" cy="271.5" r="1.5" fill="#f3f3f3"/>
<circle cx="343.5" cy="30.5" r="1.5" fill="#f3f3f3"/>
<circle cx="343.5" cy="126.5" r="1.5" fill="#f3f3f3"/>
<circle cx="343.5" cy="222.5" r="1.5" fill="#f3f3f3"/>
<circle cx="343.5" cy="319.5" r="1.5" fill="#f3f3f3"/>
<circle cx="343.5" cy="6.5" r="1.5" fill="#f3f3f3"/>
<circle cx="343.5" cy="102.5" r="1.5" fill="#f3f3f3"/>
<circle cx="343.5" cy="199.5" r="1.5" fill="#f3f3f3"/>
<circle cx="343.5" cy="295.5" r="1.5" fill="#f3f3f3"/>
<circle cx="343.5" cy="55.5" r="1.5" fill="#f3f3f3"/>
<circle cx="343.5" cy="151.5" r="1.5" fill="#f3f3f3"/>
<circle cx="343.5" cy="247.5" r="1.5" fill="#f3f3f3"/>
</svg>
