<svg width="256" height="256" viewBox="0 0 256 256" fill="none" xmlns="http://www.w3.org/2000/svg">
<rect width="256" height="256" rx="56" fill="white"/>
<path fill-rule="evenodd" clip-rule="evenodd" d="M162.482 128C162.482 147.33 146.895 163 127.667 163C108.439 163 92.852 147.33 92.852 128C92.852 108.67 108.439 93 127.667 93C146.895 93 162.482 108.67 162.482 128ZM148.556 128C148.556 139.598 139.204 149 127.667 149C116.13 149 106.778 139.598 106.778 128C106.778 116.402 116.13 107 127.667 107C139.204 107 148.556 116.402 148.556 128Z" fill="url(#paint0_linear_18162_48455)"/>
<path fill-rule="evenodd" clip-rule="evenodd" d="M65 128C65 162.794 93.057 191 127.667 191H199.444L213.37 177H167.059C170.14 174.494 172.98 171.7 175.538 168.659H221.668L236 154.25H184.652C188.3 146.259 190.334 137.368 190.334 128C190.334 93.2061 162.277 65 127.667 65C93.057 65 65 93.2061 65 128ZM127.667 177C154.586 177 176.408 155.062 176.408 128C176.408 100.938 154.586 79 127.667 79C100.748 79 78.926 100.938 78.926 128C78.926 155.062 100.748 177 127.667 177Z" fill="url(#paint1_linear_18162_48455)"/>
<defs>
<linearGradient id="paint0_linear_18162_48455" x1="65" y1="65" x2="185.345" y2="228.325" gradientUnits="userSpaceOnUse">
<stop stop-color="#0083C7"/>
<stop offset="1" stop-color="#00AA5B"/>
</linearGradient>
<linearGradient id="paint1_linear_18162_48455" x1="65" y1="65" x2="185.345" y2="228.325" gradientUnits="userSpaceOnUse">
<stop stop-color="#0083C7"/>
<stop offset="1" stop-color="#00AA5B"/>
</linearGradient>
</defs>
</svg>
