<svg width="40" height="40" viewBox="0 0 40 40" fill="none" xmlns="http://www.w3.org/2000/svg">
<g clip-path="url(#clip0)">
<rect width="40" height="40" rx="6" fill="#0083C7"/>
<path d="M28.9539 13.2269C28.7698 12.7282 28.4763 12.2769 28.0948 11.9064C27.7243 11.5249 27.2733 11.2313 26.7743 11.0473C26.3696 10.8901 25.7617 10.7031 24.642 10.6521C23.4308 10.5969 23.0676 10.585 20.0012 10.585C16.9345 10.585 16.5714 10.5966 15.3604 10.6518C14.2407 10.7031 13.6325 10.8901 13.2281 11.0473C12.7292 11.2313 12.2778 11.5249 11.9077 11.9064C11.5262 12.2769 11.2326 12.7279 11.0483 13.2269C10.8911 13.6315 10.704 14.2397 10.6531 15.3594C10.5978 16.5704 10.5859 16.9335 10.5859 20.0002C10.5859 23.0667 10.5978 23.4298 10.6531 24.6411C10.704 25.7607 10.8911 26.3687 11.0483 26.7733C11.2326 27.2723 11.5259 27.7233 11.9073 28.0938C12.2778 28.4753 12.7289 28.7689 13.2278 28.9529C13.6325 29.1104 14.2407 29.2974 15.3604 29.3484C16.5714 29.4036 16.9342 29.4152 20.0009 29.4152C23.0679 29.4152 23.4311 29.4036 24.6417 29.3484C25.7614 29.2974 26.3696 29.1104 26.7743 28.9529C27.7759 28.5665 28.5675 27.7749 28.9539 26.7733C29.111 26.3687 29.2981 25.7607 29.3494 24.6411C29.4046 23.4298 29.4162 23.0667 29.4162 20.0002C29.4162 16.9335 29.4046 16.5704 29.3494 15.3594C29.2984 14.2397 29.1113 13.6315 28.9539 13.2269ZM20.0012 25.8972C16.7441 25.8972 14.1037 23.2571 14.1037 19.9999C14.1037 16.7428 16.7441 14.1027 20.0012 14.1027C23.2581 14.1027 25.8984 16.7428 25.8984 19.9999C25.8984 23.2571 23.2581 25.8972 20.0012 25.8972ZM26.1316 15.2477C25.3705 15.2477 24.7534 14.6307 24.7534 13.8696C24.7534 13.1085 25.3705 12.4914 26.1316 12.4914C26.8927 12.4914 27.5098 13.1085 27.5098 13.8696C27.5095 14.6307 26.8927 15.2477 26.1316 15.2477Z" fill="#F7F8FA"/>
<path d="M23.8281 20C23.8281 22.1143 22.1143 23.8281 20 23.8281C17.8857 23.8281 16.1719 22.1143 16.1719 20C16.1719 17.8857 17.8857 16.1719 20 16.1719C22.1143 16.1719 23.8281 17.8857 23.8281 20Z" fill="#F7F8FA"/>
<path d="M37.1152 0H2.88483C1.2915 0 0 1.2915 0 2.88483V37.1152C0 38.7085 1.2915 40 2.88483 40H37.1152C38.7085 40 40 38.7085 40 37.1152V2.88483C40 1.2915 38.7085 0 37.1152 0ZM31.4151 24.7348C31.3596 25.9573 31.1652 26.792 30.8813 27.5226C30.2847 29.0652 29.0652 30.2847 27.5226 30.8813C26.7923 31.1652 25.9573 31.3593 24.7351 31.4151C23.5104 31.4709 23.1192 31.4844 20.0003 31.4844C16.8811 31.4844 16.4902 31.4709 15.2652 31.4151C14.043 31.3593 13.208 31.1652 12.4777 30.8813C11.7111 30.593 11.0172 30.141 10.4434 29.5566C9.85931 28.9832 9.40735 28.2889 9.11896 27.5226C8.83514 26.7923 8.64075 25.9573 8.58521 24.7351C8.52875 23.5101 8.51562 23.1189 8.51562 20C8.51562 16.8811 8.52875 16.4899 8.5849 15.2652C8.64044 14.0427 8.83453 13.208 9.11835 12.4774C9.40674 11.7111 9.85901 11.0168 10.4434 10.4434C11.0168 9.85901 11.7111 9.40704 12.4774 9.11865C13.208 8.83484 14.0427 8.64075 15.2652 8.5849C16.4899 8.52905 16.8811 8.51562 20 8.51562C23.1189 8.51562 23.5101 8.52905 24.7348 8.58521C25.9573 8.64075 26.792 8.83484 27.5226 9.11835C28.2889 9.40674 28.9832 9.85901 29.5569 10.4434C30.141 11.0172 30.5933 11.7111 30.8813 12.4774C31.1655 13.208 31.3596 14.0427 31.4154 15.2652C31.4713 16.4899 31.4844 16.8811 31.4844 20C31.4844 23.1189 31.4713 23.5101 31.4151 24.7348Z" fill="#F7F8FA"/>
</g>
<defs>
<clipPath id="clip0">
<rect width="40" height="40" rx="6" fill="white"/>
</clipPath>
</defs>
</svg>
