<svg width="40" height="40" viewBox="0 0 40 40" fill="none" xmlns="http://www.w3.org/2000/svg">
<g clip-path="url(#clip0)">
<rect width="40" height="40" rx="3" fill="white"/>
<path d="M2.88483 0H37.1152C38.7085 0 40 1.2915 40 2.88483V37.1152C40 38.7085 38.7085 40 37.1152 40H2.88483C1.2915 40 0 38.7085 0 37.1152V2.88483C0 1.2915 1.2915 0 2.88483 0Z" fill="#0083C7"/>
<path d="M16.9493 21.6508V33.125H22.4281V21.6525H26.5109L27.2878 16.9062H22.4281V13.8229C22.3593 13.1053 22.6424 12.3973 23.1976 11.8983C23.7528 11.3993 24.5201 11.1633 25.2832 11.2569H27.5V7.21983C26.2008 7.02112 24.8878 6.91138 23.5716 6.89148C21.7377 6.7618 19.9373 7.40251 18.6586 8.63983C17.3799 9.87715 16.7554 11.5828 16.9546 13.2943V16.9062H12.5V21.6508H16.9493Z" fill="white"/>
</g>
<defs>
<clipPath id="clip0">
<rect width="40" height="40" rx="3" fill="white"/>
</clipPath>
</defs>
</svg>
