<svg width="40" height="40" viewBox="0 0 40 40" fill="none" xmlns="http://www.w3.org/2000/svg">
<g clip-path="url(#clip0)">
<rect width="40" height="40" rx="6" fill="#0083C7"/>
<path d="M37.1152 0H2.88483C1.2915 0 0 1.2915 0 2.88483V37.1152C0 38.7085 1.2915 40 2.88483 40H37.1152C38.7085 40 40 38.7085 40 37.1152V2.88483C40 1.2915 38.7085 0 37.1152 0V0ZM14.1882 30.2344H9.31732V15.5801H14.1882V30.2344ZM11.7529 13.5791H11.7212C10.0867 13.5791 9.02954 12.4539 9.02954 11.0477C9.02954 9.60968 10.119 8.51562 11.7853 8.51562C13.4515 8.51562 14.4769 9.60968 14.5087 11.0477C14.5087 12.4539 13.4515 13.5791 11.7529 13.5791ZM31.7517 30.2344H26.8814V22.3947C26.8814 20.4245 26.1761 19.0808 24.4138 19.0808C23.0682 19.0808 22.2668 19.9872 21.9147 20.8621C21.7859 21.1752 21.7545 21.6129 21.7545 22.0508V30.2344H16.8839C16.8839 30.2344 16.9476 16.955 16.8839 15.5801H21.7545V17.655C22.4017 16.6565 23.5599 15.2362 26.1441 15.2362C29.3488 15.2362 31.7517 17.3306 31.7517 21.8317V30.2344Z" fill="#F7F8FA"/>
</g>
<defs>
<clipPath id="clip0">
<rect width="40" height="40" rx="6" fill="white"/>
</clipPath>
</defs>
</svg>
