<svg width="40" height="40" viewBox="0 0 40 40" fill="none" xmlns="http://www.w3.org/2000/svg">
<g clip-path="url(#clip0)">
<rect width="40" height="40" rx="6" fill="#0083C7"/>
<path d="M37.1152 0H2.88483C1.2915 0 0 1.2915 0 2.88483V37.1152C0 38.7085 1.2915 40 2.88483 40H37.1152C38.7085 40 40 38.7085 40 37.1152V2.88483C40 1.2915 38.7085 0 37.1152 0V0ZM29.1318 15.5939C29.1406 15.7907 29.1449 15.9885 29.1449 16.1871C29.1449 22.2531 24.5276 29.248 16.0837 29.2484H16.084H16.0837C13.4912 29.2484 11.0788 28.4885 9.04724 27.1863C9.40643 27.2287 9.77203 27.2498 10.1422 27.2498C12.2931 27.2498 14.2725 26.5161 15.8438 25.2847C13.8342 25.2475 12.1399 23.9203 11.5552 22.0963C11.835 22.15 12.1228 22.1793 12.4179 22.1793C12.8369 22.1793 13.2428 22.1228 13.6285 22.0175C11.528 21.597 9.94568 19.7406 9.94568 17.5177C9.94568 17.4969 9.94568 17.4783 9.94629 17.4591C10.5649 17.803 11.2723 18.0099 12.0255 18.0331C10.7928 17.2107 9.9826 15.8047 9.9826 14.212C9.9826 13.371 10.21 12.583 10.6042 11.9046C12.868 14.6823 16.2512 16.5091 20.0665 16.701C19.9878 16.3647 19.9472 16.0144 19.9472 15.6543C19.9472 13.1201 22.0032 11.0641 24.5383 11.0641C25.8588 11.0641 27.0514 11.6223 27.8891 12.5146C28.9349 12.3083 29.917 11.9263 30.8041 11.4005C30.4608 12.4719 29.7333 13.371 28.7854 13.9395C29.7141 13.8284 30.5991 13.5822 31.4215 13.2166C30.8072 14.1373 30.0281 14.946 29.1318 15.5939Z" fill="#F7F8FA"/>
</g>
<defs>
<clipPath id="clip0">
<rect width="40" height="40" rx="6" fill="white"/>
</clipPath>
</defs>
</svg>
