<svg width="40" height="40" viewBox="0 0 40 40" fill="none" xmlns="http://www.w3.org/2000/svg">
<g clip-path="url(#clip0)">
<rect width="40" height="40" rx="3" fill="white"/>
<path d="M17.5001 22.084C17.5001 20.936 16.5641 20 15.4161 20C14.2683 20 13.332 20.936 13.332 22.084C13.332 23.2318 14.2683 24.1681 15.4161 24.1681C16.5641 24.1681 17.5001 23.2321 17.5001 22.084Z" fill="#0083C7"/>
<path d="M24.1883 26.8241C23.2923 27.7201 21.3725 28.0399 20.0043 28.0399C18.6323 28.0399 16.7164 27.7201 15.8204 26.8241C15.6083 26.612 15.2683 26.612 15.0565 26.8241C14.8444 27.0362 14.8444 27.3762 15.0565 27.588C16.4765 29.0079 19.2045 29.1199 20.0043 29.1199C20.8042 29.1199 23.5282 29.0079 24.9525 27.588C25.1603 27.3759 25.1603 27.0359 24.9525 26.8241C24.7404 26.612 24.4004 26.612 24.1883 26.8241Z" fill="#0083C7"/>
<path d="M24.584 20C23.436 20 22.5 20.936 22.5 22.084C22.5 23.2318 23.436 24.1681 24.584 24.1681C25.7318 24.1681 26.6681 23.2318 26.6681 22.084C26.6681 20.936 25.7321 20 24.584 20Z" fill="#0083C7"/>
<path d="M37.1152 0H2.88483C1.2915 0 0 1.2915 0 2.88483V37.1152C0 38.7085 1.2915 40 2.88483 40H37.1152C38.7085 40 40 38.7085 40 37.1152V2.88483C40 1.2915 38.7085 0 37.1152 0V0ZM31.604 22.6678C31.6479 22.9559 31.6721 23.248 31.6721 23.544C31.6721 28.0319 26.4481 31.6681 20.004 31.6681C13.5599 31.6681 8.33588 28.0319 8.33588 23.544C8.33588 23.244 8.35999 22.948 8.40393 22.6599C7.388 22.204 6.67999 21.1841 6.67999 20C6.67999 18.392 7.98401 17.084 9.59595 17.084C10.3799 17.084 11.088 17.392 11.6119 17.8961C13.6359 16.4362 16.4362 15.5038 19.552 15.4239C19.552 15.3839 21.008 8.44788 21.008 8.44788C21.0361 8.31207 21.116 8.1958 21.232 8.12012C21.348 8.04413 21.488 8.02002 21.6241 8.0481L26.4722 9.0799C26.8121 8.39203 27.5119 7.91595 28.3319 7.91595C29.4839 7.91595 30.416 8.84796 30.416 10C30.416 11.152 29.4839 12.084 28.3319 12.084C27.2159 12.084 26.312 11.2039 26.2601 10.1001L21.9199 9.17603L20.592 15.4282C23.652 15.5359 26.4001 16.4639 28.392 17.9041C28.916 17.3962 29.628 17.084 30.416 17.084C32.0282 17.084 33.3319 18.3881 33.3319 20C33.3319 21.192 32.616 22.2119 31.604 22.6678Z" fill="#0083C7"/>
</g>
<defs>
<clipPath id="clip0">
<rect width="40" height="40" rx="3" fill="white"/>
</clipPath>
</defs>
</svg>
