<svg width="25" height="24" viewBox="0 0 25 24" fill="none" xmlns="http://www.w3.org/2000/svg">
<path d="M22.3302 17.924C21.9842 18.7051 21.5568 19.45 21.0545 20.147C20.3835 21.0751 19.8325 21.7165 19.4102 22.0735C18.7542 22.6567 18.0496 22.9568 17.2961 22.9738C16.7564 22.9738 16.1042 22.8249 15.3445 22.5224C14.5823 22.2211 13.8826 22.0735 13.2417 22.0735C12.5707 22.0735 11.851 22.2211 11.0801 22.5224C10.3104 22.8249 9.68822 22.9834 9.21217 22.998C8.49124 23.0282 7.7703 22.7209 7.05187 22.0735C6.59332 21.6862 6.01982 21.0207 5.33137 20.0792C4.59419 19.076 3.98821 17.9083 3.51342 16.5808C3.00489 15.1444 2.75 13.7552 2.75 12.4096C2.75 10.8691 3.0936 9.53923 3.78205 8.42593C4.30276 7.55159 5.04718 6.82187 5.9436 6.30705C6.82755 5.79356 7.83663 5.51708 8.86732 5.50596C9.44207 5.50596 10.1955 5.67779 11.1288 6.01662C12.0622 6.35545 12.6619 6.52728 12.923 6.52728C13.1205 6.52728 13.7839 6.3252 14.9134 5.92465C15.9792 5.55315 16.8788 5.39947 17.616 5.45998C19.6151 5.61608 21.1157 6.37844 22.114 7.75312C20.3273 8.80227 19.4439 10.2701 19.4614 12.1543C19.4764 13.6221 20.0274 14.8431 21.107 15.8124C21.5842 16.2547 22.1411 16.6087 22.75 16.8567C22.6176 17.2282 22.4776 17.5828 22.3302 17.924ZM17.7484 0.461049C17.7484 1.61064 17.3136 2.68521 16.4503 3.67871C15.4057 4.85977 14.1438 5.54347 12.7756 5.43577C12.7577 5.29121 12.749 5.14573 12.7494 5.00014C12.7494 3.89531 13.2442 2.71426 14.1275 1.74739C14.5673 1.25851 15.1271 0.850701 15.8055 0.526394C16.4827 0.206927 17.1225 0.0302525 17.7247 0C17.7409 0.154893 17.7484 0.308576 17.7484 0.461049Z" fill="white"/>
</svg>
