<svg xmlns="http://www.w3.org/2000/svg" width="24" height="24" viewBox="0 0 24 24" fill="none">
  <path d="M21.2674 20.9991H2.73435C2.37709 20.9991 2.04697 20.8085 1.86834 20.4991C1.68972 20.1897 1.68972 19.8085 1.86835 19.4991L11.1343 3.49909C11.3131 3.1902 11.643 3 11.9998 3C12.3567 3 12.6866 3.1902 12.8653 3.49909L22.1313 19.4991C22.3099 19.8083 22.31 20.1893 22.1316 20.4986C21.9532 20.808 21.6234 20.9987 21.2663 20.9991H21.2674ZM12.0013 5.99909L4.47035 18.9991H19.5344L12.0013 5.99909ZM12.9963 15.0001H10.9963V9.99909H12.9963V15.0001Z" fill="#0083C7"/>
  <path d="M11.0013 16.0011H13.0013V18.0011H11.0013V16.0011Z" fill="#0083C7"/>
</svg>