<svg width="30" height="30" viewBox="0 0 30 30" fill="none" xmlns="http://www.w3.org/2000/svg">
<path d="M0 15C0 6.71573 6.71573 0 15 0C23.2843 0 30 6.71573 30 15C30 23.2843 23.2843 30 15 30C6.71573 30 0 23.2843 0 15Z" fill="#FFC500"/>
<path d="M11.116 13.404L15 9.52L18.886 13.406L21.146 11.146L15 5L8.856 11.144L11.116 13.404Z" fill="#272626"/>
<path d="M17.292 14.998H17.293L15 12.706L13.305 14.4L13.11 14.595L12.709 14.997L12.705 15L12.709 15.003L14.999 17.294L17.293 15.001L17.294 15L17.292 14.999V14.998Z" fill="#272626"/>
<path d="M11.116 16.596L8.853 18.853L8.856 18.856L15 25L21.146 18.854V18.853L18.886 16.593L15 20.48L11.116 16.596Z" fill="#272626"/>
<path d="M5 15L7.26 17.26L9.52 15L7.26 12.74L5 15Z" fill="#272626"/>
<path d="M20.48 15L22.74 17.26L25 15L22.74 12.74L20.48 15Z" fill="#272626"/>
</svg>
