<svg width="341" height="200" viewBox="0 0 341 200" fill="none" xmlns="http://www.w3.org/2000/svg">
<g opacity="0.2">
<rect x="53.707" y="11.8333" width="287.056" height="165.155" rx="9" fill="url(#paint0_linear)"/>
<rect x="76.9141" y="119.932" width="129.481" height="6.55379" rx="3.27689" fill="#0A5D9A"/>
<rect x="244.266" y="119.932" width="73.2909" height="41.9442" rx="4" fill="#0A5D9A"/>
<rect x="76.9141" y="131.729" width="112.379" height="6.55379" rx="3.27689" fill="#0A5D9A"/>
<rect x="76.9141" y="143.526" width="112.379" height="6.55379" rx="3.27689" fill="#0A5D9A"/>
<rect x="76.9141" y="155.323" width="112.379" height="6.55379" rx="3.27689" fill="#0A5D9A"/>
</g>
<g filter="url(#filter0_d)">
<rect x="6" y="43.4264" width="287.056" height="165.155" rx="9" fill="url(#paint1_linear)"/>
<rect x="6" y="70.9523" width="287.056" height="40.6335" fill="url(#paint2_linear)"/>
<rect x="29.207" y="143.044" width="129.481" height="6.55379" rx="3.27689" fill="#0A5D9A"/>
<rect x="196.559" y="143.044" width="73.2909" height="41.9442" rx="4" fill="#0A5D9A"/>
<rect x="29.207" y="154.841" width="112.379" height="6.55379" rx="3.27689" fill="#0A5D9A"/>
<rect x="29.207" y="166.638" width="112.379" height="6.55379" rx="3.27689" fill="#0A5D9A"/>
<rect x="29.207" y="178.434" width="112.379" height="6.55379" rx="3.27689" fill="#0A5D9A"/>
</g>
<g filter="url(#filter1_d)">
<circle cx="260.719" cy="64.1312" r="57.281" fill="url(#paint3_radial)"/>
</g>
<path d="M233.156 46.5836C233.156 43.1329 234.337 40.3096 236.698 38.1137C239.059 35.8917 242.156 34.7806 245.989 34.7806C249.878 34.7806 252.989 35.8917 255.322 38.1137C257.683 40.3096 258.863 43.1983 258.863 46.7797V49.603C258.863 53.0275 257.683 55.8378 255.322 58.0337C252.989 60.2296 249.905 61.3275 246.072 61.3275C242.322 61.3275 239.225 60.2557 236.781 58.1121C234.365 55.9424 233.156 53.0275 233.156 49.3677V46.5836ZM240.239 49.603C240.239 51.4068 240.767 52.8707 241.822 53.9948C242.906 55.0927 244.322 55.6417 246.072 55.6417C247.794 55.6417 249.183 55.0927 250.239 53.9948C251.294 52.8707 251.822 51.3545 251.822 49.4461V46.5836C251.822 44.7798 251.28 43.3159 250.197 42.1918C249.142 41.0677 247.739 40.5057 245.989 40.5057C244.239 40.5057 242.836 41.0808 241.781 42.231C240.753 43.3551 240.239 44.8452 240.239 46.7013V49.603ZM262.322 78.6987C262.322 75.1957 263.53 72.3593 265.946 70.1896C268.363 68.0198 271.446 66.9349 275.196 66.9349C278.973 66.9349 282.057 68.0198 284.445 70.1896C286.862 72.3593 288.07 75.2872 288.07 78.9732V81.7573C288.07 85.1557 286.904 87.9659 284.57 90.188C282.265 92.3839 279.168 93.4818 275.279 93.4818C271.391 93.4818 268.252 92.397 265.863 90.2272C263.502 88.0313 262.322 85.1426 262.322 81.5612V78.6987ZM269.405 81.7573C269.405 83.5349 269.946 84.9989 271.029 86.1491C272.14 87.2732 273.557 87.8352 275.279 87.8352C277.057 87.8352 278.446 87.2993 279.446 86.2275C280.473 85.1296 280.987 83.6003 280.987 81.6396V78.6987C280.987 76.8688 280.446 75.4048 279.362 74.3069C278.279 73.2089 276.89 72.66 275.196 72.66C273.474 72.66 272.071 73.2089 270.988 74.3069C269.932 75.4048 269.405 76.9211 269.405 78.8556V81.7573ZM248.156 88.4234L242.947 85.6001L242.659 85.0008L272.571 40.9762L277.488 43.4736L277.779 43.7995L248.156 88.4234Z" fill="#738CAF"/>
<path d="M232.789 46.1102C232.789 42.6595 233.97 39.8362 236.331 37.6403C238.692 35.4183 241.789 34.3073 245.622 34.3073C249.51 34.3073 252.621 35.4183 254.955 37.6403C257.316 39.8362 258.496 42.7249 258.496 46.3063V49.1296C258.496 52.5542 257.316 55.3644 254.955 57.5603C252.621 59.7562 249.538 60.8542 245.705 60.8542C241.955 60.8542 238.858 59.7823 236.414 57.6387C233.997 55.469 232.789 52.5542 232.789 48.8943V46.1102ZM239.872 49.1296C239.872 50.9334 240.4 52.3973 241.455 53.5214C242.539 54.6194 243.955 55.1683 245.705 55.1683C247.427 55.1683 248.816 54.6194 249.872 53.5214C250.927 52.3973 251.455 50.8811 251.455 48.9727V46.1102C251.455 44.3065 250.913 42.8425 249.83 41.7184C248.774 40.5943 247.372 40.0323 245.622 40.0323C243.872 40.0323 242.469 40.6074 241.414 41.7576C240.386 42.8817 239.872 44.3718 239.872 46.2279V49.1296ZM261.954 78.2253C261.954 74.7223 263.163 71.8859 265.579 69.7162C267.996 67.5464 271.079 66.4615 274.829 66.4615C278.606 66.4615 281.689 67.5464 284.078 69.7162C286.495 71.8859 287.703 74.8138 287.703 78.4998V81.2839C287.703 84.6823 286.536 87.4925 284.203 89.7146C281.898 91.9105 278.801 93.0084 274.912 93.0084C271.023 93.0084 267.885 91.9236 265.496 89.7538C263.135 87.5579 261.954 84.6692 261.954 81.0878V78.2253ZM269.037 81.2839C269.037 83.0615 269.579 84.5255 270.662 85.6757C271.773 86.7998 273.19 87.3618 274.912 87.3618C276.69 87.3618 278.079 86.8259 279.078 85.7541C280.106 84.6562 280.62 83.1269 280.62 81.1663V78.2253C280.62 76.3954 280.078 74.9315 278.995 73.8335C277.912 72.7356 276.523 72.1866 274.829 72.1866C273.107 72.1866 271.704 72.7356 270.621 73.8335C269.565 74.9315 269.037 76.4477 269.037 78.3822V81.2839ZM247.788 87.95L242.58 85.1267L272.204 40.5028L277.412 43.3261L247.788 87.95Z" fill="#99AFCD"/>
<defs>
<filter id="filter0_d" x="0" y="41.4264" width="299.056" height="177.155" filterUnits="userSpaceOnUse" color-interpolation-filters="sRGB">
<feFlood flood-opacity="0" result="BackgroundImageFix"/>
<feColorMatrix in="SourceAlpha" type="matrix" values="0 0 0 0 0 0 0 0 0 0 0 0 0 0 0 0 0 0 127 0"/>
<feOffset dy="4"/>
<feGaussianBlur stdDeviation="3"/>
<feColorMatrix type="matrix" values="0 0 0 0 0 0 0 0 0 0 0 0 0 0 0 0 0 0 0.19 0"/>
<feBlend mode="normal" in2="BackgroundImageFix" result="effect1_dropShadow"/>
<feBlend mode="normal" in="SourceGraphic" in2="effect1_dropShadow" result="shape"/>
</filter>
<filter id="filter1_d" x="195.438" y="0.85022" width="134.562" height="134.562" filterUnits="userSpaceOnUse" color-interpolation-filters="sRGB">
<feFlood flood-opacity="0" result="BackgroundImageFix"/>
<feColorMatrix in="SourceAlpha" type="matrix" values="0 0 0 0 0 0 0 0 0 0 0 0 0 0 0 0 0 0 127 0"/>
<feOffset dx="2" dy="4"/>
<feGaussianBlur stdDeviation="5"/>
<feColorMatrix type="matrix" values="0 0 0 0 0 0 0 0 0 0 0 0 0 0 0 0 0 0 0.09 0"/>
<feBlend mode="normal" in2="BackgroundImageFix" result="effect1_dropShadow"/>
<feBlend mode="normal" in="SourceGraphic" in2="effect1_dropShadow" result="shape"/>
</filter>
<linearGradient id="paint0_linear" x1="-18.3623" y1="-8.48349" x2="202.99" y2="582.75" gradientUnits="userSpaceOnUse">
<stop stop-color="#0083C7"/>
<stop offset="1" stop-color="#103D7C"/>
</linearGradient>
<linearGradient id="paint1_linear" x1="-66.0693" y1="23.1096" x2="155.283" y2="614.343" gradientUnits="userSpaceOnUse">
<stop stop-color="#0083C7"/>
<stop offset="1" stop-color="#103D7C"/>
</linearGradient>
<linearGradient id="paint2_linear" x1="293.056" y1="111.586" x2="4.5952" y2="88.5229" gradientUnits="userSpaceOnUse">
<stop stop-color="#383838"/>
<stop offset="1" stop-color="#464646"/>
</linearGradient>
<radialGradient id="paint3_radial" cx="0" cy="0" r="1" gradientUnits="userSpaceOnUse" gradientTransform="translate(214.084 31.864) rotate(42.2428) scale(111.587)">
<stop stop-color="white"/>
<stop offset="1" stop-color="#F8F8F8"/>
</radialGradient>
</defs>
</svg>
