<svg width="1180" height="360" viewBox="0 0 1180 360" fill="none" xmlns="http://www.w3.org/2000/svg">
<rect width="1180" height="360" fill="white"/>
<path d="M50.6335 320.818H49.4006L46.8551 322.509V323.761L49.3409 322.111H49.4006V331H50.6335V320.818ZM53.5618 331H59.9851V329.906H55.2521V329.827L57.5391 327.381C59.2891 325.506 59.8061 324.631 59.8061 323.503C59.8061 321.932 58.5334 320.679 56.7436 320.679C54.9588 320.679 53.6016 321.892 53.6016 323.682H54.7749C54.7749 322.523 55.5256 321.753 56.7038 321.753C57.8075 321.753 58.6527 322.429 58.6527 323.503C58.6527 324.442 58.1009 325.138 56.9226 326.426L53.5618 330.105V331Z" fill="#8D96A2"/>
<path d="M176.634 320.818H175.401L172.855 322.509V323.761L175.341 322.111H175.401V331H176.634V320.818ZM183.002 331.139C184.976 331.139 186.442 329.901 186.442 328.236C186.442 326.943 185.677 326.004 184.394 325.79V325.71C185.423 325.397 186.065 324.552 186.065 323.403C186.065 321.962 184.926 320.679 183.042 320.679C181.282 320.679 179.82 321.763 179.761 323.364H180.954C180.999 322.349 181.963 321.753 183.022 321.753C184.146 321.753 184.871 322.434 184.871 323.463C184.871 324.537 184.031 325.233 182.823 325.233H182.008V326.327H182.823C184.369 326.327 185.229 327.112 185.229 328.236C185.229 329.315 184.29 330.045 182.982 330.045C181.804 330.045 180.869 329.439 180.795 328.455H179.542C179.616 330.055 181.028 331.139 183.002 331.139Z" fill="#8D96A2"/>
<path d="M303.634 320.818H302.401L299.855 322.509V323.761L302.341 322.111H302.401V331H303.634V320.818ZM306.562 331H312.985V329.906H308.252V329.827L310.539 327.381C312.289 325.506 312.806 324.631 312.806 323.503C312.806 321.932 311.533 320.679 309.744 320.679C307.959 320.679 306.602 321.892 306.602 323.682H307.775C307.775 322.523 308.526 321.753 309.704 321.753C310.808 321.753 311.653 322.429 311.653 323.503C311.653 324.442 311.101 325.138 309.923 326.426L306.562 330.105V331Z" fill="#8D96A2"/>
<path d="M429.634 320.818H428.401L425.855 322.509V323.761L428.341 322.111H428.401V331H429.634V320.818ZM436.002 331.139C437.976 331.139 439.442 329.901 439.442 328.236C439.442 326.943 438.677 326.004 437.394 325.79V325.71C438.423 325.397 439.065 324.552 439.065 323.403C439.065 321.962 437.926 320.679 436.042 320.679C434.282 320.679 432.82 321.763 432.761 323.364H433.954C433.999 322.349 434.963 321.753 436.022 321.753C437.146 321.753 437.871 322.434 437.871 323.463C437.871 324.537 437.031 325.233 435.823 325.233H435.008V326.327H435.823C437.369 326.327 438.229 327.112 438.229 328.236C438.229 329.315 437.29 330.045 435.982 330.045C434.804 330.045 433.869 329.439 433.795 328.455H432.542C432.616 330.055 434.028 331.139 436.002 331.139Z" fill="#8D96A2"/>
<path d="M556.634 320.818H555.401L552.855 322.509V323.761L555.341 322.111H555.401V331H556.634V320.818ZM559.562 331H565.985V329.906H561.252V329.827L563.539 327.381C565.289 325.506 565.806 324.631 565.806 323.503C565.806 321.932 564.533 320.679 562.744 320.679C560.959 320.679 559.602 321.892 559.602 323.682H560.775C560.775 322.523 561.526 321.753 562.704 321.753C563.808 321.753 564.653 322.429 564.653 323.503C564.653 324.442 564.101 325.138 562.923 326.426L559.562 330.105V331Z" fill="#8D96A2"/>
<path d="M682.634 320.818H681.401L678.855 322.509V323.761L681.341 322.111H681.401V331H682.634V320.818ZM689.002 331.139C690.976 331.139 692.442 329.901 692.442 328.236C692.442 326.943 691.677 326.004 690.394 325.79V325.71C691.423 325.397 692.065 324.552 692.065 323.403C692.065 321.962 690.926 320.679 689.042 320.679C687.282 320.679 685.82 321.763 685.761 323.364H686.954C686.999 322.349 687.963 321.753 689.022 321.753C690.146 321.753 690.871 322.434 690.871 323.463C690.871 324.537 690.031 325.233 688.823 325.233H688.008V326.327H688.823C690.369 326.327 691.229 327.112 691.229 328.236C691.229 329.315 690.29 330.045 688.982 330.045C687.804 330.045 686.869 329.439 686.795 328.455H685.542C685.616 330.055 687.028 331.139 689.002 331.139Z" fill="#8D96A2"/>
<path d="M809.634 320.818H808.401L805.855 322.509V323.761L808.341 322.111H808.401V331H809.634V320.818ZM812.562 331H818.985V329.906H814.252V329.827L816.539 327.381C818.289 325.506 818.806 324.631 818.806 323.503C818.806 321.932 817.533 320.679 815.744 320.679C813.959 320.679 812.602 321.892 812.602 323.682H813.775C813.775 322.523 814.526 321.753 815.704 321.753C816.808 321.753 817.653 322.429 817.653 323.503C817.653 324.442 817.101 325.138 815.923 326.426L812.562 330.105V331Z" fill="#8D96A2"/>
<path d="M935.634 320.818H934.401L931.855 322.509V323.761L934.341 322.111H934.401V331H935.634V320.818ZM942.002 331.139C943.976 331.139 945.442 329.901 945.442 328.236C945.442 326.943 944.677 326.004 943.394 325.79V325.71C944.423 325.397 945.065 324.552 945.065 323.403C945.065 321.962 943.926 320.679 942.042 320.679C940.282 320.679 938.82 321.763 938.761 323.364H939.954C939.999 322.349 940.963 321.753 942.022 321.753C943.146 321.753 943.871 322.434 943.871 323.463C943.871 324.537 943.031 325.233 941.823 325.233H941.008V326.327H941.823C943.369 326.327 944.229 327.112 944.229 328.236C944.229 329.315 943.29 330.045 941.982 330.045C940.804 330.045 939.869 329.439 939.795 328.455H938.542C938.616 330.055 940.028 331.139 942.002 331.139Z" fill="#8D96A2"/>
<path d="M1062.63 320.818H1061.4L1058.86 322.509V323.761L1061.34 322.111H1061.4V331H1062.63V320.818ZM1069 331.139C1070.98 331.139 1072.44 329.901 1072.44 328.236C1072.44 326.943 1071.68 326.004 1070.39 325.79V325.71C1071.42 325.397 1072.06 324.552 1072.06 323.403C1072.06 321.962 1070.93 320.679 1069.04 320.679C1067.28 320.679 1065.82 321.763 1065.76 323.364H1066.95C1067 322.349 1067.96 321.753 1069.02 321.753C1070.15 321.753 1070.87 322.434 1070.87 323.463C1070.87 324.537 1070.03 325.233 1068.82 325.233H1068.01V326.327H1068.82C1070.37 326.327 1071.23 327.112 1071.23 328.236C1071.23 329.315 1070.29 330.045 1068.98 330.045C1067.8 330.045 1066.87 329.439 1066.79 328.455H1065.54C1065.62 330.055 1067.03 331.139 1069 331.139Z" fill="#8D96A2"/>
<path d="M1112.06 50.2727H1112.87V49.1641C1114.96 49.0199 1116.13 47.7869 1116.13 46.2358C1116.13 44.3267 1114.32 43.7102 1113.27 43.4318L1112.87 43.3224V39.7876C1113.93 39.892 1114.69 40.4588 1114.8 41.3636H1115.99C1115.94 39.9119 1114.67 38.8082 1112.87 38.6889V37.5455H1112.06V38.7038C1110.35 38.8778 1109.07 39.9616 1109.07 41.5227C1109.07 42.8949 1110.07 43.7102 1111.66 44.1676L1112.06 44.282V48.0455C1111.01 47.9361 1110.16 47.3991 1110.07 46.375H1108.8C1108.91 47.9411 1110.1 49.0348 1112.06 49.1641V50.2727ZM1112.87 48.0455V44.5156L1112.91 44.5256C1113.99 44.8239 1114.94 45.2017 1114.94 46.2159C1114.94 47.2152 1114.08 47.9112 1112.87 48.0455ZM1112.06 43.1037C1111.3 42.8899 1110.27 42.4723 1110.27 41.4631C1110.27 40.603 1110.96 39.9467 1112.06 39.8026V43.1037ZM1121.42 49.1392C1123.4 49.1392 1124.86 47.9013 1124.86 46.2358C1124.86 44.9432 1124.1 44.0036 1122.81 43.7898V43.7102C1123.84 43.397 1124.48 42.5518 1124.48 41.4034C1124.48 39.9616 1123.35 38.679 1121.46 38.679C1119.7 38.679 1118.24 39.7628 1118.18 41.3636H1119.37C1119.42 40.3494 1120.38 39.7528 1121.44 39.7528C1122.57 39.7528 1123.29 40.4339 1123.29 41.4631C1123.29 42.5369 1122.45 43.233 1121.24 43.233H1120.43V44.3267H1121.24C1122.79 44.3267 1123.65 45.1122 1123.65 46.2358C1123.65 47.3146 1122.71 48.0455 1121.4 48.0455C1120.22 48.0455 1119.29 47.4389 1119.21 46.4545H1117.96C1118.04 48.0554 1119.45 49.1392 1121.42 49.1392ZM1130.22 49.1392C1132.46 49.1392 1133.76 47.2351 1133.76 43.9091C1133.76 40.608 1132.44 38.679 1130.22 38.679C1127.99 38.679 1126.68 40.608 1126.68 43.9091C1126.68 47.2351 1127.97 49.1392 1130.22 49.1392ZM1130.22 48.0455C1128.74 48.0455 1127.87 46.5589 1127.87 43.9091C1127.87 41.2642 1128.75 39.7528 1130.22 39.7528C1131.69 39.7528 1132.56 41.2642 1132.56 43.9091C1132.56 46.5589 1131.7 48.0455 1130.22 48.0455ZM1138.97 49.1392C1141.21 49.1392 1142.51 47.2351 1142.51 43.9091C1142.51 40.608 1141.19 38.679 1138.97 38.679C1136.74 38.679 1135.43 40.608 1135.43 43.9091C1135.43 47.2351 1136.72 49.1392 1138.97 49.1392ZM1138.97 48.0455C1137.49 48.0455 1136.62 46.5589 1136.62 43.9091C1136.62 41.2642 1137.5 39.7528 1138.97 39.7528C1140.44 39.7528 1141.31 41.2642 1141.31 43.9091C1141.31 46.5589 1140.45 48.0455 1138.97 48.0455Z" fill="#8D96A2"/>
<path d="M1112.06 113.273H1112.87V112.164C1114.96 112.02 1116.13 110.787 1116.13 109.236C1116.13 107.327 1114.32 106.71 1113.27 106.432L1112.87 106.322V102.788C1113.93 102.892 1114.69 103.459 1114.8 104.364H1115.99C1115.94 102.912 1114.67 101.808 1112.87 101.689V100.545H1112.06V101.704C1110.35 101.878 1109.07 102.962 1109.07 104.523C1109.07 105.895 1110.07 106.71 1111.66 107.168L1112.06 107.282V111.045C1111.01 110.936 1110.16 110.399 1110.07 109.375H1108.8C1108.91 110.941 1110.1 112.035 1112.06 112.164V113.273ZM1112.87 111.045V107.516L1112.91 107.526C1113.99 107.824 1114.94 108.202 1114.94 109.216C1114.94 110.215 1114.08 110.911 1112.87 111.045ZM1112.06 106.104C1111.3 105.89 1110.27 105.472 1110.27 104.463C1110.27 103.603 1110.96 102.947 1112.06 102.803V106.104ZM1121.42 112.139C1123.4 112.139 1124.86 110.901 1124.86 109.236C1124.86 107.943 1124.1 107.004 1122.81 106.79V106.71C1123.84 106.397 1124.48 105.552 1124.48 104.403C1124.48 102.962 1123.35 101.679 1121.46 101.679C1119.7 101.679 1118.24 102.763 1118.18 104.364H1119.37C1119.42 103.349 1120.38 102.753 1121.44 102.753C1122.57 102.753 1123.29 103.434 1123.29 104.463C1123.29 105.537 1122.45 106.233 1121.24 106.233H1120.43V107.327H1121.24C1122.79 107.327 1123.65 108.112 1123.65 109.236C1123.65 110.315 1122.71 111.045 1121.4 111.045C1120.22 111.045 1119.29 110.439 1119.21 109.455H1117.96C1118.04 111.055 1119.45 112.139 1121.42 112.139ZM1130.22 112.139C1132.46 112.139 1133.76 110.235 1133.76 106.909C1133.76 103.608 1132.44 101.679 1130.22 101.679C1127.99 101.679 1126.68 103.608 1126.68 106.909C1126.68 110.235 1127.97 112.139 1130.22 112.139ZM1130.22 111.045C1128.74 111.045 1127.87 109.559 1127.87 106.909C1127.87 104.264 1128.75 102.753 1130.22 102.753C1131.69 102.753 1132.56 104.264 1132.56 106.909C1132.56 109.559 1131.7 111.045 1130.22 111.045ZM1138.97 112.139C1141.21 112.139 1142.51 110.235 1142.51 106.909C1142.51 103.608 1141.19 101.679 1138.97 101.679C1136.74 101.679 1135.43 103.608 1135.43 106.909C1135.43 110.235 1136.72 112.139 1138.97 112.139ZM1138.97 111.045C1137.49 111.045 1136.62 109.559 1136.62 106.909C1136.62 104.264 1137.5 102.753 1138.97 102.753C1140.44 102.753 1141.31 104.264 1141.31 106.909C1141.31 109.559 1140.45 111.045 1138.97 111.045Z" fill="#8D96A2"/>
<path d="M1112.06 176.273H1112.87V175.164C1114.96 175.02 1116.13 173.787 1116.13 172.236C1116.13 170.327 1114.32 169.71 1113.27 169.432L1112.87 169.322V165.788C1113.93 165.892 1114.69 166.459 1114.8 167.364H1115.99C1115.94 165.912 1114.67 164.808 1112.87 164.689V163.545H1112.06V164.704C1110.35 164.878 1109.07 165.962 1109.07 167.523C1109.07 168.895 1110.07 169.71 1111.66 170.168L1112.06 170.282V174.045C1111.01 173.936 1110.16 173.399 1110.07 172.375H1108.8C1108.91 173.941 1110.1 175.035 1112.06 175.164V176.273ZM1112.87 174.045V170.516L1112.91 170.526C1113.99 170.824 1114.94 171.202 1114.94 172.216C1114.94 173.215 1114.08 173.911 1112.87 174.045ZM1112.06 169.104C1111.3 168.89 1110.27 168.472 1110.27 167.463C1110.27 166.603 1110.96 165.947 1112.06 165.803V169.104ZM1121.42 175.139C1123.4 175.139 1124.86 173.901 1124.86 172.236C1124.86 170.943 1124.1 170.004 1122.81 169.79V169.71C1123.84 169.397 1124.48 168.552 1124.48 167.403C1124.48 165.962 1123.35 164.679 1121.46 164.679C1119.7 164.679 1118.24 165.763 1118.18 167.364H1119.37C1119.42 166.349 1120.38 165.753 1121.44 165.753C1122.57 165.753 1123.29 166.434 1123.29 167.463C1123.29 168.537 1122.45 169.233 1121.24 169.233H1120.43V170.327H1121.24C1122.79 170.327 1123.65 171.112 1123.65 172.236C1123.65 173.315 1122.71 174.045 1121.4 174.045C1120.22 174.045 1119.29 173.439 1119.21 172.455H1117.96C1118.04 174.055 1119.45 175.139 1121.42 175.139ZM1130.22 175.139C1132.46 175.139 1133.76 173.235 1133.76 169.909C1133.76 166.608 1132.44 164.679 1130.22 164.679C1127.99 164.679 1126.68 166.608 1126.68 169.909C1126.68 173.235 1127.97 175.139 1130.22 175.139ZM1130.22 174.045C1128.74 174.045 1127.87 172.559 1127.87 169.909C1127.87 167.264 1128.75 165.753 1130.22 165.753C1131.69 165.753 1132.56 167.264 1132.56 169.909C1132.56 172.559 1131.7 174.045 1130.22 174.045ZM1138.97 175.139C1141.21 175.139 1142.51 173.235 1142.51 169.909C1142.51 166.608 1141.19 164.679 1138.97 164.679C1136.74 164.679 1135.43 166.608 1135.43 169.909C1135.43 173.235 1136.72 175.139 1138.97 175.139ZM1138.97 174.045C1137.49 174.045 1136.62 172.559 1136.62 169.909C1136.62 167.264 1137.5 165.753 1138.97 165.753C1140.44 165.753 1141.31 167.264 1141.31 169.909C1141.31 172.559 1140.45 174.045 1138.97 174.045Z" fill="#8D96A2"/>
<path d="M1112.06 239.273H1112.87V238.164C1114.96 238.02 1116.13 236.787 1116.13 235.236C1116.13 233.327 1114.32 232.71 1113.27 232.432L1112.87 232.322V228.788C1113.93 228.892 1114.69 229.459 1114.8 230.364H1115.99C1115.94 228.912 1114.67 227.808 1112.87 227.689V226.545H1112.06V227.704C1110.35 227.878 1109.07 228.962 1109.07 230.523C1109.07 231.895 1110.07 232.71 1111.66 233.168L1112.06 233.282V237.045C1111.01 236.936 1110.16 236.399 1110.07 235.375H1108.8C1108.91 236.941 1110.1 238.035 1112.06 238.164V239.273ZM1112.87 237.045V233.516L1112.91 233.526C1113.99 233.824 1114.94 234.202 1114.94 235.216C1114.94 236.215 1114.08 236.911 1112.87 237.045ZM1112.06 232.104C1111.3 231.89 1110.27 231.472 1110.27 230.463C1110.27 229.603 1110.96 228.947 1112.06 228.803V232.104ZM1121.42 238.139C1123.4 238.139 1124.86 236.901 1124.86 235.236C1124.86 233.943 1124.1 233.004 1122.81 232.79V232.71C1123.84 232.397 1124.48 231.552 1124.48 230.403C1124.48 228.962 1123.35 227.679 1121.46 227.679C1119.7 227.679 1118.24 228.763 1118.18 230.364H1119.37C1119.42 229.349 1120.38 228.753 1121.44 228.753C1122.57 228.753 1123.29 229.434 1123.29 230.463C1123.29 231.537 1122.45 232.233 1121.24 232.233H1120.43V233.327H1121.24C1122.79 233.327 1123.65 234.112 1123.65 235.236C1123.65 236.315 1122.71 237.045 1121.4 237.045C1120.22 237.045 1119.29 236.439 1119.21 235.455H1117.96C1118.04 237.055 1119.45 238.139 1121.42 238.139ZM1130.22 238.139C1132.46 238.139 1133.76 236.235 1133.76 232.909C1133.76 229.608 1132.44 227.679 1130.22 227.679C1127.99 227.679 1126.68 229.608 1126.68 232.909C1126.68 236.235 1127.97 238.139 1130.22 238.139ZM1130.22 237.045C1128.74 237.045 1127.87 235.559 1127.87 232.909C1127.87 230.264 1128.75 228.753 1130.22 228.753C1131.69 228.753 1132.56 230.264 1132.56 232.909C1132.56 235.559 1131.7 237.045 1130.22 237.045ZM1138.97 238.139C1141.21 238.139 1142.51 236.235 1142.51 232.909C1142.51 229.608 1141.19 227.679 1138.97 227.679C1136.74 227.679 1135.43 229.608 1135.43 232.909C1135.43 236.235 1136.72 238.139 1138.97 238.139ZM1138.97 237.045C1137.49 237.045 1136.62 235.559 1136.62 232.909C1136.62 230.264 1137.5 228.753 1138.97 228.753C1140.44 228.753 1141.31 230.264 1141.31 232.909C1141.31 235.559 1140.45 237.045 1138.97 237.045Z" fill="#8D96A2"/>
<path d="M1112.06 302.273H1112.87V301.164C1114.96 301.02 1116.13 299.787 1116.13 298.236C1116.13 296.327 1114.32 295.71 1113.27 295.432L1112.87 295.322V291.788C1113.93 291.892 1114.69 292.459 1114.8 293.364H1115.99C1115.94 291.912 1114.67 290.808 1112.87 290.689V289.545H1112.06V290.704C1110.35 290.878 1109.07 291.962 1109.07 293.523C1109.07 294.895 1110.07 295.71 1111.66 296.168L1112.06 296.282V300.045C1111.01 299.936 1110.16 299.399 1110.07 298.375H1108.8C1108.91 299.941 1110.1 301.035 1112.06 301.164V302.273ZM1112.87 300.045V296.516L1112.91 296.526C1113.99 296.824 1114.94 297.202 1114.94 298.216C1114.94 299.215 1114.08 299.911 1112.87 300.045ZM1112.06 295.104C1111.3 294.89 1110.27 294.472 1110.27 293.463C1110.27 292.603 1110.96 291.947 1112.06 291.803V295.104ZM1121.42 301.139C1123.4 301.139 1124.86 299.901 1124.86 298.236C1124.86 296.943 1124.1 296.004 1122.81 295.79V295.71C1123.84 295.397 1124.48 294.552 1124.48 293.403C1124.48 291.962 1123.35 290.679 1121.46 290.679C1119.7 290.679 1118.24 291.763 1118.18 293.364H1119.37C1119.42 292.349 1120.38 291.753 1121.44 291.753C1122.57 291.753 1123.29 292.434 1123.29 293.463C1123.29 294.537 1122.45 295.233 1121.24 295.233H1120.43V296.327H1121.24C1122.79 296.327 1123.65 297.112 1123.65 298.236C1123.65 299.315 1122.71 300.045 1121.4 300.045C1120.22 300.045 1119.29 299.439 1119.21 298.455H1117.96C1118.04 300.055 1119.45 301.139 1121.42 301.139ZM1130.22 301.139C1132.46 301.139 1133.76 299.235 1133.76 295.909C1133.76 292.608 1132.44 290.679 1130.22 290.679C1127.99 290.679 1126.68 292.608 1126.68 295.909C1126.68 299.235 1127.97 301.139 1130.22 301.139ZM1130.22 300.045C1128.74 300.045 1127.87 298.559 1127.87 295.909C1127.87 293.264 1128.75 291.753 1130.22 291.753C1131.69 291.753 1132.56 293.264 1132.56 295.909C1132.56 298.559 1131.7 300.045 1130.22 300.045ZM1138.97 301.139C1141.21 301.139 1142.51 299.235 1142.51 295.909C1142.51 292.608 1141.19 290.679 1138.97 290.679C1136.74 290.679 1135.43 292.608 1135.43 295.909C1135.43 299.235 1136.72 301.139 1138.97 301.139ZM1138.97 300.045C1137.49 300.045 1136.62 298.559 1136.62 295.909C1136.62 293.264 1137.5 291.753 1138.97 291.753C1140.44 291.753 1141.31 293.264 1141.31 295.909C1141.31 298.559 1140.45 300.045 1138.97 300.045Z" fill="#8D96A2"/>
<path d="M1085.99 98L1068.83 113.471C1032.58 146.144 981.323 157.045 934.656 142.004C903.942 132.104 870.626 133.56 840.92 146.102L770.146 175.98C740.565 188.469 707.46 190.233 676.688 180.961L613.44 161.905C569.74 148.738 522.249 158.572 487.603 187.963L458.416 212.722C419.116 246.061 364.052 254.53 316.329 234.577L270.355 215.354C229.985 198.475 183.783 202.261 146.79 225.481L46.8162 288.234L46 288.968V295.968H1085.99V98Z" fill="url(#paint0_linear)"/>
<path d="M46 296H1087" stroke="#EDF1F4"/>
<path d="M46 170H1087" stroke="#EDF1F4"/>
<path d="M46 233H1087" stroke="#EDF1F4"/>
<path d="M46 107H1087" stroke="#EDF1F4"/>
<path d="M46 44H1087" stroke="#EDF1F4"/>
<path d="M46 287L147.334 223.394C183.953 200.409 229.459 196.657 269.347 213.335L318.78 234.004C364.921 253.297 417.985 245.074 456.123 212.721L487.739 185.901C522.13 156.726 568.963 146.968 612.145 159.978L678.335 179.921C708.011 188.863 739.878 187.159 768.432 175.104L841.423 144.289C870.784 131.894 903.619 130.454 933.952 140.231L936.867 141.17C982.014 155.722 1031.49 145.127 1066.72 113.366L1085.99 96" stroke="url(#paint1_linear)" stroke-width="3"/>
<circle cx="778.734" cy="170" r="7.5" fill="white" stroke="#33B2F4" stroke-width="3"/>
<defs>
<linearGradient id="paint0_linear" x1="565.993" y1="98" x2="565.993" y2="307" gradientUnits="userSpaceOnUse">
<stop stop-color="#27B0F7" stop-opacity="0.08"/>
<stop offset="1" stop-color="#27B0F7" stop-opacity="0"/>
</linearGradient>
<linearGradient id="paint1_linear" x1="1085.99" y1="95.9999" x2="46.9553" y2="292.063" gradientUnits="userSpaceOnUse">
<stop stop-color="#1DAEF9"/>
<stop offset="1" stop-color="#68BCE8"/>
</linearGradient>
</defs>
</svg>
