<svg width="22" height="18" viewBox="0 0 22 18" fill="none" xmlns="http://www.w3.org/2000/svg">
<path d="M20.2674 17.9991H1.73435C1.37709 17.9991 1.04697 17.8085 0.868343 17.4991C0.689717 17.1897 0.689719 16.8085 0.86835 16.4991L10.1343 0.499091C10.3131 0.190202 10.643 0 10.9998 0C11.3567 0 11.6866 0.190202 11.8653 0.499091L21.1313 16.4991C21.3099 16.8083 21.31 17.1893 21.1316 17.4986C20.9532 17.808 20.6234 17.9987 20.2663 17.9991H20.2674ZM11.0013 2.99909L3.47035 15.9991H18.5344L11.0013 2.99909ZM11.9963 12.0001H9.99635V6.99909H11.9963V12.0001Z" fill="#0083C7"/>
<path d="M10.0013 13.0011H12.0013V15.0011H10.0013V13.0011Z" fill="#0083C7"/>
</svg>
