<svg width="91" height="91" viewBox="0 0 91 91" fill="none" xmlns="http://www.w3.org/2000/svg">
<rect width="91" height="91" rx="45.5" fill="url(#paint0_linear)"/>
<path fill-rule="evenodd" clip-rule="evenodd" d="M22 25C19.7909 25 18 26.7909 18 29V62C18 64.2091 19.7909 66 22 66H60.5V75.5L67.25 66H70C72.2091 66 74 64.2091 74 62V29C74 26.7909 72.2091 25 70 25H22ZM39.1232 49.549H35.7585V49.2472C35.7674 46.1399 36.6019 45.19 38.0934 44.2489C39.1854 43.5565 40.0288 42.7841 40.0288 41.6211C40.0288 40.3871 39.0611 39.5881 37.8626 39.5881C36.6996 39.5881 35.6254 40.3604 35.5721 41.8075H31.9499C32.0298 38.2564 34.6577 36.5696 37.8803 36.5696C41.4048 36.5696 43.9084 38.3807 43.9084 41.4879C43.9084 43.5742 42.8253 44.8793 41.1651 45.8647C39.7624 46.7081 39.141 47.516 39.1232 49.2472V49.549ZM39.6381 53.1001C39.6293 54.2809 38.6438 55.2308 37.5075 55.2308C36.3356 55.2308 35.3679 54.2809 35.3768 53.1001C35.3679 51.9371 36.3356 50.9872 37.5075 50.9872C38.6438 50.9872 39.6293 51.9371 39.6381 53.1001ZM52.926 36.8182H56.8767L56.5305 49.549H53.2812L52.926 36.8182ZM57.0365 53.1001C57.0276 54.2809 56.0422 55.2308 54.9058 55.2308C53.7339 55.2308 52.7662 54.2809 52.7751 53.1001C52.7662 51.9371 53.7339 50.9872 54.9058 50.9872C56.0422 50.9872 57.0276 51.9371 57.0365 53.1001Z" fill="url(#paint1_linear)"/>
<defs>
<linearGradient id="paint0_linear" x1="0" y1="0" x2="91" y2="91" gradientUnits="userSpaceOnUse">
<stop stop-color="#0083C7"/>
<stop offset="1" stop-color="#00AA5B"/>
</linearGradient>
<linearGradient id="paint1_linear" x1="46" y1="25" x2="45.6113" y2="54.4919" gradientUnits="userSpaceOnUse">
<stop stop-color="white"/>
<stop offset="1" stop-color="#EFEFEF"/>
</linearGradient>
</defs>
</svg>
