<svg width="91" height="91" viewBox="0 0 91 91" fill="none" xmlns="http://www.w3.org/2000/svg">
<g clip-path="url(#clip0)">
<rect width="91" height="91" rx="45.5" fill="url(#paint0_linear)"/>
<path fill-rule="evenodd" clip-rule="evenodd" d="M16 29.4902C16 27.8333 17.3431 26.4902 19 26.4902H72C73.6569 26.4902 75 27.8333 75 29.4902V94C75 95.6568 73.6569 97 72 97H19C17.3431 97 16 95.6568 16 94V29.4902ZM27.5691 40.7059C27.5691 39.7637 28.3329 39 29.275 39H49.0005C49.9426 39 50.7064 39.7637 50.7064 40.7059C50.7064 41.648 49.9426 42.4118 49.0005 42.4118H29.275C28.3329 42.4118 27.5691 41.648 27.5691 40.7059ZM29.275 50.3726C28.3329 50.3726 27.5691 51.1363 27.5691 52.0784C27.5691 53.0206 28.3329 53.7843 29.275 53.7843H61.726C62.6681 53.7843 63.4319 53.0206 63.4319 52.0784C63.4319 51.1363 62.6681 50.3726 61.726 50.3726H29.275ZM27.5691 63.451C27.5691 62.5089 28.3329 61.7451 29.275 61.7451H61.726C62.6681 61.7451 63.4319 62.5089 63.4319 63.451C63.4319 64.3931 62.6681 65.1569 61.726 65.1569H29.275C28.3329 65.1569 27.5691 64.3931 27.5691 63.451ZM29.275 73.1176C28.3329 73.1176 27.5691 73.8814 27.5691 74.8235C27.5691 75.7656 28.3329 76.5294 29.275 76.5294H61.726C62.6681 76.5294 63.4319 75.7656 63.4319 74.8235C63.4319 73.8814 62.6681 73.1176 61.726 73.1176H29.275Z" fill="url(#paint1_linear)"/>
</g>
<defs>
<linearGradient id="paint0_linear" x1="0" y1="0" x2="91" y2="91" gradientUnits="userSpaceOnUse">
<stop stop-color="#0083C7"/>
<stop offset="1" stop-color="#00AA5B"/>
</linearGradient>
<linearGradient id="paint1_linear" x1="45.5" y1="26.4902" x2="44.7808" y2="67.6623" gradientUnits="userSpaceOnUse">
<stop stop-color="white"/>
<stop offset="1" stop-color="#EFEFEF"/>
</linearGradient>
<clipPath id="clip0">
<rect width="91" height="91" rx="45.5" fill="white"/>
</clipPath>
</defs>
</svg>
