<svg width="15" height="14" viewBox="0 0 15 14" fill="none" xmlns="http://www.w3.org/2000/svg">
<path fill-rule="evenodd" clip-rule="evenodd" d="M7.5 0.25C7.91421 0.25 8.25 0.585786 8.25 1V7.51109L10.0536 6.17511C10.3864 5.92856 10.8561 5.99851 11.1027 6.33136C11.3492 6.6642 11.2793 7.13389 10.9464 7.38045L7.5 9.93335L4.05358 7.38045C3.72074 7.13389 3.65078 6.6642 3.89733 6.33136C4.14388 5.99851 4.61358 5.92856 4.94642 6.17511L6.75 7.51109V1C6.75 0.585786 7.08579 0.25 7.5 0.25Z" fill="#0083C7"/>
<path fill-rule="evenodd" clip-rule="evenodd" d="M1.5 10.25C1.91421 10.25 2.25 10.5858 2.25 11V12.25H12.75V11C12.75 10.5858 13.0858 10.25 13.5 10.25C13.9142 10.25 14.25 10.5858 14.25 11V12.75C14.25 13.3023 13.8023 13.75 13.25 13.75H1.75C1.19772 13.75 0.75 13.3023 0.75 12.75V11C0.75 10.5858 1.08579 10.25 1.5 10.25Z" fill="#0083C7"/>
</svg>
