<svg width="90" height="90" viewBox="0 0 90 90" fill="none" xmlns="http://www.w3.org/2000/svg">
<rect width="90" height="90" rx="45" fill="url(#paint0_linear)"/>
<path d="M44.975 70C31.1711 69.9862 19.9908 58.7872 20 44.9833C20.0092 31.1795 31.2045 19.9954 45.0083 20C58.8122 20.0046 70 31.1961 70 45C69.9917 58.8134 58.7885 70.0055 44.975 70ZM25 45.43C25.1183 56.4331 34.1028 65.2738 45.1063 65.215C56.1099 65.1556 64.9988 56.2187 64.9988 45.215C64.9988 34.2113 56.1099 25.2744 45.1063 25.215C34.1028 25.1561 25.1183 33.9969 25 45V45.43ZM47.5 57.5H42.5V52.5H47.5V57.5ZM47.5 47.5H42.5V32.5H47.5V47.5Z" fill="white"/>
<defs>
<linearGradient id="paint0_linear" x1="0" y1="0" x2="90" y2="90" gradientUnits="userSpaceOnUse">
<stop stop-color="#0083C7"/>
<stop offset="1" stop-color="#00AA5B"/>
</linearGradient>
</defs>
</svg>
