<svg width="21" height="20" viewBox="0 0 21 20" fill="none" xmlns="http://www.w3.org/2000/svg">
<g clip-path="url(#clip0)">
<path d="M15.0013 13.0565C17.5373 11.7556 19.4597 10.7642 19.6254 10.6872C20.1555 10.4238 20.7029 9.72672 19.6254 9.18526C19.2775 9.01497 17.4045 8.05453 15.0013 6.81592L11.6699 9.95935L15.0013 13.0564V13.0565Z" fill="#FFD900"/>
<path d="M11.6701 9.95947L1.0625 19.948C1.31148 19.9788 1.59258 19.9171 1.92398 19.7469C2.61977 19.3911 9.9957 15.6276 15.0015 13.0574L11.6701 9.95947Z" fill="#F43249"/>
<path d="M11.669 9.95941L15.0004 6.83145C15.0004 6.83145 2.66898 0.543786 1.92289 0.172618C1.6418 0.0170707 1.3268 -0.0291336 1.04492 0.0170707L11.669 9.95941Z" fill="#00EE76"/>
<path d="M11.6696 9.95869L1.04555 0.0163574C0.614375 0.109496 0.25 0.465409 0.25 1.19329V18.7703C0.25 19.4365 0.531953 19.9164 1.06203 19.9626L11.6696 9.95869Z" fill="#00D3FF"/>
</g>
<defs>
<clipPath id="clip0">
<rect width="20" height="20" fill="white" transform="translate(0.25)"/>
</clipPath>
</defs>
</svg>
