<svg width="67" height="64" viewBox="0 0 67 64" fill="none" xmlns="http://www.w3.org/2000/svg">
<path d="M37.5 13.9111L61.5 0.820259V23.8203H62C64.4844 23.8203 66.5 25.835 66.5 28.3203C66.5 30.8055 64.4844 32.8203 62 32.8203H61.5V54.8203L37.5 41.7294V41.8203H23.6289L30.3359 56.8439C31.3516 59.1133 30.332 61.7744 28.0625 62.7876C25.793 63.8009 23.1328 62.7827 22.1211 60.5133L13.7656 41.8013C6.375 41.4195 0.5 35.306 0.5 27.8203C0.5 20.0883 6.76953 13.8203 14.5 13.8203H37.5V13.9111Z" fill="#F7F8FA"/>
<rect x="34.5" y="13.8203" width="3" height="28" fill="#E9EDF2"/>
</svg>
