<svg width="91" height="91" viewBox="0 0 91 91" fill="none" xmlns="http://www.w3.org/2000/svg">
<g clip-path="url(#clip0)">
<rect width="91" height="91" rx="45.5" fill="url(#paint0_linear)"/>
<path fill-rule="evenodd" clip-rule="evenodd" d="M18 56C18 53.7909 19.7909 52 22 52H70C72.2091 52 74 53.7909 74 56V61.5V89C74 91.2091 72.2091 93 70 93H67.25H60.5H22C19.7909 93 18 91.2091 18 89V56ZM30 76C31.6572 76 33 74.6567 33 73C33 71.3433 31.6572 70 30 70C28.3428 70 27 71.3433 27 73C27 74.6567 28.3428 76 30 76ZM49 73C49 74.6567 47.6572 76 46 76C44.3428 76 43 74.6567 43 73C43 71.3433 44.3428 70 46 70C47.6572 70 49 71.3433 49 73ZM62 76C63.6572 76 65 74.6567 65 73C65 71.3433 63.6572 70 62 70C60.3428 70 59 71.3433 59 73C59 74.6567 60.3428 76 62 76Z" fill="url(#paint1_linear)"/>
<path d="M82.5 56H74V61.5L82.5 56Z" fill="url(#paint2_linear)"/>
</g>
<defs>
<linearGradient id="paint0_linear" x1="0" y1="0" x2="91" y2="91" gradientUnits="userSpaceOnUse">
<stop stop-color="#0083C7"/>
<stop offset="1" stop-color="#00AA5B"/>
</linearGradient>
<linearGradient id="paint1_linear" x1="46" y1="52" x2="45.6113" y2="81.4919" gradientUnits="userSpaceOnUse">
<stop stop-color="white"/>
<stop offset="1" stop-color="#EFEFEF"/>
</linearGradient>
<linearGradient id="paint2_linear" x1="46" y1="52" x2="45.6113" y2="81.4919" gradientUnits="userSpaceOnUse">
<stop stop-color="white"/>
<stop offset="1" stop-color="#EFEFEF"/>
</linearGradient>
<clipPath id="clip0">
<rect width="91" height="91" rx="45.5" fill="white"/>
</clipPath>
</defs>
</svg>
