<svg width="32" height="32" viewBox="0 0 32 32" fill="none" xmlns="http://www.w3.org/2000/svg">
<rect width="32" height="32" rx="16" fill="url(#paint0_linear_708_2)"/>
<path d="M7 8.62974L7.5 8C9.48897 8 11.478 8 13.4669 8V8.62974V9.25948H12.2467H11.0083V14V19H11.7914H17V20.1562H11.2086H6.77059V19.3703V18.7405H7.96689V14V9.25948H7V8.62974Z" fill="white"/>
<path fill-rule="evenodd" clip-rule="evenodd" d="M14 13.6297V13H17.7709C20.3554 13 21.7004 13.0058 21.8062 13.0175C23.2628 13.1224 24.3612 13.5598 25.1013 14.3294C25.5595 14.8192 25.8473 15.3965 25.9648 16.0612C25.9883 16.1662 26 16.3469 26 16.6035C26 16.93 25.9706 17.1983 25.9119 17.4082C25.7709 18.0379 25.442 18.5802 24.9251 19.035C24.2673 19.5948 23.4332 19.9446 22.4229 20.0845C22.1057 20.1312 21.3891 20.1545 20.2731 20.1545H18.8458V20.155H15.9031V19H18.7401H19.7974L20 19V18.9994C20.9191 18.9935 21.5212 18.9471 21.8062 18.8601C22.2056 18.7434 22.4816 18.5627 22.6344 18.3178C22.8106 18.0146 22.8928 17.3848 22.8811 16.4286C22.8693 15.8805 22.8341 15.4956 22.7753 15.2741C22.7283 15.0758 22.6461 14.9184 22.5286 14.8017C22.3172 14.5569 21.9354 14.3878 21.3833 14.2945C21.3128 14.2828 20.8429 14.2711 19.9736 14.2595H18.7401V16.621V18H15.9031V14.2595H14.9515H14V13.6297ZM15.9031 21V23.7405H14.9515H14V24.3703V25H23.5L24 24.3703V23.7405H19.7974H18.8458V21.9388V21H15.9031Z" fill="white"/>
<path fill-rule="evenodd" clip-rule="evenodd" d="M16 27C17.6379 27 19.1922 26.642 20.589 26H22.6356C20.735 27.2637 18.4535 28 16 28C9.37258 28 4 22.6274 4 16C4 12.9266 5.15541 10.123 7.05557 8H8.45012C6.32578 10.0055 5 12.8479 5 16C5 22.0751 9.92487 27 16 27ZM9.67384 7C11.4632 5.73994 13.6452 5 16 5C22.0751 5 27 9.92487 27 16C27 19.7203 25.1531 23.0093 22.3262 25H23.9375C26.4287 22.8012 28 19.5841 28 16C28 9.37258 22.6274 4 16 4C12.9567 4 10.1779 5.13291 8.06253 7H9.67384Z" fill="white"/>
<defs>
<linearGradient id="paint0_linear_708_2" x1="0" y1="0" x2="32" y2="32" gradientUnits="userSpaceOnUse">
<stop stop-color="#0083C7"/>
<stop offset="1" stop-color="#103D7C"/>
</linearGradient>
</defs>
</svg>
