<svg width="91" height="91" viewBox="0 0 91 91" fill="none" xmlns="http://www.w3.org/2000/svg">
<rect width="91" height="91" rx="45.5" fill="url(#paint0_linear)"/>
<path fill-rule="evenodd" clip-rule="evenodd" d="M18 29C18 26.7909 19.7909 25 22 25H70C72.2091 25 74 26.7909 74 29V34.5V62C74 64.2091 72.2091 66 70 66H67.25H60.5H22C19.7909 66 18 64.2091 18 62V29ZM30 49C31.6572 49 33 47.6567 33 46C33 44.3433 31.6572 43 30 43C28.3428 43 27 44.3433 27 46C27 47.6567 28.3428 49 30 49ZM49 46C49 47.6567 47.6572 49 46 49C44.3428 49 43 47.6567 43 46C43 44.3433 44.3428 43 46 43C47.6572 43 49 44.3433 49 46ZM62 49C63.6572 49 65 47.6567 65 46C65 44.3433 63.6572 43 62 43C60.3428 43 59 44.3433 59 46C59 47.6567 60.3428 49 62 49Z" fill="url(#paint1_linear)"/>
<path d="M67.25 66H60.5V75.5L67.25 66Z" fill="url(#paint2_linear)"/>
<defs>
<linearGradient id="paint0_linear" x1="0" y1="0" x2="91" y2="91" gradientUnits="userSpaceOnUse">
<stop stop-color="#0083C7"/>
<stop offset="1" stop-color="#00AA5B"/>
</linearGradient>
<linearGradient id="paint1_linear" x1="46" y1="25" x2="45.6113" y2="54.4919" gradientUnits="userSpaceOnUse">
<stop stop-color="white"/>
<stop offset="1" stop-color="#EFEFEF"/>
</linearGradient>
<linearGradient id="paint2_linear" x1="46" y1="25" x2="45.6113" y2="54.4919" gradientUnits="userSpaceOnUse">
<stop stop-color="white"/>
<stop offset="1" stop-color="#EFEFEF"/>
</linearGradient>
</defs>
</svg>
