<svg width="22" height="19" viewBox="0 0 22 19" fill="none" xmlns="http://www.w3.org/2000/svg">
<path d="M20.2654 18.498H1.7324C1.37514 18.498 1.04502 18.3074 0.86639 17.998C0.687764 17.6886 0.687766 17.3074 0.866396 16.998L10.1324 0.997992C10.3112 0.689104 10.641 0.498901 10.9979 0.498901C11.3548 0.498901 11.6846 0.689104 11.8634 0.997992L21.1294 16.998C21.3079 17.3072 21.308 17.6882 21.1297 17.9975C20.9513 18.3069 20.6215 18.4976 20.2644 18.498H20.2654ZM9.9994 13.498V15.498H10.9324H10.9974H11.0624H11.9974V13.498H9.9994ZM9.9994 6.49799V11.498H11.9994V6.49799H9.9994Z" fill="#0083C7"/>
</svg>
