<svg width="24" height="24" viewBox="0 0 24 24" fill="none" xmlns="http://www.w3.org/2000/svg">
<path d="M12 22C10.8954 22 10 21.1046 10 20H14C14 21.1046 13.1046 22 12 22ZM20 19H4V17L6 16V10.5C6 7.038 7.421 4.793 10 4.18V2H13C12.3479 2.86394 11.9967 3.91762 12 5C12 5.25138 12.0187 5.50241 12.056 5.751H12C10.7799 5.67197 9.60301 6.21765 8.875 7.2C8.25255 8.18456 7.94714 9.33638 8 10.5V17H16V10.5C16 10.289 15.993 10.086 15.979 9.9C16.6405 10.0366 17.3226 10.039 17.985 9.907C17.996 10.118 18 10.319 18 10.507V16L20 17V19Z" fill="#7C838D"/>
<path d="M15.3073 7.47694C15.8058 7.81833 16.3961 8.00067 17.0003 7.99994C18.6571 7.99994 20.0003 6.65679 20.0003 4.99994C20.0001 3.57274 18.9945 2.34323 17.5957 2.05998C16.1969 1.77672 14.7922 2.51814 14.2368 3.83284C13.6814 5.14754 14.1291 6.67152 15.3073 7.47694Z" fill="#DF3333"/>
</svg>
