<svg width="91" height="90" viewBox="0 0 91 90" fill="none" xmlns="http://www.w3.org/2000/svg">
<g clip-path="url(#clip0)">
<rect x="0.5" width="90" height="90" rx="45" fill="url(#paint0_linear)"/>
<g filter="url(#filter0_d)">
<path fill-rule="evenodd" clip-rule="evenodd" d="M32.5 39C32.5 31.8203 38.3203 26 45.5 26C52.6797 26 58.5 31.8203 58.5 39V54H65.5C67.1569 54 68.5 55.3431 68.5 57V91C68.5 92.6569 67.1569 94 65.5 94H25.5C23.8431 94 22.5 92.6569 22.5 91V57C22.5 55.3431 23.8431 54 25.5 54H32.5V39ZM54.5 39V54H36.5V39C36.5 34.0294 40.5294 30 45.5 30C50.4706 30 54.5 34.0294 54.5 39ZM56.2071 68.7071C56.5976 68.3166 56.5976 67.6834 56.2071 67.2929C55.8166 66.9024 55.1834 66.9024 54.7929 67.2929L44 78.0858L38.2071 72.2929C37.8166 71.9024 37.1834 71.9024 36.7929 72.2929C36.4024 72.6834 36.4024 73.3166 36.7929 73.7071L44 80.9142L56.2071 68.7071Z" fill="url(#paint1_linear)"/>
</g>
</g>
<defs>
<filter id="filter0_d" x="-7.5" y="6" width="106" height="128" filterUnits="userSpaceOnUse" color-interpolation-filters="sRGB">
<feFlood flood-opacity="0" result="BackgroundImageFix"/>
<feColorMatrix in="SourceAlpha" type="matrix" values="0 0 0 0 0 0 0 0 0 0 0 0 0 0 0 0 0 0 127 0"/>
<feOffset dy="10"/>
<feGaussianBlur stdDeviation="15"/>
<feColorMatrix type="matrix" values="0 0 0 0 0 0 0 0 0 0 0 0 0 0 0 0 0 0 0.25 0"/>
<feBlend mode="normal" in2="BackgroundImageFix" result="effect1_dropShadow"/>
<feBlend mode="normal" in="SourceGraphic" in2="effect1_dropShadow" result="shape"/>
</filter>
<linearGradient id="paint0_linear" x1="0.5" y1="0" x2="90.5" y2="90" gradientUnits="userSpaceOnUse">
<stop stop-color="#0083C7"/>
<stop offset="1" stop-color="#00AA5B"/>
</linearGradient>
<linearGradient id="paint1_linear" x1="45.5" y1="26" x2="45.5" y2="94" gradientUnits="userSpaceOnUse">
<stop stop-color="white"/>
<stop offset="1" stop-color="#DBDBDB"/>
</linearGradient>
<clipPath id="clip0">
<rect x="0.5" width="90" height="90" rx="45" fill="white"/>
</clipPath>
</defs>
</svg>
