<svg width="33" height="33" viewBox="0 0 33 33" fill="none" xmlns="http://www.w3.org/2000/svg">
<path d="M27.6157 30.8077H8.76953C7.94111 30.8077 7.26953 30.1361 7.26953 29.3077V3.69231C7.26953 2.86388 7.9411 2.19231 8.76953 2.19231H20.9399L29.1157 10.7769V29.3077C29.1157 30.1361 28.4441 30.8077 27.6157 30.8077Z" fill="#3148EA" fill-opacity="0.07" stroke="#D2D5DE"/>
<path d="M9.16511 18.146V20.1499H10.09C10.8364 20.1499 11.169 19.7308 11.169 19.1412C11.169 18.5517 10.8364 18.146 10.0846 18.146H9.16511Z" fill="#EA3147"/>
<path d="M14.066 18.1758V21.9781H14.8909C16.0456 21.9781 16.6324 21.3453 16.6324 20.0715C16.6324 18.8032 16.0456 18.1758 14.9206 18.1758H14.066Z" fill="#EA3147"/>
<path fill-rule="evenodd" clip-rule="evenodd" d="M5.07707 15.2308C4.14244 15.2308 3.38477 15.9884 3.38477 16.9231V23.6923C3.38477 24.6269 4.14244 25.3846 5.07707 25.3846H25.3848C26.3194 25.3846 27.0771 24.6269 27.0771 23.6923V16.9231C27.0771 15.9884 26.3194 15.2308 25.3848 15.2308H5.07707ZM9.16511 22.8462H8.16181V17.3077H10.2387C11.5125 17.3077 12.1913 18.0838 12.1913 19.1412C12.1913 20.2067 11.5044 20.9748 10.2252 20.9748H9.16511V22.8462ZM17.6276 20.0715C17.6276 21.8023 16.627 22.8462 14.9395 22.8462H13.0627V17.3077H14.9774C16.627 17.3077 17.6276 18.3462 17.6276 20.0715ZM19.5842 22.8462H18.5809V17.3077H22.129V18.1487H19.5842V19.6523H21.8856V20.4934H19.5842V22.8462Z" fill="#EA3147"/>
</svg>
