<svg width="30" height="30" viewBox="0 0 30 30" fill="none" xmlns="http://www.w3.org/2000/svg">
<path d="M0 15C0 6.71573 6.71573 0 15 0C23.2843 0 30 6.71573 30 15C30 23.2843 23.2843 30 15 30C6.71573 30 0 23.2843 0 15Z" fill="#8247E5"/>
<path d="M14.5543 14.1822L18.9562 11.7254C19.097 11.6468 19.2562 11.6058 19.4175 11.6062C19.5786 11.6065 19.7373 11.6478 19.8776 11.7268L19.8783 11.7272L24.279 14.1846L24.2797 14.185C24.4206 14.2631 24.5389 14.3765 24.6217 14.5146C24.7047 14.653 24.7488 14.811 24.7488 14.9723L24.75 19.888C24.75 20.0488 24.7062 20.2061 24.6238 20.3442C24.5415 20.4821 24.4237 20.5956 24.2833 20.6739L19.8813 23.1308C19.7405 23.2094 19.5814 23.2503 19.4201 23.25C19.259 23.2497 19.1004 23.2083 18.9601 23.1294L18.9593 23.129L14.5586 20.6715L14.5577 20.671C14.4169 20.5929 14.2987 20.4796 14.2159 20.3416C14.1329 20.2032 14.0888 20.0452 14.0888 19.8839L14.0882 17.6799C14.0882 17.3484 14.2674 17.0425 14.5576 16.8789C15.1751 16.5308 15.9412 16.9734 15.942 17.6786L15.9433 18.8444C15.9437 19.1631 16.1169 19.4568 16.3966 19.613L18.8687 20.9935C19.1962 21.1764 19.5957 21.1777 19.9243 20.9969L22.3387 19.6691C22.6838 19.4793 22.8978 19.1182 22.8973 18.7265L22.8944 16.1247C22.894 15.7362 22.6828 15.3782 22.342 15.1878L19.9489 13.8515C19.6196 13.6676 19.2176 13.6674 18.8881 13.8509L15.7728 15.5863L15.4635 15.8079L11.0437 18.2747C10.9029 18.3533 10.7438 18.3942 10.5825 18.3938C10.4215 18.3935 10.2628 18.3522 10.1225 18.2732L10.1217 18.2728L5.72099 15.8154L5.72034 15.815C5.57944 15.7369 5.46113 15.6235 5.37831 15.4854C5.29533 15.347 5.25121 15.189 5.25119 15.0277L5.25 10.112C5.25 9.95122 5.29378 9.79387 5.37618 9.65583C5.45854 9.51786 5.57634 9.40442 5.71669 9.32605L10.1187 6.86919C10.2595 6.79058 10.4186 6.74969 10.5799 6.75C10.741 6.75031 10.8996 6.79168 11.04 6.87061L11.0407 6.87101L15.4414 9.32849L15.4422 9.32891C15.583 9.40702 15.7013 9.52035 15.7841 9.65844C15.8671 9.79682 15.9112 9.95481 15.9112 10.1162L15.9117 12.2758C15.9118 12.6086 15.731 12.9156 15.4389 13.0787C14.8214 13.4233 14.0587 12.9806 14.058 12.277L14.0567 11.1458C14.0563 10.8332 13.8864 10.545 13.6121 10.3918L11.1113 8.99533C10.782 8.81144 10.38 8.81122 10.0505 8.99477L7.65612 10.3285C7.31394 10.5191 7.10224 10.8786 7.10267 11.2683L7.10559 13.8753C7.10602 14.2638 7.31716 14.6218 7.65803 14.8122L10.0233 16.133C10.354 16.3176 10.7578 16.317 11.0879 16.1314L14.5543 14.1822Z" fill="white"/>
</svg>
