<svg width="476" height="207" viewBox="0 0 476 207" fill="none" xmlns="http://www.w3.org/2000/svg">
<path d="M67 1L78.6747 37.2766H116.455L85.8901 59.6968L97.5648 95.9734L67 73.5532L36.4352 95.9734L48.1099 59.6968L17.5451 37.2766H55.3253L67 1Z" fill="#103D7C"/>
<path d="M295 1L306.675 37.2766H344.455L313.89 59.6968L325.565 95.9734L295 73.5532L264.435 95.9734L276.11 59.6968L245.545 37.2766H283.325L295 1Z" fill="#103D7C"/>
<path d="M67 116L78.6747 152.277H116.455L85.8901 174.697L97.5648 210.973L67 188.553L36.4352 210.973L48.1099 174.697L17.5451 152.277H55.3253L67 116Z" fill="#103D7C"/>
<path d="M295 116L306.675 152.277H344.455L313.89 174.697L325.565 210.973L295 188.553L264.435 210.973L276.11 174.697L245.545 152.277H283.325L295 116Z" fill="#103D7C"/>
<path d="M181 1L192.675 37.2766H230.455L199.89 59.6968L211.565 95.9734L181 73.5532L150.435 95.9734L162.11 59.6968L131.545 37.2766H169.325L181 1Z" fill="#103D7C"/>
<path d="M409 1L420.675 37.2766H458.455L427.89 59.6968L439.565 95.9734L409 73.5532L378.435 95.9734L390.11 59.6968L359.545 37.2766H397.325L409 1Z" fill="#103D7C"/>
<path d="M181 116L192.675 152.277H230.455L199.89 174.697L211.565 210.973L181 188.553L150.435 210.973L162.11 174.697L131.545 152.277H169.325L181 116Z" fill="#103D7C"/>
<path d="M409 116L420.675 152.277H458.455L427.89 174.697L439.565 210.973L409 188.553L378.435 210.973L390.11 174.697L359.545 152.277H397.325L409 116Z" fill="#103D7C"/>
<rect y="92.7151" width="563" height="175" rx="17" transform="rotate(-15 0 92.7151)" fill="url(#paint0_linear)"/>
<path d="M180.476 78.5208C180.047 76.9204 180.997 75.2754 182.597 74.8466L346.347 30.9699C347.947 30.5411 349.592 31.4909 350.021 33.0913L357.892 62.4656C358.321 64.066 357.371 65.711 355.771 66.1398L192.021 110.016C190.42 110.445 188.775 109.496 188.346 107.895L180.476 78.5208Z" fill="#F7CF00"/>
<path d="M197.274 98.5612L199.63 97.9299L197.806 91.1201L205.592 89.0339L207.416 95.8436L209.78 95.2102L205.596 79.5927L203.232 80.2261L205.05 87.013L197.264 89.0993L195.446 82.3124L193.089 82.9437L197.274 98.5612ZM211.384 78.0418L209.027 78.6732L213.212 94.2907L215.568 93.6593L211.384 78.0418ZM226.706 79.2242L229.124 78.5764C227.782 75.6748 224.618 74.2668 221.247 75.17C217.206 76.2529 215.07 80.0864 216.406 85.0736C217.73 90.0151 221.421 92.3199 225.653 91.1859C229.443 90.1704 231.484 86.959 230.428 83.0165L229.952 81.2397L223.813 82.8846L224.334 84.8292L228.193 83.7952C228.814 86.326 227.578 88.3652 225.077 89.0355C222.324 89.7731 219.761 88.2287 218.743 84.431C217.73 80.6487 219.193 78.0254 221.839 77.3163C223.913 76.7606 225.623 77.5285 226.706 79.2242ZM235.084 88.43L237.441 87.7986L235.616 80.9888L243.402 78.9026L245.227 85.7124L247.591 85.079L243.406 69.4615L241.042 70.0949L242.86 76.8818L235.075 78.968L233.256 72.1811L230.9 72.8125L235.084 88.43ZM251.022 84.1595L260.905 81.5114L260.362 79.4829L252.835 81.4997L251.554 76.7183L258.478 74.863L257.937 72.8422L251.012 74.6975L249.737 69.9391L257.172 67.9468L256.629 65.9184L246.837 68.542L251.022 84.1595ZM263.961 80.6925L266.317 80.0611L264.734 74.1512L267.937 73.293C267.99 73.2787 268.036 73.2664 268.089 73.2521L272.845 78.3121L275.529 77.5928L270.373 72.1987C272.097 70.9767 272.624 69.1275 272.062 67.0304C271.291 64.1555 268.965 62.6128 265.343 63.5834L259.776 65.075L263.961 80.6925ZM264.19 72.1227L262.674 66.4644L265.633 65.6716C267.959 65.0484 269.216 65.8967 269.69 67.6659C270.162 69.4274 269.475 70.7067 267.18 71.3218L264.19 72.1227ZM283.485 75.4611L292.918 72.9336L292.374 70.9051L285.298 72.8013L281.657 59.2122L279.3 59.8436L283.485 75.4611ZM295.606 72.2133L305.489 69.5652L304.945 67.5367L297.419 69.5535L296.138 64.7721L303.062 62.9168L302.52 60.896L295.596 62.7513L294.321 57.9929L301.756 56.0006L301.213 53.9722L291.421 56.5958L295.606 72.2133ZM305.725 52.7631L303.178 53.4455L312.983 67.5571L315.705 66.8276L317.141 49.7042L314.594 50.3867L313.656 64.2711L313.48 64.3181L305.725 52.7631ZM323.581 64.7174L333.464 62.0693L332.92 60.0408L325.394 62.0576L324.113 57.2763L331.037 55.4209L330.495 53.4001L323.571 55.2554L322.296 50.497L329.731 48.5048L329.188 46.4763L319.396 49.0999L323.581 64.7174ZM336.52 61.2504L345.953 58.7229L345.409 56.6944L338.333 58.5906L334.692 45.0015L332.335 45.6329L336.52 61.2504Z" fill="white"/>
<circle cx="112.676" cy="157.769" r="62" transform="rotate(-15 112.676 157.769)" fill="#E6E8EF"/>
<ellipse cx="107.63" cy="138.933" rx="16" ry="16.5" transform="rotate(-15 107.63 138.933)" fill="#0083C7"/>
<path d="M140.148 183.019C145.483 181.59 148.767 175.954 145.696 171.364C145.33 170.817 144.946 170.281 144.544 169.758C142.106 166.58 139.066 163.914 135.597 161.911C132.128 159.909 128.299 158.609 124.328 158.086C120.357 157.563 116.322 157.828 112.453 158.864C108.584 159.901 104.957 161.689 101.78 164.128C98.602 166.566 95.9358 169.606 93.9331 173.075C91.9305 176.544 90.6306 180.373 90.1078 184.344C90.0217 184.998 89.9569 185.654 89.9135 186.311C89.5488 191.822 95.2108 195.06 100.545 193.631L120.347 188.325L140.148 183.019Z" fill="#0083C7"/>
<rect x="194.969" y="132.613" width="208" height="12" rx="6" transform="rotate(-15 194.969 132.613)" fill="#E6E8EF"/>
<rect x="200.404" y="152.897" width="208" height="12" rx="6" transform="rotate(-15 200.404 152.897)" fill="#E6E8EF"/>
<rect x="205.84" y="173.182" width="129" height="12" rx="6" transform="rotate(-15 205.84 173.182)" fill="#E6E8EF"/>
<defs>
<linearGradient id="paint0_linear" x1="244.403" y1="92.7151" x2="243.592" y2="218.612" gradientUnits="userSpaceOnUse">
<stop stop-color="white"/>
<stop offset="1" stop-color="#F1F3F8"/>
</linearGradient>
</defs>
</svg>
