<svg viewBox="0 0 21 22" xmlns="http://www.w3.org/2000/svg">
<path d="M12.9992 20.9999H2.99922C2.46329 21.0186 1.94369 20.8138 1.5645 20.4347C1.18532 20.0555 0.980591 19.5359 0.999215 18.9999V8.99995C0.980591 8.46402 1.18532 7.94442 1.5645 7.56524C1.94369 7.18605 2.46329 6.98132 2.99922 6.99995H6.99922V2.99995C6.98059 2.46402 7.18532 1.94442 7.5645 1.56524C7.94369 1.18605 8.46329 0.981324 8.99922 0.999948H18.9992C19.5351 0.981324 20.0547 1.18605 20.4339 1.56524C20.8131 1.94442 21.0178 2.46402 20.9992 2.99995V12.9999C21.0175 13.5358 20.8127 14.0552 20.4336 14.4343C20.0545 14.8134 19.5351 15.0183 18.9992 14.9999H14.9992V18.9999C15.0175 19.5358 14.8127 20.0552 14.4336 20.4343C14.0545 20.8134 13.5351 21.0183 12.9992 20.9999ZM2.99922 8.99995V18.9999H12.9992V14.9999H8.99922C8.46337 15.0183 7.94395 14.8134 7.56483 14.4343C7.18572 14.0552 6.98089 13.5358 6.99922 12.9999V8.99995H2.99922ZM8.99922 2.99995V12.9999H18.9992V2.99995H8.99922Z" fill="#0083C7"/>
</svg>
