<svg width="16" height="14" viewBox="0 0 16 14" fill="none" xmlns="http://www.w3.org/2000/svg">
<path d="M9.69182 2.11952C8.25908 2.74821 5.39481 4.05095 1.10026 6.02645C0.402915 6.3194 0.0370548 6.60588 0.00390646 6.88587C-0.0525685 7.3603 0.509726 7.54696 1.27337 7.79973C1.37772 7.83473 1.48576 7.86973 1.59626 7.90861C2.34885 8.16657 3.36049 8.4686 3.88595 8.48027C4.36353 8.49064 4.89636 8.28323 5.48444 7.85806C9.49662 4.99722 11.5678 3.55189 11.6979 3.52078C11.79 3.49874 11.9177 3.47022 12.0036 3.55189C12.0896 3.63226 12.081 3.78522 12.0724 3.8267C12.0159 4.07687 9.81337 6.24033 8.67159 7.3603C8.31555 7.70899 8.06387 7.95658 8.01231 8.01361C7.8969 8.13935 7.77904 8.2599 7.66609 8.37527C6.96629 9.08562 6.44328 9.61968 7.69555 10.4908C8.27955 10.8972 8.75016 11.2353 9.21633 11.5701L9.25844 11.6004C9.78267 11.9776 10.3057 12.3535 10.9834 12.8227C11.1553 12.942 11.3198 13.0651 11.4806 13.1857C12.0908 13.6459 12.6396 14.0581 13.3173 13.9933C13.7101 13.9544 14.1177 13.5642 14.324 12.3989C14.8114 9.64301 15.7715 3.67503 15.9937 1.21473C16.0072 1.01046 15.999 0.805233 15.9691 0.602901C15.9513 0.439482 15.8759 0.289117 15.758 0.181616C15.5824 0.0299542 15.3099 -0.00245251 15.1871 0.00014001C14.6334 0.0105101 13.7838 0.322908 9.69182 2.11952Z" fill="#2EA4E0"/>
</svg>
