<svg width="30" height="31" viewBox="0 0 30 31" fill="none" xmlns="http://www.w3.org/2000/svg">
<rect y="0.5" width="30" height="30" rx="15" fill="#F7F8FA"/>
<path fill-rule="evenodd" clip-rule="evenodd" d="M18.9014 15.5C18.9014 17.8012 17.0783 19.6667 14.8295 19.6667C12.5806 19.6667 10.7575 17.8012 10.7575 15.5C10.7575 13.1988 12.5806 11.3333 14.8295 11.3333C17.0783 11.3333 18.9014 13.1988 18.9014 15.5ZM17.2726 15.5C17.2726 16.8807 16.1788 18 14.8295 18C13.4802 18 12.3863 16.8807 12.3863 15.5C12.3863 14.1193 13.4802 13 14.8295 13C16.1788 13 17.2726 14.1193 17.2726 15.5Z" fill="#E9EDF2"/>
<path fill-rule="evenodd" clip-rule="evenodd" d="M7.5 15.5C7.5 19.6421 10.7815 23 14.8295 23H23.2245L24.8532 21.3333H19.4367C19.7971 21.035 20.1292 20.7023 20.4284 20.3403H25.8237L27.5 18.625H21.4944C21.9211 17.6737 22.1589 16.6153 22.1589 15.5C22.1589 11.3579 18.8774 8 14.8295 8C10.7815 8 7.5 11.3579 7.5 15.5ZM14.8295 21.3333C17.9779 21.3333 20.5302 18.7217 20.5302 15.5C20.5302 12.2783 17.9779 9.66667 14.8295 9.66667C11.6811 9.66667 9.12877 12.2783 9.12877 15.5C9.12877 18.7217 11.6811 21.3333 14.8295 21.3333Z" fill="#E9EDF2"/>
</svg>
