<svg id="Layer_1" data-name="Layer 1" xmlns="http://www.w3.org/2000/svg" viewBox="0 0 510.99 444.52"><defs><style>.cls-1{fill:#52af95;}.cls-1,.cls-2{fill-rule:evenodd;}.cls-2{fill:#fff;}</style></defs><path class="cls-1" d="M94.57,23.9,1.39,219.61A3.81,3.81,0,0,0,2.21,224L253.85,465.17a3.84,3.84,0,0,0,5.31,0L510.8,224.05a3.79,3.79,0,0,0,.82-4.42L418.44,23.91A3.74,3.74,0,0,0,415,21.72H98a3.75,3.75,0,0,0-3.46,2.18Z" transform="translate(-1.01 -21.72)"/><path class="cls-2" d="M288.84,239.71h0c-1.81.14-11.14.69-32,.69-16.56,0-28.31-.49-32.44-.69h0c-64-2.82-111.77-14-111.77-27.29S160.43,188,224.43,185.09v43.52c4.19.31,16.17,1,32.73,1,19.87,0,29.82-.82,31.62-1V185.12c63.86,2.85,111.52,14,111.52,27.3s-47.65,24.44-111.52,27.27h0Zm0-59.09v-39H378V82.28H135.31v59.39h89.11V180.6c-72.43,3.33-126.9,17.68-126.9,34.87S152,247,224.42,250.34v124.8h64.4V250.29c72.26-3.32,126.64-17.66,126.64-34.83S361.13,184,288.82,180.6h0Zm0,0Z" transform="translate(-1.01 -21.72)"/></svg>