<svg width="24" height="24" viewBox="0 0 24 24" fill="none" xmlns="http://www.w3.org/2000/svg">
<path d="M0 12C0 5.37258 5.37258 0 12 0C18.6274 0 24 5.37258 24 12C24 18.6274 18.6274 24 12 24C5.37258 24 0 18.6274 0 12Z" fill="#1C60DD"/>
<g clip-path="url(#clip0)">
<path opacity="0.5" fill-rule="evenodd" clip-rule="evenodd" d="M7.25391 10.3888L7.68024 8.53441L10.6829 6.55859V9.03411L7.25391 11.491V10.3888Z" fill="white"/>
<path opacity="0.7" fill-rule="evenodd" clip-rule="evenodd" d="M8.67383 10.4542L12.055 8.06445V10.027C12.055 10.027 12.0036 10.6747 11.7564 10.7954C11.5737 10.8801 8.67473 12.8298 8.67473 12.8298L8.67383 10.4542Z" fill="white"/>
<path opacity="0.9" fill-rule="evenodd" clip-rule="evenodd" d="M10.5156 11.6133L13.5214 9.59985V11.5621C13.5214 11.5621 13.5214 12.1046 13.2228 12.2954C13.0301 12.4125 10.5163 14.0755 10.5163 14.0755L10.5156 11.6133Z" fill="white"/>
<path opacity="0.5" fill-rule="evenodd" clip-rule="evenodd" d="M11.7617 5.85747L13.4143 4.64648V7.12073L11.7633 8.26923L11.7617 5.85747Z" fill="white"/>
<path opacity="0.7" fill-rule="evenodd" clip-rule="evenodd" d="M13.1062 7.33197L14.7669 6.21704V8.77838L13.1055 9.87514L13.1062 7.33197Z" fill="white"/>
<path opacity="0.5" fill-rule="evenodd" clip-rule="evenodd" d="M14.3809 3.98654L15.5118 3.19995V4.90631C15.5118 4.90631 15.5118 5.76 15.2132 5.93084C15.1558 5.96542 14.3869 6.4741 14.3869 6.4741L14.3809 3.98654Z" fill="white"/>
<path opacity="0.9" fill-rule="evenodd" clip-rule="evenodd" d="M14.4093 8.98326L15.536 8.21484L15.5101 10.1756C15.5101 10.1756 15.536 10.6927 15.2115 10.9439C15.1367 11.0195 14.3695 11.4442 14.383 11.4526C14.3965 11.4611 14.4049 8.91385 14.4093 8.98326Z" fill="white"/>
<path opacity="0.7" fill-rule="evenodd" clip-rule="evenodd" d="M15.7363 5.58888L16.6377 4.91064C16.6377 4.91064 16.6467 5.928 16.6377 6.61726C16.631 6.82662 16.5881 7.03243 16.5112 7.22283C16.4344 7.41323 16.3252 7.58455 16.1899 7.72682C16.1899 7.72682 15.7237 8.05672 15.7379 8.06594C15.7521 8.07516 15.7363 5.58888 15.7363 5.58888Z" fill="white"/>
<path fill-rule="evenodd" clip-rule="evenodd" d="M10.6828 6.55688C10.6688 6.59018 7.92624 8.13723 7.51049 8.66794C7.72253 8.46455 7.33022 8.86875 7.28516 9.47757L7.41563 15.1993C7.41563 15.1993 7.20606 16.1895 8.2363 16.8626C8.9709 17.3427 13.2199 20.0846 13.7415 20.3635C14.2632 20.6424 14.3977 20.2016 14.3977 20.2016V14.6479C14.3864 14.6328 14.5534 13.7704 13.6593 13.12C13.4876 12.9505 7.9819 10.1 7.748 9.20248C7.49675 8.23864 10.6828 6.8061 10.6828 6.55688Z" fill="#95BAFF"/>
<path fill-rule="evenodd" clip-rule="evenodd" d="M14.1401 14.598L14.4083 14.3774V20.2941C14.4083 20.2941 14.2789 20.59 14.1401 20.6181C14.1237 20.6084 14.1401 14.598 14.1401 14.598Z" fill="#005CEB" fill-opacity="0.3"/>
<path d="M7.55773 9.39717C7.59583 9.46595 7.63951 9.53051 7.6882 9.59003C7.63311 9.5209 7.58684 9.44332 7.55075 9.35951C7.22626 8.40823 9.57878 7.33864 10.559 6.62402C10.559 6.62402 8.17966 7.96693 7.70803 8.4354C7.29116 8.84932 7.26119 9.09956 7.26119 9.09956L7.21094 9.44916C7.2213 9.27961 7.22468 9.12825 7.26119 9.09956C7.25668 9.12902 7.5539 9.35286 7.55773 9.39717Z" fill="white"/>
<path d="M13.4081 13.3552C13.2147 13.1695 10.7473 11.8871 9.04102 10.7273C9.14242 10.8 9.23278 10.8638 9.30376 10.9171L13.3454 20.1553C13.4306 20.2065 13.4948 20.2478 13.5439 20.2739L14.1411 20.613V14.6787C14.1336 14.672 14.2006 13.8526 13.4081 13.3552Z" fill="white"/>
<path opacity="0.3" d="M7.38354 15.9689C7.29115 15.7525 7.22896 15.5211 7.19922 15.283C7.20829 15.5257 7.27174 15.7618 7.38354 15.9689Z" fill="url(#paint0_linear)"/>
<path d="M9.04075 10.7271C8.43684 10.3209 7.9366 9.92084 7.68872 9.59017C7.6401 9.53055 7.59649 9.46592 7.55848 9.39703C7.55397 9.35272 7.26554 9.09762 7.2732 9.06714C7.2367 9.09607 7.21349 9.27563 7.20312 9.44621L7.21101 15.2817C7.24031 15.7138 7.2696 15.7304 7.37055 15.9689C7.51815 16.2289 7.59115 16.3275 7.85435 16.5944C8.47222 17.0234 12.298 19.5107 13.3506 20.1546L9.30349 10.9144L9.04075 10.7271Z" fill="white"/>
<path opacity="0.2" d="M9.03399 10.723C8.43008 10.3168 7.92984 9.91669 7.68196 9.58602C7.63549 9.52618 7.59415 9.46142 7.55848 9.39264C7.55397 9.3486 7.26442 9.09347 7.2732 9.06299C7.25518 9.08274 7.2216 9.31118 7.21124 9.48152L7.20312 15.2988C7.21777 15.6623 7.28019 15.7629 7.37213 15.9796C7.50372 16.2288 7.67295 16.415 7.86381 16.5903C8.48191 17.0193 12.2915 19.5066 13.344 20.1505L9.29673 10.9102L9.03399 10.723Z" fill="url(#paint1_linear)"/>
<path fill-rule="evenodd" clip-rule="evenodd" d="M13.2704 15.7595L12.4306 15.1704C12.2814 15.072 12.1376 15.1356 12.2113 15.3095V16.8947C12.2471 16.9533 12.3195 17.1431 12.2859 17.2389C12.1656 17.2323 12.7636 17.8024 13.1016 18.0173C13.2001 18.0801 13.3838 18.1062 13.3695 17.8478V15.9647C13.37 15.9236 13.361 15.8832 13.3434 15.8474C13.3261 15.8115 13.3009 15.7812 13.2704 15.7595Z" fill="#C9D6ED"/>
<path fill-rule="evenodd" clip-rule="evenodd" d="M13.2345 15.8546C13.1038 15.6696 12.6671 15.3856 12.3708 15.1425C12.2962 15.0805 12.1664 15.1246 12.168 15.2273C12.1867 16.4268 12.1905 16.9787 12.2516 17.2136C12.2966 17.3929 12.7913 17.7697 13.0725 17.982C13.1561 18.0463 13.269 18.0617 13.2726 17.9454C13.2884 17.4411 13.2726 16.2711 13.2726 15.9719C13.2713 15.9288 13.2577 15.8875 13.2338 15.8541L13.2345 15.8546Z" fill="#1C60DD"/>
</g>
<defs>
<linearGradient id="paint0_linear" x1="9.97582" y1="12.1133" x2="6.92907" y2="15.1989" gradientUnits="userSpaceOnUse">
<stop/>
<stop offset="1" stop-color="#1C60DD" stop-opacity="0"/>
</linearGradient>
<linearGradient id="paint1_linear" x1="11.2518" y1="13.3735" x2="8.20505" y2="16.4591" gradientUnits="userSpaceOnUse">
<stop offset="0.19" stop-color="#1C60DD"/>
<stop offset="1" stop-color="#1C60DD"/>
</linearGradient>
<clipPath id="clip0">
<rect width="9.6" height="17.6" fill="white" transform="translate(7.19922 3.19995)"/>
</clipPath>
</defs>
</svg>
