<svg width="67" height="67" viewBox="0 0 67 67" fill="none" xmlns="http://www.w3.org/2000/svg">
<rect width="67" height="67" rx="33.5" fill="url(#paint0_linear)"/>
<path fill-rule="evenodd" clip-rule="evenodd" d="M60.3009 53.6H56.5293H33.5025C22.3994 53.6 13.3984 44.6009 13.3984 33.5C13.3984 22.3991 22.3994 13.4 33.5025 13.4C44.6057 13.4 53.6066 22.3991 53.6066 33.5C53.6066 36.4889 52.9541 39.3255 51.7837 41.875H65.943C65.5362 43.4555 65.017 44.9909 64.3944 46.4721H63.6587H48.8599C48.0392 47.4423 47.1282 48.3337 46.1398 49.1334H60.9969H63.1346C62.3065 50.6999 61.3578 52.1929 60.3009 53.6ZM33.5025 49.1334C42.1384 49.1334 49.1391 42.1341 49.1391 33.5C49.1391 24.866 42.1384 17.8667 33.5025 17.8667C24.8667 17.8667 17.866 24.866 17.866 33.5C17.866 42.1341 24.8667 49.1334 33.5025 49.1334ZM44.6715 33.5C44.6715 39.6672 39.671 44.6667 33.5025 44.6667C27.3341 44.6667 22.3336 39.6672 22.3336 33.5C22.3336 27.3328 27.3341 22.3334 33.5025 22.3334C39.671 22.3334 44.6715 27.3328 44.6715 33.5ZM40.2039 33.5C40.2039 37.2003 37.2036 40.2 33.5025 40.2C29.8015 40.2 26.8012 37.2003 26.8012 33.5C26.8012 29.7997 29.8015 26.8 33.5025 26.8C37.2036 26.8 40.2039 29.7997 40.2039 33.5Z" fill="white"/>
<defs>
<linearGradient id="paint0_linear" x1="0" y1="0" x2="67" y2="67" gradientUnits="userSpaceOnUse">
<stop stop-color="#0083C7"/>
<stop offset="1" stop-color="#103D7C"/>
</linearGradient>
</defs>
</svg>
