<svg xmlns="http://www.w3.org/2000/svg" width="24" height="24" viewBox="0 0 24 24" fill="none">
  <g clip-path="url(#clip0_17759_10204)">
    <path d="M0 12C0 5.37258 5.37258 0 12 0C18.6274 0 24 5.37258 24 12C24 18.6274 18.6274 24 12 24C5.37258 24 0 18.6274 0 12Z" fill="#103D7C"/>
    <path fill-rule="evenodd" clip-rule="evenodd" d="M16.5415 12C16.5415 14.4546 14.5362 16.4444 12.0624 16.4444C9.58867 16.4444 7.5833 14.4546 7.5833 12C7.5833 9.5454 9.58867 7.55556 12.0624 7.55556C14.5362 7.55556 16.5415 9.5454 16.5415 12ZM14.7499 12C14.7499 13.4728 13.5467 14.6667 12.0624 14.6667C10.5782 14.6667 9.37495 13.4728 9.37495 12C9.37495 10.5272 10.5782 9.33333 12.0624 9.33333C13.5467 9.33333 14.7499 10.5272 14.7499 12Z" fill="url(#paint0_linear_17759_10204)"/>
    <path fill-rule="evenodd" clip-rule="evenodd" d="M4 12C4 16.4183 7.60967 20 12.0624 20H21.2969L23.0886 18.2222H17.1304C17.5268 17.904 17.8921 17.5492 18.2213 17.163H24.1561L26 15.3333H19.3938C19.8632 14.3186 20.1248 13.1896 20.1248 12C20.1248 7.58172 16.5152 4 12.0624 4C7.60967 4 4 7.58172 4 12ZM12.0624 18.2222C15.5257 18.2222 18.3332 15.4364 18.3332 12C18.3332 8.56356 15.5257 5.77778 12.0624 5.77778C8.59917 5.77778 5.79165 8.56356 5.79165 12C5.79165 15.4364 8.59917 18.2222 12.0624 18.2222Z" fill="url(#paint1_linear_17759_10204)"/>
  </g>
  <defs>
    <linearGradient id="paint0_linear_17759_10204" x1="4" y1="4" x2="19.2216" y2="24.9297" gradientUnits="userSpaceOnUse">
      <stop stop-color="#0083C7"/>
      <stop offset="1" stop-color="#00AA5B"/>
    </linearGradient>
    <linearGradient id="paint1_linear_17759_10204" x1="4" y1="4" x2="19.2216" y2="24.9297" gradientUnits="userSpaceOnUse">
      <stop stop-color="#0083C7"/>
      <stop offset="1" stop-color="#00AA5B"/>
    </linearGradient>
    <clipPath id="clip0_17759_10204">
      <path d="M0 12C0 5.37258 5.37258 0 12 0C18.6274 0 24 5.37258 24 12C24 18.6274 18.6274 24 12 24C5.37258 24 0 18.6274 0 12Z" fill="white"/>
    </clipPath>
  </defs>
</svg>
