<svg width="24" height="24" viewBox="0 0 24 24" fill="none" xmlns="http://www.w3.org/2000/svg">
<path d="M0 12C0 5.37258 5.37258 0 12 0C18.6274 0 24 5.37258 24 12C24 18.6274 18.6274 24 12 24C5.37258 24 0 18.6274 0 12Z" fill="url(#paint0_linear)"/>
<path fill-rule="evenodd" clip-rule="evenodd" d="M21.6017 19.2H20.2506H12.0023C8.02499 19.2 4.80078 15.9765 4.80078 12C4.80078 8.0236 8.02499 4.80005 12.0023 4.80005C15.9795 4.80005 19.2037 8.0236 19.2037 12C19.2037 13.0707 18.97 14.0868 18.5507 15H23.6227C23.477 15.5662 23.291 16.1162 23.068 16.6468H22.8045H17.5034C17.2094 16.9943 16.8831 17.3136 16.529 17.6H21.851H22.6167C22.3201 18.1612 21.9803 18.696 21.6017 19.2ZM12.0023 17.6C15.0957 17.6 17.6034 15.0928 17.6034 12C17.6034 8.90725 15.0957 6.40005 12.0023 6.40005C8.90882 6.40005 6.40111 8.90725 6.40111 12C6.40111 15.0928 8.90882 17.6 12.0023 17.6ZM16.0031 12C16.0031 14.2092 14.2118 16.0001 12.0023 16.0001C9.79266 16.0001 8.00143 14.2092 8.00143 12C8.00143 9.79091 9.79266 8.00005 12.0023 8.00005C14.2118 8.00005 16.0031 9.79091 16.0031 12ZM14.4027 12C14.4027 13.3255 13.328 14.4 12.0023 14.4C10.6765 14.4 9.60176 13.3255 9.60176 12C9.60176 10.6746 10.6765 9.60005 12.0023 9.60005C13.328 9.60005 14.4027 10.6746 14.4027 12Z" fill="white"/>
<defs>
<linearGradient id="paint0_linear" x1="0" y1="0" x2="24" y2="24" gradientUnits="userSpaceOnUse">
<stop stop-color="#0083C7"/>
<stop offset="1" stop-color="#103D7C"/>
</linearGradient>
</defs>
</svg>
