<?xml version="1.0" encoding="UTF-8"?>
<svg xmlns="http://www.w3.org/2000/svg" xmlns:xlink="http://www.w3.org/1999/xlink" width="20pt" height="20pt" viewBox="0 0 20 20" version="1.1">
<g id="surface1">
<path style=" stroke:none;fill-rule:nonzero;fill:rgb(5.098039%,29.803922%,55.294118%);fill-opacity:1;" d="M 10 0 C 15.523438 0 20 4.476562 20 10 C 20 15.523438 15.523438 20 10 20 C 4.476562 20 0 15.523438 0 10 C 0 4.476562 4.476562 0 10 0 Z M 10 0 "/>
<path style=" stroke:none;fill-rule:nonzero;fill:rgb(100%,100%,100%);fill-opacity:1;" d="M 8.789062 3.601562 L 9.757812 3.601562 L 9.757812 5.53125 L 8.789062 5.53125 Z M 8.789062 3.601562 "/>
<path style=" stroke:none;fill-rule:nonzero;fill:rgb(100%,100%,100%);fill-opacity:1;" d="M 8.789062 14.46875 L 9.757812 14.46875 L 9.757812 16.398438 L 8.789062 16.398438 Z M 8.789062 14.46875 "/>
<path style=" stroke:none;fill-rule:nonzero;fill:rgb(100%,100%,100%);fill-opacity:1;" d="M 10.242188 3.601562 L 11.210938 3.601562 L 11.210938 5.53125 L 10.242188 5.53125 Z M 10.242188 3.601562 "/>
<path style=" stroke:none;fill-rule:nonzero;fill:rgb(100%,100%,100%);fill-opacity:1;" d="M 10.242188 14.46875 L 11.210938 14.46875 L 11.210938 16.398438 L 10.242188 16.398438 Z M 10.242188 14.46875 "/>
<path style=" stroke:none;fill-rule:evenodd;fill:rgb(100%,100%,100%);fill-opacity:1;" d="M 6.605469 6.863281 C 7.019531 6.34375 7.636719 6.015625 8.414062 6.015625 L 13.75 6.015625 L 13.75 6.84375 L 8.414062 6.84375 C 7.898438 6.84375 7.523438 7.054688 7.261719 7.378906 C 6.992188 7.714844 6.839844 8.191406 6.839844 8.726562 C 6.839844 9.222656 7.027344 9.597656 7.320312 9.855469 C 7.617188 10.121094 8.042969 10.277344 8.53125 10.277344 L 10.5625 10.277344 C 10.5625 10.277344 10.5625 10.277344 10.5625 10.691406 C 10.5625 11.105469 10.5625 11.105469 10.5625 11.105469 L 8.53125 11.105469 C 7.863281 11.105469 7.230469 10.890625 6.761719 10.476562 C 6.289062 10.054688 6 9.453125 6 8.726562 C 6 8.042969 6.195312 7.375 6.605469 6.863281 Z M 7.351562 8.5625 C 7.351562 7.894531 7.898438 7.359375 8.570312 7.359375 L 13.75 7.359375 L 13.75 8.191406 L 8.570312 8.191406 C 8.359375 8.191406 8.191406 8.359375 8.191406 8.5625 C 8.191406 8.621094 8.226562 8.710938 8.332031 8.796875 C 8.4375 8.882812 8.574219 8.933594 8.6875 8.933594 L 11.105469 8.933594 C 12.070312 8.933594 12.800781 9.230469 13.296875 9.722656 C 13.785156 10.210938 14 10.855469 14 11.476562 C 14 12.082031 13.824219 12.71875 13.363281 13.207031 C 12.894531 13.699219 12.183594 13.984375 11.222656 13.984375 L 6.417969 13.984375 L 6.417969 13.15625 L 11.222656 13.15625 C 12.011719 13.15625 12.476562 12.925781 12.75 12.636719 C 13.03125 12.34375 13.160156 11.933594 13.160156 11.476562 C 13.160156 11.039062 13.011719 10.617188 12.699219 10.308594 C 12.394531 10 11.890625 9.761719 11.105469 9.761719 L 8.6875 9.761719 C 8.359375 9.761719 8.039062 9.632812 7.796875 9.4375 C 7.554688 9.238281 7.351562 8.933594 7.351562 8.5625 Z M 11.71875 11.292969 C 11.640625 11.230469 11.367188 11.105469 10.5625 11.105469 L 10.5625 10.277344 C 11.386719 10.277344 11.921875 10.390625 12.242188 10.640625 C 12.597656 10.921875 12.597656 11.296875 12.597656 11.457031 C 12.597656 11.464844 12.597656 11.472656 12.597656 11.476562 C 12.597656 11.484375 12.597656 11.492188 12.597656 11.496094 C 12.597656 11.660156 12.597656 12.03125 12.242188 12.3125 C 11.921875 12.566406 11.386719 12.679688 10.5625 12.679688 L 6.417969 12.679688 L 6.417969 11.847656 L 10.5625 11.847656 C 11.367188 11.847656 11.640625 11.726562 11.71875 11.664062 C 11.722656 11.664062 11.722656 11.660156 11.722656 11.660156 C 11.746094 11.640625 11.757812 11.636719 11.757812 11.476562 C 11.757812 11.320312 11.746094 11.3125 11.722656 11.296875 C 11.722656 11.292969 11.722656 11.292969 11.71875 11.292969 Z M 11.71875 11.292969 "/>
<path style=" stroke:none;fill-rule:evenodd;fill:rgb(100%,100%,100%);fill-opacity:1;" d="M 6.691406 3.894531 C 6.796875 4.066406 6.742188 4.289062 6.570312 4.394531 C 4.664062 5.542969 3.394531 7.625 3.394531 10 C 3.394531 12.375 4.664062 14.457031 6.570312 15.605469 C 6.742188 15.710938 6.796875 15.933594 6.691406 16.105469 C 6.585938 16.277344 6.363281 16.332031 6.191406 16.226562 C 4.078125 14.949219 2.667969 12.640625 2.667969 10 C 2.667969 7.359375 4.078125 5.050781 6.191406 3.773438 C 6.363281 3.667969 6.585938 3.722656 6.691406 3.894531 Z M 13.445312 3.972656 C 13.554688 3.800781 13.78125 3.753906 13.949219 3.859375 C 15.984375 5.15625 17.332031 7.421875 17.332031 10 C 17.332031 12.578125 15.984375 14.84375 13.949219 16.140625 C 13.78125 16.246094 13.554688 16.199219 13.445312 16.027344 C 13.339844 15.859375 13.386719 15.636719 13.558594 15.527344 C 15.390625 14.363281 16.605469 12.320312 16.605469 10 C 16.605469 7.679688 15.390625 5.636719 13.558594 4.472656 C 13.386719 4.363281 13.339844 4.140625 13.445312 3.972656 Z M 13.445312 3.972656 "/>
</g>
</svg>
