<svg width="157" height="131" viewBox="0 0 157 131" fill="none" xmlns="http://www.w3.org/2000/svg">
<path d="M22.8894 51.4706V50.9706H22.3894H12.125V0.5H89.875V50.9706H33.437H33.2302L33.0838 51.1167L22.8894 61.2943V51.4706Z" fill="#F7F8FA" stroke="#E9EDF2"/>
<path d="M53.0388 14.7727H49.3878L49.6763 30.9637H52.7503L53.0388 14.7727ZM51.2077 37.7108C52.4173 37.7108 53.4272 36.7232 53.4272 35.4914C53.4272 34.2818 52.4173 33.283 51.2077 33.283C49.987 33.283 48.9883 34.2818 48.9883 35.4914C48.9883 36.7232 49.987 37.7108 51.2077 37.7108Z" fill="#E9EDF2"/>
<path d="M134.111 78.75V78.25H134.611H144.875V26.75H67.125V78.25H123.563H123.773L123.92 78.3997L134.111 88.7772V78.75Z" fill="#F7F8FA" stroke="#E9EDF2"/>
<path d="M103.734 57.2136H106.908V57.0028C106.953 54.4504 107.685 53.3074 109.572 52.1421C111.558 50.9436 112.779 49.2568 112.779 46.7599C112.779 43.1533 110.049 40.7119 105.976 40.7119C102.236 40.7119 99.24 42.8981 99.0957 46.8931H102.469C102.602 44.5405 104.278 43.5084 105.976 43.5084C107.863 43.5084 109.394 44.7624 109.394 46.7267C109.394 48.3801 108.362 49.5454 107.041 50.3666C104.977 51.6317 103.757 52.8857 103.734 57.0028V57.2136ZM105.41 63.9608C106.62 63.9608 107.63 62.9731 107.63 61.7413C107.63 60.5317 106.62 59.5329 105.41 59.5329C104.189 59.5329 103.191 60.5317 103.191 61.7413C103.191 62.9731 104.189 63.9608 105.41 63.9608Z" fill="#E9EDF2"/>
<path d="M0.409091 114.364L4.61364 121.205V126H6.02273V121.205L10.2273 114.364H8.61364L5.38636 119.795H5.25L2.02273 114.364H0.409091ZM14.179 126.182C16.5426 126.182 18.1335 124.386 18.1335 121.682C18.1335 118.955 16.5426 117.159 14.179 117.159C11.8153 117.159 10.2244 118.955 10.2244 121.682C10.2244 124.386 11.8153 126.182 14.179 126.182ZM14.179 124.977C12.3835 124.977 11.5653 123.432 11.5653 121.682C11.5653 119.932 12.3835 118.364 14.179 118.364C15.9744 118.364 16.7926 119.932 16.7926 121.682C16.7926 123.432 15.9744 124.977 14.179 124.977ZM25.6804 122.432C25.6804 124.068 24.4304 124.818 23.4304 124.818C22.3168 124.818 21.5213 124 21.5213 122.727V117.273H20.1804V122.818C20.1804 125.045 21.3622 126.114 22.9986 126.114C24.3168 126.114 25.1804 125.409 25.5895 124.523H25.6804V126H27.0213V117.273H25.6804V122.432ZM35.3182 120.75C35.3182 119.227 36.2898 118.364 37.6136 118.364C38.875 118.364 39.6364 119.159 39.6364 120.545V126H40.9773V120.455C40.9773 118.21 39.7841 117.159 38 117.159C36.625 117.159 35.8409 117.733 35.4318 118.636H35.3182V114.364H33.9773V126H35.3182V120.75ZM45.9986 126.205C47.5213 126.205 48.3168 125.386 48.5895 124.818H48.6577V126H49.9986V120.25C49.9986 117.477 47.8849 117.159 46.7713 117.159C45.4531 117.159 43.9531 117.614 43.2713 119.205L44.544 119.659C44.8395 119.023 45.5384 118.341 46.8168 118.341C48.0497 118.341 48.6577 118.994 48.6577 120.114V120.159C48.6577 120.807 47.9986 120.75 46.4077 120.955C44.7884 121.165 43.0213 121.523 43.0213 123.523C43.0213 125.227 44.3395 126.205 45.9986 126.205ZM46.2031 125C45.1349 125 44.3622 124.523 44.3622 123.591C44.3622 122.568 45.294 122.25 46.3395 122.114C46.9077 122.045 48.4304 121.886 48.6577 121.614V122.841C48.6577 123.932 47.794 125 46.2031 125ZM59.2699 117.273H57.8153L55.4062 124.227H55.3153L52.9062 117.273H51.4517L54.679 126H56.0426L59.2699 117.273ZM64.3864 126.182C66.1591 126.182 67.4545 125.295 67.8636 123.977L66.5682 123.614C66.2273 124.523 65.4375 124.977 64.3864 124.977C62.8125 124.977 61.7273 123.96 61.6648 122.091H68V121.523C68 118.273 66.0682 117.159 64.25 117.159C61.8864 117.159 60.3182 119.023 60.3182 121.705C60.3182 124.386 61.8636 126.182 64.3864 126.182ZM61.6648 120.932C61.7557 119.574 62.7159 118.364 64.25 118.364C65.7045 118.364 66.6364 119.455 66.6364 120.932H61.6648ZM71.3807 120.75C71.3807 119.227 72.3239 118.364 73.608 118.364C74.8523 118.364 75.608 119.176 75.608 120.545V126H76.9489V120.455C76.9489 118.227 75.7614 117.159 73.9943 117.159C72.6761 117.159 71.858 117.75 71.4489 118.636H71.3352V117.273H70.0398V126H71.3807V120.75ZM80.581 114.364H79.3082V115.409C79.3082 116.25 78.8991 116.977 78.4219 117.659L79.1491 118.25C80.0582 117.523 80.581 116.318 80.581 115.386V114.364ZM86.3821 117.273H84.5185V115.182H83.1776V117.273H81.8594V118.409H83.1776V123.864C83.1776 125.386 84.4048 126.114 85.5412 126.114C86.0412 126.114 86.3594 126.023 86.5412 125.955L86.2685 124.75C86.1548 124.773 85.973 124.818 85.6776 124.818C85.0866 124.818 84.5185 124.636 84.5185 123.5V118.409H86.3821V117.273ZM96.1946 126.182C97.8764 126.182 98.4446 125.136 98.7401 124.659H98.8991V126H100.195V114.364H98.8537V118.659H98.7401C98.4446 118.205 97.9219 117.159 96.2173 117.159C94.0128 117.159 92.4901 118.909 92.4901 121.659C92.4901 124.432 94.0128 126.182 96.1946 126.182ZM96.3764 124.977C94.6946 124.977 93.831 123.5 93.831 121.636C93.831 119.795 94.6719 118.364 96.3764 118.364C98.0128 118.364 98.8764 119.682 98.8764 121.636C98.8764 123.614 97.9901 124.977 96.3764 124.977ZM102.837 126H104.178V117.273H102.837V126ZM103.518 115.818C104.041 115.818 104.473 115.409 104.473 114.909C104.473 114.409 104.041 114 103.518 114C102.996 114 102.564 114.409 102.564 114.909C102.564 115.409 102.996 115.818 103.518 115.818ZM112.815 119.227C112.395 117.989 111.452 117.159 109.724 117.159C107.884 117.159 106.52 118.205 106.52 119.682C106.52 120.886 107.236 121.693 108.838 122.068L110.293 122.409C111.173 122.614 111.588 123.034 111.588 123.636C111.588 124.386 110.793 125 109.543 125C108.446 125 107.759 124.528 107.52 123.591L106.247 123.909C106.56 125.392 107.781 126.182 109.565 126.182C111.594 126.182 112.974 125.074 112.974 123.568C112.974 122.352 112.213 121.585 110.656 121.205L109.361 120.886C108.327 120.631 107.861 120.284 107.861 119.614C107.861 118.864 108.656 118.318 109.724 118.318C110.895 118.318 111.378 118.966 111.611 119.568L112.815 119.227ZM114.993 129.273H116.334V124.659H116.447C116.743 125.136 117.311 126.182 118.993 126.182C121.175 126.182 122.697 124.432 122.697 121.659C122.697 118.909 121.175 117.159 118.97 117.159C117.266 117.159 116.743 118.205 116.447 118.659H116.288V117.273H114.993V129.273ZM116.311 121.636C116.311 119.682 117.175 118.364 118.811 118.364C120.516 118.364 121.357 119.795 121.357 121.636C121.357 123.5 120.493 124.977 118.811 124.977C117.197 124.977 116.311 123.614 116.311 121.636ZM130.243 122.432C130.243 124.068 128.993 124.818 127.993 124.818C126.879 124.818 126.084 124 126.084 122.727V117.273H124.743V122.818C124.743 125.045 125.925 126.114 127.561 126.114C128.879 126.114 129.743 125.409 130.152 124.523H130.243V126H131.584V117.273H130.243V122.432ZM137.835 117.273H135.972V115.182H134.631V117.273H133.312V118.409H134.631V123.864C134.631 125.386 135.858 126.114 136.994 126.114C137.494 126.114 137.812 126.023 137.994 125.955L137.722 124.75C137.608 124.773 137.426 124.818 137.131 124.818C136.54 124.818 135.972 124.636 135.972 123.5V118.409H137.835V117.273ZM143.418 126.182C145.19 126.182 146.486 125.295 146.895 123.977L145.599 123.614C145.259 124.523 144.469 124.977 143.418 124.977C141.844 124.977 140.759 123.96 140.696 122.091H147.031V121.523C147.031 118.273 145.099 117.159 143.281 117.159C140.918 117.159 139.349 119.023 139.349 121.705C139.349 124.386 140.895 126.182 143.418 126.182ZM140.696 120.932C140.787 119.574 141.747 118.364 143.281 118.364C144.736 118.364 145.668 119.455 145.668 120.932H140.696ZM155.253 119.227C154.832 117.989 153.889 117.159 152.162 117.159C150.321 117.159 148.957 118.205 148.957 119.682C148.957 120.886 149.673 121.693 151.276 122.068L152.73 122.409C153.611 122.614 154.026 123.034 154.026 123.636C154.026 124.386 153.23 125 151.98 125C150.884 125 150.196 124.528 149.957 123.591L148.685 123.909C148.997 125.392 150.219 126.182 152.003 126.182C154.031 126.182 155.412 125.074 155.412 123.568C155.412 122.352 154.651 121.585 153.094 121.205L151.798 120.886C150.764 120.631 150.298 120.284 150.298 119.614C150.298 118.864 151.094 118.318 152.162 118.318C153.332 118.318 153.815 118.966 154.048 119.568L155.253 119.227Z" fill="#8D96A2"/>
</svg>
